<svg width="20" height="13" viewBox="0 0 20 13" fill="none" xmlns="http://www.w3.org/2000/svg">
<path fill-rule="evenodd" clip-rule="evenodd" d="M20.0008 1.19403C20.0008 0.534587 19.5033 0 18.8897 0H17.7785C17.1648 0 16.6673 0.534587 16.6673 1.19403V11.5423C16.6673 12.2018 17.1648 12.7364 17.7785 12.7364H18.8897C19.5033 12.7364 20.0008 12.2018 20.0008 11.5423V1.19403ZM12.2566 2.54727H13.3678C13.9815 2.54727 14.4789 3.09469 14.4789 3.76996V11.5137C14.4789 12.1889 13.9815 12.7364 13.3678 12.7364H12.2566C11.643 12.7364 11.1455 12.1889 11.1455 11.5137V3.76996C11.1455 3.09469 11.643 2.54727 12.2566 2.54727ZM7.74418 5.30681H6.63303C6.01935 5.30681 5.52187 5.8612 5.52187 6.54507V11.4981C5.52187 12.182 6.01935 12.7364 6.63303 12.7364H7.74418C8.35786 12.7364 8.85534 12.182 8.85534 11.4981V6.54507C8.85534 5.8612 8.35786 5.30681 7.74418 5.30681ZM2.22231 7.85409H1.11116C0.497482 7.85409 0 8.40056 0 9.07466V11.5158C0 12.1899 0.497482 12.7364 1.11116 12.7364H2.22231C2.83599 12.7364 3.33347 12.1899 3.33347 11.5158V9.07466C3.33347 8.40056 2.83599 7.85409 2.22231 7.85409Z" fill="#F5F5F5"/>
</svg>
