<svg width="18" height="13" viewBox="0 0 18 13" fill="none" xmlns="http://www.w3.org/2000/svg">
<path fill-rule="evenodd" clip-rule="evenodd" d="M9.00104 2.58993C11.6128 2.59004 14.1248 3.55836 16.0177 5.29474C16.1602 5.42879 16.388 5.4271 16.5284 5.29095L17.891 3.96413C17.962 3.89507 18.0017 3.80153 18.0011 3.7042C18.0005 3.60688 17.9597 3.51379 17.8878 3.44554C12.9196 -1.14851 5.08168 -1.14851 0.113474 3.44554C0.0415056 3.51374 0.000671842 3.6068 8.21625e-06 3.70413C-0.00065541 3.80145 0.0389058 3.89502 0.109938 3.96413L1.47287 5.29095C1.61317 5.42731 1.84118 5.429 1.98363 5.29474C3.87675 3.55824 6.38898 2.58993 9.00104 2.58993ZM8.99752 7.0218C10.4229 7.02171 11.7974 7.55911 12.854 8.52957C12.9969 8.6673 13.222 8.66431 13.3613 8.52284L14.7131 7.13739C14.7843 7.06472 14.8238 6.96613 14.8228 6.86369C14.8217 6.76125 14.7803 6.6635 14.7076 6.59231C11.4902 3.55652 6.50757 3.55652 3.29013 6.59231C3.21745 6.6635 3.17599 6.76129 3.17503 6.86377C3.17408 6.96624 3.21372 7.06482 3.28506 7.13739L4.63649 8.52284C4.77579 8.66431 5.0009 8.6673 5.14381 8.52957C6.19967 7.55975 7.57309 7.0224 8.99752 7.0218ZM11.6485 9.95541C11.6505 10.066 11.6116 10.1727 11.5409 10.2502L9.25514 12.828C9.18813 12.9038 9.09678 12.9464 9.00146 12.9464C8.90614 12.9464 8.81478 12.9038 8.74778 12.828L6.4616 10.2502C6.39098 10.1726 6.35213 10.066 6.35422 9.95532C6.35631 9.84469 6.39917 9.73992 6.47266 9.66576C7.93246 8.286 10.0705 8.286 11.5303 9.66576C11.6037 9.73998 11.6465 9.84478 11.6485 9.95541Z" fill="#F5F5F5"/>
</svg>
