<svg width="270" height="270" viewBox="0 0 270 270" fill="none" xmlns="http://www.w3.org/2000/svg">
    <g opacity="0.5">
        <path opacity="0.54" d="M135 267C197.96 267 249 215.96 249 153C249 90.0395 197.96 39 135 39C72.0395 39 21 90.0395 21 153C21 215.96 72.0395 267 135 267Z" fill="#D7D7D7"/>
        <mask id="mask0_1713_13833" style="mask-type:luminance" maskUnits="userSpaceOnUse" x="21" y="39" width="228" height="228">
            <path d="M135 267C197.96 267 249 215.96 249 153C249 90.0395 197.96 39 135 39C72.0395 39 21 90.0395 21 153C21 215.96 72.0395 267 135 267Z" fill="white"/>
        </mask>
        <g mask="url(#mask0_1713_13833)">
            <path d="M10.5048 237.942L10.0091 233.338L1.34863 152.999L26.6656 121.337L238.099 201.718L219.438 268.196L193.109 309.326H82.3944L36.3598 272.874" fill="url(#paint0_linear_1713_13833)"/>
            <path d="M241.092 196.442C249.842 168.975 208.247 131.199 148.187 112.067C88.1281 92.9338 32.3472 99.6897 23.5974 127.156C14.8475 154.623 56.4421 192.399 116.502 211.532C176.561 230.664 232.342 223.909 241.092 196.442Z" fill="#C7C7CC"/>
            <path d="M181.335 217.072C161.752 217.072 139.858 213.395 118.027 206.444C89.6828 197.419 64.7139 183.943 47.7147 168.505C32.0129 154.249 25.0245 139.739 28.5425 128.7C30.6891 121.959 36.4856 116.553 45.779 112.624C55.4206 108.546 68.3585 106.395 83.2006 106.395C102.784 106.395 124.678 110.071 146.509 117.022C174.853 126.047 199.822 139.523 216.821 154.961C232.523 169.217 239.511 183.727 235.993 194.766C233.847 201.507 228.05 206.913 218.757 210.843C209.115 214.92 196.177 217.072 181.335 217.072Z" fill="url(#paint1_linear_1713_13833)"/>
            <path d="M200.178 128.573C197.773 125.282 194.671 122.755 191.101 121.115C191.264 112.001 186.37 103.135 178.147 98.4089C168.748 93.008 157.73 94.5375 149.396 102.402C149.032 102.744 148.674 103.093 148.32 103.446C148.183 102.971 148.035 102.491 147.882 102.011C144.291 90.8507 135.161 84.205 124.042 84.6639C114.696 85.0489 106.458 90.4077 102.312 98.2981C98.177 98.0028 94.0102 98.8309 90.0861 100.767C83.3191 104.11 78.2715 110.429 76.589 117.671C75.3495 123.003 75.972 128.499 78.3876 133.557C79.8645 136.648 81.8476 139.364 84.1736 141.754C80.9826 142.729 77.934 144.148 75.1491 146.147C70.2598 149.655 66.9686 154.539 65.6341 160.277C63.9938 167.334 65.592 175.072 69.917 180.984C71.3411 182.936 73.0077 184.608 74.8484 186.005C76.5024 187.261 77.5754 187.609 78.3876 188.205C79.2474 188.833 78.8062 190.756 79.5024 191.5C81.6966 193.578 83.9045 192.445 86.2358 194.371C86.3993 194.502 86.5628 194.629 86.7263 194.756C87.7231 194.455 88.8466 194.74 89.5217 195.974C89.6536 196.217 89.8013 196.449 89.9543 196.675C91.89 197.588 93.9364 198.247 96.0092 199.091C99.1897 200.389 101.468 202.351 103.668 204.903C108.52 206.644 113.504 207.994 118.504 209.255C119.29 208.654 120.06 208.005 120.804 207.298C121.131 206.987 121.458 206.676 121.774 206.359C121.927 206.881 122.086 207.409 122.254 207.941C122.529 208.801 122.845 209.629 123.183 210.431C127.803 211.607 132.386 212.921 136.954 214.292C141.653 215.136 146.242 216.423 150.725 218.358C150.984 218.469 151.242 218.575 151.501 218.68C154.138 219.461 156.786 220.21 159.439 220.927C162.941 218.585 165.842 215.421 167.814 211.671C171.907 211.971 176.021 211.169 179.866 209.271C186.554 205.964 191.565 199.619 193.268 192.293C194.471 187.134 193.996 181.754 191.902 176.744C190.61 173.648 188.822 170.81 186.528 168.22C189.793 167.044 192.725 165.409 195.352 163.32C199.935 159.676 203.036 154.802 204.334 149.233C205.99 142.118 204.429 134.391 200.167 128.568L200.178 128.573Z" fill="#C7C7CC"/>
            <path d="M182.402 126.637C188.278 110.83 169.169 94.2418 154.633 107.95C147.718 114.474 143.952 122.154 140.977 131.484C143.008 121.922 143.557 113.483 140.619 104.348C134.501 85.3282 109.764 90.6448 107.285 107.322C93.545 101.12 78.5079 116.109 85.2749 130.271C90.1431 140.461 102.96 146.068 115.666 149.849C102.707 147.038 88.777 145.767 79.5996 152.344C66.8462 161.49 72.7852 181.87 87.8171 183.062C86.3403 187.044 86.4458 191.074 87.6642 194.655C88.3762 194.713 89.0672 195.103 89.5419 195.968C89.6737 196.211 89.8214 196.443 89.9744 196.67C91.9101 197.582 93.9565 198.242 96.0294 199.086C99.2098 200.383 101.488 202.345 103.688 204.898C105.064 205.388 106.446 205.847 107.839 206.285C110.455 205.562 113.087 204.101 115.587 201.744C122.496 195.225 126.083 187.656 128.899 178.426C126.995 188.009 126.594 196.475 129.532 205.599C130.619 208.98 132.301 211.591 134.332 213.506C135.213 213.764 136.093 214.023 136.969 214.286C140.824 214.977 144.596 215.974 148.303 217.377C155.276 216.085 161.663 210.679 162.861 202.625C176.6 208.827 190.92 194.159 184.871 179.676C181.136 170.736 172.086 165.525 162.033 162.017C172.56 163.684 183.035 163.373 190.614 157.344C202.893 147.576 197.429 127.818 182.397 126.626L182.402 126.637Z" fill="#575757"/>
        </g>
        <path d="M235.774 178.977C235.468 179.225 235.162 179.404 234.851 179.52C236.818 184.958 237.145 190.069 235.7 194.594C233.553 201.335 227.757 206.741 218.463 210.67C208.822 214.747 195.884 216.899 181.042 216.899C161.458 216.899 139.564 213.223 117.734 206.271C89.3892 197.247 64.4204 183.771 47.4211 168.333C31.7193 154.076 24.7309 139.567 28.2489 128.527C30.3956 121.787 36.192 116.381 45.4855 112.451C54.7947 108.516 67.1789 106.38 81.3775 106.238C82.675 104.234 84.4577 102.404 86.4566 100.99C53.6132 100.278 28.8132 109.376 23.2224 126.929C14.4723 154.398 56.0711 192.173 116.13 211.303C176.189 230.433 231.971 223.672 240.721 196.203C242.725 189.916 242.087 183.085 239.192 176.065C238.068 177.057 236.924 178.033 235.763 178.987L235.774 178.977Z" fill="#C7C7CC"/>
        <g opacity="0.61">
            <path d="M148.669 72.45C156.403 72.45 162.672 69.1936 162.672 65.1767C162.672 61.1597 156.403 57.9033 148.669 57.9033C140.935 57.9033 134.666 61.1597 134.666 65.1767C134.666 69.1936 140.935 72.45 148.669 72.45Z" fill="#C7C7CC"/>
            <path d="M102.989 95.1598C119.73 87.8565 130.949 76.5467 128.049 69.8986C125.148 63.2505 109.226 63.7816 92.486 71.0848C75.7456 78.3881 64.526 89.698 67.4264 96.3461C70.3267 102.994 86.2487 102.463 102.989 95.1598Z" fill="#C7C7CC"/>
        </g>
        <path d="M123.231 161.243L123.402 159.929C123.685 158.064 124.366 156.298 125.444 154.632C126.55 152.936 127.797 151.496 129.187 150.309C130.577 149.094 131.952 147.964 133.314 146.919C134.703 145.873 135.894 144.842 136.887 143.825C137.88 142.808 138.433 141.847 138.546 140.943C138.688 140.039 138.419 139.319 137.738 138.782C137.086 138.245 136.05 137.977 134.632 137.977C130.889 137.977 127.032 139.827 123.061 143.528L114 132.51C117.488 129.12 121.26 126.52 125.316 124.712C129.4 122.904 133.555 122 137.78 122C143.651 122 148.302 123.709 151.734 127.128C155.166 130.546 156.527 134.685 155.818 139.545C155.506 141.72 154.769 143.754 153.606 145.647C152.443 147.54 151.138 149.122 149.692 150.394C148.246 151.665 146.799 152.852 145.353 153.954C143.935 155.027 142.701 156.072 141.652 157.09C140.631 158.107 140.064 159.053 139.95 159.929L139.78 161.243H123.231ZM128.294 184C125.401 184 123.118 183.039 121.445 181.118C119.8 179.197 119.176 176.796 119.573 173.914C119.97 171.06 121.26 168.673 123.444 166.752C125.656 164.802 128.223 163.828 131.144 163.828C134.037 163.828 136.32 164.788 137.993 166.71C139.695 168.631 140.347 171.032 139.95 173.914C139.581 176.767 138.277 179.169 136.036 181.118C133.796 183.039 131.215 184 128.294 184Z" fill="white"/>
    </g>
    <defs>
        <linearGradient id="paint0_linear_1713_13833" x1="-47.999" y1="149.499" x2="238.099" y2="215.331" gradientUnits="userSpaceOnUse">
            <stop stop-color="#F5F5F5"/>
            <stop offset="0.24" stop-color="#999999"/>
            <stop offset="1" stop-color="#3C3C3C"/>
        </linearGradient>
        <linearGradient id="paint1_linear_1713_13833" x1="132.268" y1="11.9835" x2="132.268" y2="221.217" gradientUnits="userSpaceOnUse">
            <stop stop-color="#CACACA"/>
            <stop offset="1" stop-color="#444444"/>
        </linearGradient>
    </defs>
</svg>
