<svg width="228" height="228" viewBox="0 0 228 228" fill="none" xmlns="http://www.w3.org/2000/svg">
    <path opacity="0.54" d="M114 228C176.96 228 228 176.96 228 114C228 51.0395 176.96 0 114 0C51.0395 0 0 51.0395 0 114C0 176.96 51.0395 228 114 228Z" fill="#D7D7D7"/>
    <mask id="mask0_1665_8367" style="mask-type:luminance" maskUnits="userSpaceOnUse" x="0" y="0" width="228" height="228">
        <path d="M114 228C176.96 228 228 176.96 228 114C228 51.0395 176.96 0 114 0C51.0395 0 0 51.0395 0 114C0 176.96 51.0395 228 114 228Z" fill="white"/>
    </mask>
    <g mask="url(#mask0_1665_8367)">
        <path d="M-10.4952 198.943L-10.9909 194.339L-19.6514 114L5.66556 82.3379L217.099 162.719L198.438 229.197L172.109 270.327H61.3944L15.3598 233.875" fill="url(#paint0_linear_1665_8367)"/>
        <path d="M220.092 157.442C228.842 129.975 187.247 92.1993 127.187 73.0666C67.1281 53.9338 11.3472 60.6897 2.59737 88.1562C-6.15247 115.623 35.4421 153.399 95.5015 172.532C155.561 191.664 211.342 184.909 220.092 157.442Z" fill="#C7C7CC"/>
        <path d="M160.335 178.072C140.752 178.072 118.858 174.395 97.0272 167.444C68.6828 158.419 43.7139 144.943 26.7147 129.505C11.0129 115.249 4.02447 100.739 7.54247 89.6997C9.68913 82.9591 15.4856 77.5529 24.779 73.6235C34.4206 69.5464 47.3585 67.3945 62.2006 67.3945C81.7843 67.3945 103.678 71.0707 125.509 78.0223C153.853 87.0467 178.822 100.523 195.821 115.961C211.523 130.217 218.511 144.727 214.993 155.766C212.847 162.507 207.05 167.913 197.757 171.843C188.115 175.92 175.177 178.072 160.335 178.072Z" fill="url(#paint1_linear_1665_8367)"/>
        <path d="M179.178 89.572C176.773 86.2808 173.671 83.7544 170.101 82.114C170.264 72.9999 165.37 64.1338 157.147 59.408C147.748 54.007 136.73 55.5365 128.396 63.4006C128.032 63.7434 127.674 64.0915 127.32 64.4449C127.183 63.9702 127.035 63.4903 126.882 63.0103C123.291 51.8498 114.161 45.2041 103.042 45.6629C93.6962 46.048 85.4577 51.4067 81.3121 59.2971C77.177 59.0018 73.0102 59.8299 69.0861 61.7656C62.3191 65.1095 57.2715 71.4282 55.589 78.6699C54.3495 84.0023 54.972 89.4982 57.3876 94.5563C58.8645 97.6471 60.8476 100.363 63.1736 102.753C59.9826 103.728 56.934 105.147 54.1491 107.146C49.2598 110.654 45.9686 115.538 44.6341 121.276C42.9938 128.333 44.592 136.071 48.917 141.983C50.3411 143.935 52.0077 145.607 53.8484 147.004C55.5024 148.26 56.5754 148.608 57.3876 149.204C58.2474 149.832 57.8062 151.755 58.5024 152.499C60.6966 154.577 62.9045 153.444 65.2358 155.37C65.3993 155.501 65.5628 155.628 65.7263 155.755C66.7231 155.454 67.8466 155.739 68.5217 156.973C68.6536 157.216 68.8013 157.448 68.9543 157.674C70.89 158.587 72.9364 159.246 75.0092 160.09C78.1897 161.388 80.4682 163.35 82.6676 165.902C87.52 167.643 92.5042 168.993 97.5043 170.254C98.2902 169.653 99.0603 169.004 99.804 168.297C100.131 167.986 100.458 167.675 100.774 167.358C100.927 167.88 101.086 168.408 101.254 168.941C101.529 169.8 101.845 170.628 102.183 171.43C106.803 172.606 111.386 173.92 115.954 175.291C120.653 176.135 125.242 177.422 129.725 179.357C129.984 179.468 130.242 179.574 130.501 179.679C133.138 180.46 135.786 181.209 138.439 181.926C141.941 179.584 144.842 176.42 146.814 172.67C150.907 172.97 155.021 172.168 158.866 170.27C165.554 166.963 170.565 160.618 172.268 153.292C173.471 148.133 172.996 142.753 170.902 137.743C169.61 134.647 167.822 131.809 165.528 129.219C168.793 128.043 171.725 126.408 174.352 124.319C178.935 120.675 182.036 115.801 183.334 110.232C184.99 103.117 183.429 95.3896 179.167 89.5667L179.178 89.572Z" fill="#C7C7CC"/>
        <path d="M161.402 87.636C167.278 71.8288 148.169 55.2409 133.633 68.9489C126.718 75.4733 122.952 83.1528 119.977 92.4831C122.008 82.9207 122.557 74.4818 119.619 65.3466C113.501 46.3272 88.7637 51.6438 86.2848 68.3213C72.545 62.1187 57.5079 77.1083 64.2749 91.27C69.1431 101.46 81.9599 107.067 94.6658 110.848C81.7067 108.037 67.777 106.766 58.5996 113.343C45.8462 122.489 51.7852 142.869 66.8171 144.061C65.3403 148.043 65.4458 152.073 66.6642 155.654C67.3762 155.712 68.0672 156.102 68.5419 156.967C68.6737 157.21 68.8214 157.442 68.9744 157.669C70.9101 158.581 72.9565 159.241 75.0294 160.085C78.2098 161.382 80.4883 163.344 82.6877 165.897C84.0643 166.387 85.4462 166.846 86.8386 167.284C89.4547 166.561 92.0865 165.1 94.5866 162.743C101.496 156.224 105.083 148.655 107.899 139.425C105.995 149.008 105.594 157.474 108.532 166.598C109.619 169.979 111.301 172.59 113.332 174.505C114.213 174.763 115.093 175.022 115.969 175.285C119.824 175.976 123.596 176.973 127.303 178.376C134.276 177.084 140.663 171.678 141.861 163.624C155.6 169.826 169.92 155.158 163.871 140.675C160.136 131.735 151.086 126.524 141.033 123.016C151.56 124.683 162.035 124.372 169.614 118.343C181.893 108.575 176.429 88.8175 161.397 87.6255L161.402 87.636Z" fill="#575757"/>
    </g>
    <path d="M214.774 139.977C214.468 140.225 214.162 140.404 213.851 140.52C215.818 145.958 216.145 151.069 214.7 155.594C212.553 162.335 206.757 167.741 197.463 171.67C187.822 175.747 174.884 177.899 160.042 177.899C140.458 177.899 118.564 174.223 96.7336 167.271C68.3892 158.247 43.4204 144.771 26.4211 129.333C10.7193 115.076 3.7309 100.567 7.2489 89.5274C9.39556 82.7868 15.192 77.3806 24.4855 73.4512C33.7947 69.5165 46.1789 67.3804 60.3775 67.238C61.675 65.2337 63.4577 63.4035 65.4566 61.99C32.6132 61.278 7.81324 70.3762 2.22242 87.9293C-6.52775 115.398 35.0711 153.173 95.1302 172.303C155.189 191.433 210.971 184.672 219.721 157.203C221.725 150.916 221.087 144.085 218.192 137.065C217.068 138.057 215.924 139.033 214.763 139.987L214.774 139.977Z" fill="#C7C7CC"/>
    <g opacity="0.61">
        <path d="M127.669 33.451C135.403 33.451 141.672 30.1946 141.672 26.1777C141.672 22.1607 135.403 18.9043 127.669 18.9043C119.935 18.9043 113.666 22.1607 113.666 26.1777C113.666 30.1946 119.935 33.451 127.669 33.451Z" fill="#C7C7CC"/>
        <path d="M81.9891 56.1598C98.7296 48.8565 109.949 37.5467 107.049 30.8986C104.148 24.2505 88.2265 24.7816 71.486 32.0848C54.7456 39.3881 43.526 50.698 46.4264 57.3461C49.3267 63.9942 65.2487 63.4631 81.9891 56.1598Z" fill="#C7C7CC"/>
    </g>
    <defs>
        <linearGradient id="paint0_linear_1665_8367" x1="-68.999" y1="110.5" x2="217.099" y2="176.332" gradientUnits="userSpaceOnUse">
            <stop stop-color="#F5F5F5"/>
            <stop offset="0.24" stop-color="#999999"/>
            <stop offset="1" stop-color="#3C3C3C"/>
        </linearGradient>
        <linearGradient id="paint1_linear_1665_8367" x1="111.268" y1="-27.0165" x2="111.268" y2="182.217" gradientUnits="userSpaceOnUse">
            <stop stop-color="#CACACA"/>
            <stop offset="1" stop-color="#444444"/>
        </linearGradient>
    </defs>
</svg>
