<svg width="270" height="270" viewBox="0 0 270 270" fill="none" xmlns="http://www.w3.org/2000/svg">
<path opacity="0.54" d="M135 267C197.96 267 249 215.96 249 153C249 90.0395 197.96 39 135 39C72.0395 39 21 90.0395 21 153C21 215.96 72.0395 267 135 267Z" fill="#C1FFC8"/>
<mask id="mask0_1665_8323" style="mask-type:luminance" maskUnits="userSpaceOnUse" x="21" y="39" width="228" height="228">
<path d="M135 267C197.96 267 249 215.96 249 153C249 90.0395 197.96 39 135 39C72.0395 39 21 90.0395 21 153C21 215.96 72.0395 267 135 267Z" fill="white"/>
</mask>
<g mask="url(#mask0_1665_8323)">
<path d="M10.5048 237.943L10.0091 233.339L1.34863 153L26.6656 121.338L238.099 201.719L219.438 268.197L193.109 309.327H82.3944L36.3598 272.875" fill="url(#paint0_linear_1665_8323)"/>
<path d="M241.091 196.442C249.841 168.975 208.246 131.199 148.187 112.067C88.1276 92.9338 32.3467 99.6897 23.5969 127.156C14.847 154.623 56.4416 192.399 116.501 211.532C176.56 230.664 232.341 223.909 241.091 196.442Z" fill="#4BFF3B"/>
<path d="M181.334 217.072C161.751 217.072 139.857 213.395 118.026 206.444C89.6818 197.419 64.713 183.943 47.7137 168.505C32.0119 154.249 25.0235 139.739 28.5415 128.7C30.6882 121.959 36.4846 116.553 45.7781 112.624C55.4196 108.546 68.3576 106.395 83.1996 106.395C102.783 106.395 124.677 110.071 146.508 117.022C174.852 126.047 199.821 139.523 216.82 154.961C232.522 169.217 239.51 183.727 235.992 194.766C233.846 201.507 228.049 206.913 218.756 210.843C209.114 214.92 196.176 217.072 181.334 217.072Z" fill="url(#paint1_linear_1665_8323)"/>
<path d="M200.178 128.572C197.773 125.281 194.672 122.754 191.101 121.114C191.265 112 186.37 103.134 178.147 98.408C168.748 93.007 157.73 94.5365 149.397 102.401C149.033 102.743 148.674 103.092 148.321 103.445C148.184 102.97 148.036 102.49 147.883 102.01C144.291 90.8498 135.161 84.2041 124.043 84.6629C114.697 85.048 106.458 90.4067 102.313 98.2971C98.1774 98.0018 94.0107 98.8299 90.0866 100.766C83.3196 104.11 78.272 110.428 76.5895 117.67C75.35 123.002 75.9725 128.498 78.3881 133.556C79.8649 136.647 81.8481 139.363 84.1741 141.753C80.9831 142.728 77.9345 144.147 75.1496 146.146C70.2603 149.654 66.969 154.538 65.6346 160.276C63.9943 167.333 65.5925 175.071 69.9175 180.983C71.3415 182.935 73.0082 184.607 74.8489 186.004C76.5029 187.26 77.5759 187.608 78.3881 188.204C79.2478 188.832 78.8067 190.755 79.5029 191.499C81.6971 193.577 83.905 192.444 86.2363 194.37C86.3998 194.501 86.5633 194.628 86.7268 194.755C87.7236 194.454 88.8471 194.739 89.5222 195.973C89.6541 196.216 89.8018 196.448 89.9548 196.674C91.8904 197.587 93.9369 198.246 96.0097 199.09C99.1901 200.388 101.469 202.35 103.668 204.902C108.52 206.643 113.505 207.993 118.505 209.254C119.291 208.653 120.061 208.004 120.804 207.297C121.131 206.986 121.458 206.675 121.775 206.358C121.928 206.88 122.086 207.408 122.255 207.941C122.529 208.8 122.846 209.628 123.183 210.43C127.804 211.606 132.387 212.92 136.954 214.291C141.654 215.135 146.243 216.422 150.726 218.357C150.984 218.468 151.243 218.574 151.501 218.679C154.138 219.46 156.786 220.209 159.439 220.926C162.941 218.584 165.842 215.42 167.815 211.67C171.908 211.97 176.022 211.168 179.867 209.27C186.555 205.963 191.565 199.618 193.269 192.292C194.471 187.133 193.997 181.753 191.903 176.743C190.611 173.647 188.823 170.809 186.528 168.219C189.793 167.043 192.726 165.408 195.352 163.319C199.936 159.675 203.037 154.801 204.334 149.232C205.991 142.117 204.429 134.39 200.168 128.567L200.178 128.572Z" fill="white"/>
<path d="M182.403 126.636C188.278 110.829 169.169 94.2409 154.633 107.949C147.718 114.473 143.953 122.153 140.978 131.483C143.009 121.921 143.557 113.482 140.619 104.347C134.501 85.3272 109.764 90.6438 107.285 107.321C93.5455 101.119 78.5084 116.108 85.2754 130.27C90.1436 140.46 102.96 146.067 115.666 149.848C102.707 147.037 88.7775 145.766 79.6001 152.343C66.8467 161.489 72.7857 181.869 87.8176 183.061C86.3408 187.043 86.4463 191.073 87.6647 194.654C88.3767 194.712 89.0677 195.102 89.5424 195.967C89.6742 196.21 89.8219 196.442 89.9749 196.669C91.9106 197.581 93.957 198.241 96.0298 199.085C99.2103 200.382 101.489 202.344 103.688 204.897C105.065 205.387 106.447 205.846 107.839 206.284C110.455 205.561 113.087 204.1 115.587 201.743C122.496 195.224 126.083 187.655 128.9 178.425C126.996 188.008 126.595 196.474 129.533 205.598C130.619 208.979 132.302 211.59 134.332 213.505C135.213 213.763 136.094 214.022 136.969 214.285C140.825 214.976 144.596 215.973 148.304 217.376C155.277 216.084 161.664 210.678 162.861 202.624C176.601 208.826 190.921 194.158 184.871 179.675C181.137 170.735 172.086 165.524 162.033 162.016C172.561 163.683 183.036 163.372 190.615 157.343C202.894 147.575 197.429 127.817 182.397 126.625L182.403 126.636Z" fill="#009904"/>
</g>
<path d="M235.774 178.977C235.468 179.225 235.162 179.404 234.851 179.52C236.819 184.958 237.146 190.069 235.701 194.594C233.554 201.335 227.757 206.741 218.464 210.67C208.822 214.747 195.884 216.899 181.042 216.899C161.459 216.899 139.565 213.223 117.734 206.271C89.3897 197.247 64.4209 183.771 47.4216 168.333C31.7198 154.076 24.7314 139.567 28.2494 128.527C30.396 121.787 36.1925 116.381 45.486 112.451C54.7952 108.516 67.1794 106.38 81.378 106.238C82.6755 104.234 84.4582 102.404 86.4571 100.99C53.6137 100.278 28.8137 109.376 23.2229 126.929C14.4727 154.398 56.0716 192.173 116.131 211.303C176.19 230.433 231.971 223.672 240.722 196.203C242.726 189.916 242.088 183.085 239.192 176.065C238.069 177.057 236.924 178.033 235.764 178.987L235.774 178.977Z" fill="#4BFF3B"/>
<g opacity="0.61">
<path d="M148.669 72.451C156.403 72.451 162.673 69.1946 162.673 65.1777C162.673 61.1607 156.403 57.9043 148.669 57.9043C140.936 57.9043 134.666 61.1607 134.666 65.1777C134.666 69.1946 140.936 72.451 148.669 72.451Z" fill="white"/>
<path d="M102.989 95.1598C119.73 87.8565 130.949 76.5467 128.049 69.8986C125.148 63.2505 109.226 63.7816 92.486 71.0848C75.7456 78.3881 64.526 89.698 67.4264 96.3461C70.3267 102.994 86.2487 102.463 102.989 95.1598Z" fill="white"/>
</g>
<path d="M35 20.5C24.7648 23.966 21.9498 26.7648 18.5 37C15.0341 26.7485 12.2352 23.9497 2 20.5C12.2515 17.034 15.0503 14.2352 18.5 4C21.966 14.2515 24.7648 17.0503 35 20.5Z" fill="white"/>
<path d="M233 255.5C227.107 257.496 225.486 259.107 223.5 265C221.504 259.098 219.893 257.486 214 255.5C219.902 253.504 221.514 251.893 223.5 246C225.496 251.902 227.107 253.514 233 255.5Z" fill="white"/>
<path d="M268 226C259.936 228.731 257.718 230.936 255 239C252.269 230.923 250.064 228.718 242 226C250.077 223.269 252.282 221.064 255 213C257.731 221.077 259.936 223.282 268 226Z" fill="white"/>
<defs>
<linearGradient id="paint0_linear_1665_8323" x1="-47.999" y1="149.5" x2="238.099" y2="215.332" gradientUnits="userSpaceOnUse">
<stop stop-color="#76FF6D"/>
<stop offset="0.24" stop-color="#76FF6D"/>
<stop offset="1" stop-color="#009C0A"/>
</linearGradient>
<linearGradient id="paint1_linear_1665_8323" x1="132.267" y1="11.9835" x2="132.267" y2="221.217" gradientUnits="userSpaceOnUse">
<stop stop-color="#82FF7D"/>
<stop offset="1" stop-color="#118901"/>
</linearGradient>
</defs>
</svg>
