<svg viewBox="0 0 228 228" fill="none" xmlns="http://www.w3.org/2000/svg">
    <path opacity="0.54" d="M114 228C176.96 228 228 176.96 228 114C228 51.0395 176.96 0 114 0C51.0395 0 0 51.0395 0 114C0 176.96 51.0395 228 114 228Z" fill="#C1FFC8"/>
    <mask id="mask0_1749_3958" style="mask-type:luminance" maskUnits="userSpaceOnUse" x="0" y="0" width="228" height="228">
        <path d="M114 228C176.96 228 228 176.96 228 114C228 51.0395 176.96 0 114 0C51.0395 0 0 51.0395 0 114C0 176.96 51.0395 228 114 228Z" fill="white"/>
    </mask>
    <g mask="url(#mask0_1749_3958)">
        <path d="M-10.4952 198.942L-10.9909 194.338L-19.6514 113.999L5.66556 82.3369L217.099 162.718L198.438 229.196L172.109 270.326H61.3944L15.3598 233.874" fill="url(#paint0_linear_1749_3958)"/>
        <path d="M220.092 157.442C228.842 129.975 187.247 92.1993 127.187 73.0666C67.1281 53.9338 11.3472 60.6897 2.59737 88.1562C-6.15247 115.623 35.4421 153.399 95.5015 172.532C155.561 191.664 211.342 184.909 220.092 157.442Z" fill="#4BFF3B"/>
        <path d="M160.335 178.072C140.752 178.072 118.858 174.395 97.0272 167.444C68.6828 158.419 43.7139 144.943 26.7147 129.505C11.0129 115.249 4.02447 100.739 7.54247 89.6997C9.68913 82.9591 15.4856 77.5529 24.779 73.6235C34.4206 69.5464 47.3585 67.3945 62.2006 67.3945C81.7843 67.3945 103.678 71.0707 125.509 78.0223C153.853 87.0467 178.822 100.523 195.821 115.961C211.523 130.217 218.511 144.727 214.993 155.766C212.847 162.507 207.05 167.913 197.757 171.843C188.115 175.92 175.177 178.072 160.335 178.072Z" fill="url(#paint1_linear_1749_3958)"/>
        <path d="M179.178 89.573C176.773 86.2818 173.671 83.7553 170.101 82.115C170.264 73.0009 165.37 64.1348 157.147 59.4089C147.748 54.008 136.73 55.5375 128.396 63.4016C128.032 63.7444 127.674 64.0925 127.32 64.4459C127.183 63.9712 127.035 63.4913 126.882 63.0113C123.291 51.8507 114.161 45.205 103.042 45.6639C93.6962 46.0489 85.4577 51.4077 81.3121 59.2981C77.177 59.0028 73.0102 59.8309 69.0861 61.7666C62.3191 65.1105 57.2715 71.4292 55.589 78.6709C54.3495 84.0033 54.972 89.4992 57.3876 94.5573C58.8645 97.648 60.8476 100.364 63.1736 102.754C59.9826 103.729 56.934 105.148 54.1491 107.147C49.2598 110.655 45.9686 115.539 44.6341 121.277C42.9938 128.334 44.592 136.072 48.917 141.984C50.3411 143.936 52.0077 145.608 53.8484 147.005C55.5024 148.261 56.5754 148.609 57.3876 149.205C58.2474 149.833 57.8062 151.756 58.5024 152.5C60.6966 154.578 62.9045 153.445 65.2358 155.371C65.3993 155.502 65.5628 155.629 65.7263 155.756C66.7231 155.455 67.8466 155.74 68.5217 156.974C68.6536 157.217 68.8013 157.449 68.9543 157.675C70.89 158.588 72.9364 159.247 75.0092 160.091C78.1897 161.389 80.4682 163.351 82.6676 165.903C87.52 167.644 92.5042 168.994 97.5043 170.255C98.2902 169.654 99.0603 169.005 99.804 168.298C100.131 167.987 100.458 167.676 100.774 167.359C100.927 167.881 101.086 168.409 101.254 168.941C101.529 169.801 101.845 170.629 102.183 171.431C106.803 172.607 111.386 173.921 115.954 175.292C120.653 176.136 125.242 177.423 129.725 179.358C129.984 179.469 130.242 179.575 130.501 179.68C133.138 180.461 135.786 181.21 138.439 181.927C141.941 179.585 144.842 176.421 146.814 172.671C150.907 172.971 155.021 172.169 158.866 170.271C165.554 166.964 170.565 160.619 172.268 153.293C173.471 148.134 172.996 142.754 170.902 137.744C169.61 134.648 167.822 131.81 165.528 129.22C168.793 128.044 171.725 126.409 174.352 124.32C178.935 120.676 182.036 115.802 183.334 110.233C184.99 103.118 183.429 95.3906 179.167 89.5677L179.178 89.573Z" fill="white"/>
        <path d="M161.402 87.637C167.278 71.8297 148.169 55.2418 133.633 68.9499C126.718 75.4743 122.952 83.1537 119.977 92.4841C122.008 82.9217 122.557 74.4827 119.619 65.3475C113.501 46.3282 88.7637 51.6448 86.2848 68.3223C72.545 62.1196 57.5079 77.1093 64.2749 91.271C69.1431 101.461 81.9599 107.068 94.6658 110.849C81.7067 108.038 67.777 106.767 58.5996 113.344C45.8462 122.49 51.7852 142.87 66.8171 144.062C65.3403 148.044 65.4458 152.074 66.6642 155.655C67.3762 155.713 68.0672 156.103 68.5419 156.968C68.6737 157.211 68.8214 157.443 68.9744 157.67C70.9101 158.582 72.9565 159.242 75.0294 160.086C78.2098 161.383 80.4883 163.345 82.6877 165.898C84.0643 166.388 85.4462 166.847 86.8386 167.285C89.4547 166.562 92.0865 165.101 94.5866 162.744C101.496 156.225 105.083 148.656 107.899 139.426C105.995 149.009 105.594 157.475 108.532 166.599C109.619 169.98 111.301 172.591 113.332 174.506C114.213 174.764 115.093 175.023 115.969 175.286C119.824 175.977 123.596 176.974 127.303 178.377C134.276 177.085 140.663 171.679 141.861 163.625C155.6 169.827 169.92 155.159 163.871 140.676C160.136 131.736 151.086 126.525 141.033 123.017C151.56 124.684 162.035 124.373 169.614 118.344C181.893 108.576 176.429 88.8184 161.397 87.6264L161.402 87.637Z" fill="#009904"/>
    </g>
    <path d="M214.774 139.977C214.468 140.225 214.162 140.404 213.851 140.52C215.818 145.958 216.145 151.069 214.7 155.594C212.553 162.335 206.757 167.741 197.463 171.67C187.822 175.747 174.884 177.899 160.042 177.899C140.458 177.899 118.564 174.223 96.7336 167.271C68.3892 158.247 43.4204 144.771 26.4211 129.333C10.7193 115.076 3.7309 100.567 7.2489 89.5274C9.39556 82.7868 15.192 77.3806 24.4855 73.4512C33.7947 69.5165 46.1789 67.3804 60.3775 67.238C61.675 65.2337 63.4577 63.4035 65.4566 61.99C32.6132 61.278 7.81324 70.3762 2.22242 87.9293C-6.52775 115.398 35.0711 153.173 95.1302 172.303C155.189 191.433 210.971 184.672 219.721 157.203C221.725 150.916 221.087 144.085 218.192 137.065C217.068 138.057 215.924 139.033 214.763 139.987L214.774 139.977Z" fill="#4BFF3B"/>
    <g opacity="0.61">
        <path d="M127.669 33.45C135.403 33.45 141.672 30.1936 141.672 26.1767C141.672 22.1597 135.403 18.9033 127.669 18.9033C119.935 18.9033 113.666 22.1597 113.666 26.1767C113.666 30.1936 119.935 33.45 127.669 33.45Z" fill="white"/>
        <path d="M81.9891 56.1598C98.7296 48.8565 109.949 37.5467 107.049 30.8986C104.148 24.2505 88.2265 24.7816 71.486 32.0848C54.7456 39.3881 43.526 50.698 46.4264 57.3461C49.3267 63.9942 65.2487 63.4631 81.9891 56.1598Z" fill="white"/>
    </g>
    <defs>
        <linearGradient id="paint0_linear_1749_3958" x1="-68.999" y1="110.499" x2="217.099" y2="176.331" gradientUnits="userSpaceOnUse">
            <stop stop-color="#76FF6D"/>
            <stop offset="0.24" stop-color="#76FF6D"/>
            <stop offset="1" stop-color="#009C0A"/>
        </linearGradient>
        <linearGradient id="paint1_linear_1749_3958" x1="111.268" y1="-27.0165" x2="111.268" y2="182.217" gradientUnits="userSpaceOnUse">
            <stop stop-color="#82FF7D"/>
            <stop offset="1" stop-color="#118901"/>
        </linearGradient>
    </defs>
</svg>
