<svg width="201" height="201" viewBox="0 0 201 201" fill="none" xmlns="http://www.w3.org/2000/svg">
    <path d="M46.0361 17.994C45.3945 17.994 44.7622 18.0591 44.167 18.1986C43.1814 15.2136 40.3265 13.0377 36.9324 13.0005C33.5104 12.9633 30.5812 15.1206 29.5584 18.1335C29.019 18.0126 28.4611 17.9382 27.8939 17.9382C23.6442 17.8917 20.1664 21.2115 20.1292 25.3588C20.092 29.5061 23.4955 32.9002 27.7358 32.9374C28.489 32.9374 29.2143 32.8444 29.9024 32.6585C30.8602 35.5597 33.6313 37.6706 36.9231 37.7078C40.3451 37.745 43.2557 35.5225 44.1577 32.4539C44.7157 32.5841 45.2922 32.6585 45.8873 32.6678C50.044 32.7143 53.4474 29.4596 53.4846 25.4053C53.5311 21.3509 50.1928 18.0312 46.0361 17.9847V17.994Z"
          fill="white"/>
    <path d="M126.415 189C113.694 189 96.4629 183.765 85.2204 159.402C84.4579 159.429 83.6954 159.448 82.9329 159.448C67.1712 159.448 53.1484 152.678 44.6305 141.148C41.6548 142.226 38.5955 142.775 35.4989 142.775C34.5969 142.775 33.6856 142.728 32.7836 142.635C14.9204 140.757 2.34815 120.616 4.75658 97.7401C7.05342 75.9527 21.69 59.5214 38.8 59.5214C39.702 59.5214 40.6226 59.5679 41.5246 59.6609C42.6963 59.7818 43.8494 59.9864 44.9839 60.2653C45.0025 57.1223 45.4395 54.4535 46.295 52.2682C46.9366 50.6409 48.4337 49.5065 50.1726 49.3391C50.4237 49.3112 56.4774 48.7439 66.5017 48.7439C68.0081 48.7439 69.6075 48.7532 71.2906 48.7904C78.1346 46.5587 85.9644 45.4707 95.1889 45.4707C99.8384 45.4707 104.897 45.759 110.244 46.3262C124.36 47.8326 136.792 52.8169 146.296 60.7768C148.676 61.5486 151.038 62.3483 153.363 63.1945C157.315 59.7632 164.289 54.2489 172.277 50.3806C172.928 50.0644 173.616 49.9156 174.295 49.9156C175.774 49.9156 177.215 50.6223 178.108 51.9056L187.462 65.2868C188.43 66.663 188.569 68.4577 187.834 69.9735C187.1 71.4892 185.603 72.4935 183.92 72.5865C183.882 72.5865 182.46 72.6794 180.302 72.9398C180.925 73.1909 181.539 73.4606 182.134 73.7209C184.189 74.6415 185.296 76.9105 184.738 79.105L183.287 84.8425C192.261 93.2487 196.975 107.541 195.432 122.261C193.135 144.049 178.498 160.471 161.397 160.48C160.495 160.48 159.575 160.434 158.673 160.341C153.289 159.773 148.267 157.57 143.943 153.906C139.08 157.467 133.473 160.118 127.187 161.819C129.065 165.437 132.85 167.157 138.792 167.157C139.768 167.157 140.8 167.11 141.888 167.008C143.162 164.097 146.054 162.117 149.393 162.117C149.681 162.117 149.969 162.135 150.257 162.163C154.526 162.61 157.687 166.273 157.594 170.486C159.677 172.587 160.812 175.563 160.495 178.632C159.956 183.765 155.66 187.633 150.508 187.633C150.155 187.633 149.802 187.615 149.448 187.577C147.691 187.391 146.026 186.74 144.622 185.718C138.559 187.875 132.329 189 126.433 189H126.415Z"
          fill="white"/>
    <path d="M9.37585 98.2233C11.5239 77.8679 25.6956 62.6734 41.0295 64.2915C56.3728 65.9095 67.0666 83.717 64.9279 104.072C62.7798 124.428 48.6175 139.622 33.2649 138.004C17.9309 136.386 7.22779 118.579 9.37585 98.2233Z"
          fill="#31FF76"/>
    <path d="M17.3938 99.1721C18.9188 84.703 28.9989 73.8976 39.8973 75.0506C50.7956 76.2037 58.4115 88.8596 56.8865 103.329C55.3614 117.807 45.2814 128.603 34.3737 127.46C23.4753 126.316 15.8688 113.651 17.3938 99.1721Z"
          fill="#151515"/>
    <g style="mix-blend-mode:multiply" opacity="0.7">
        <path d="M20.2393 99.3681C21.6249 86.2008 32.4953 76.3439 42.222 75.4977C41.4688 75.2931 40.6877 75.1351 39.8973 75.0514C28.9989 73.9076 18.9188 84.7037 17.3938 99.1729C15.8688 113.651 23.4753 126.317 34.3737 127.46C35.3594 127.563 36.3265 127.535 37.2843 127.46C27.6505 124.884 18.8259 112.796 20.2393 99.3681Z"
              fill="#151515"/>
    </g>
    <path d="M190.795 121.778C192.943 101.423 182.24 83.6057 166.906 81.997C151.563 80.379 137.391 95.5735 135.243 115.929C133.095 136.284 143.798 154.101 159.141 155.71C174.485 157.328 188.656 142.133 190.795 121.778Z"
          fill="#31FF76"/>
    <path d="M182.762 121.034C184.287 106.565 176.68 93.8995 165.772 92.7464C154.865 91.5934 144.794 102.399 143.269 116.868C141.744 131.337 149.35 144.012 160.258 145.155C171.156 146.299 181.236 135.503 182.762 121.025V121.034Z"
          fill="#151515"/>
    <g style="mix-blend-mode:multiply" opacity="0.7">
        <path d="M179.934 120.634C181.319 107.467 172.746 95.5641 163.4 92.7094C164.181 92.6722 164.972 92.6722 165.762 92.7558C176.66 93.8996 184.276 106.565 182.751 121.043C181.226 135.522 171.146 146.318 160.248 145.174C159.271 145.072 158.332 144.839 157.402 144.56C167.362 144.049 178.511 134.062 179.924 120.643L179.934 120.634Z"
              fill="#151515"/>
    </g>
    <path d="M40.6316 105.96C44.7882 66.5329 59.2389 45.5638 109.732 50.9479C144.157 54.6117 166.344 79.7932 159.993 116.478C155.669 141.473 141.47 154.668 121.319 158.379C122.332 165.548 127.251 174.243 145.933 171.165C145.831 170.774 145.784 170.365 145.831 169.947C146.035 167.994 147.784 166.58 149.736 166.785C151.689 166.99 153.102 168.738 152.898 170.691C152.824 171.36 152.563 171.955 152.191 172.467C154.535 173.257 156.115 175.582 155.846 178.148C155.53 181.115 152.879 183.272 149.913 182.956C148.128 182.77 146.649 181.719 145.812 180.278C138.029 183.514 105.036 195.305 88.1586 154.548C60.8568 157.281 37.2096 138.618 40.6409 105.979L40.6316 105.96Z"
          fill="#31FF76"/>
    <path d="M78.4232 125.582C91.1545 125.582 101.475 115.261 101.475 102.53C101.475 89.7983 91.1545 79.4775 78.4232 79.4775C65.6919 79.4775 55.3711 89.7983 55.3711 102.53C55.3711 115.261 65.6919 125.582 78.4232 125.582Z"
          fill="white"/>
    <path d="M78.4313 118.374C87.1825 118.374 94.2768 111.28 94.2768 102.529C94.2768 93.7773 87.1825 86.6831 78.4313 86.6831C69.6802 86.6831 62.5859 93.7773 62.5859 102.529C62.5859 111.28 69.6802 118.374 78.4313 118.374Z"
          fill="#151515"/>
    <path d="M75.6099 93.9965C77.0939 93.718 78.1156 92.5265 77.8921 91.3353C77.6685 90.1441 76.2842 89.4042 74.8003 89.6827C73.3163 89.9612 72.2945 91.1527 72.5181 92.3439C72.7417 93.5351 74.1259 94.275 75.6099 93.9965Z"
          fill="white"/>
    <path d="M122.974 126.241C135.705 126.241 146.026 115.921 146.026 103.189C146.026 90.458 135.705 80.1372 122.974 80.1372C110.243 80.1372 99.9219 90.458 99.9219 103.189C99.9219 115.921 110.243 126.241 122.974 126.241Z"
          fill="white"/>
    <path d="M122.97 119.035C131.722 119.035 138.816 111.941 138.816 103.19C138.816 94.4385 131.722 87.3442 122.97 87.3442C114.219 87.3442 107.125 94.4385 107.125 103.19C107.125 111.941 114.219 119.035 122.97 119.035Z"
          fill="#151515"/>
    <path d="M120.153 94.6581C121.637 94.3796 122.659 93.1881 122.435 91.9969C122.211 90.8057 120.827 90.0658 119.343 90.3443C117.859 90.6228 116.837 91.8143 117.061 93.0055C117.285 94.1967 118.669 94.9366 120.153 94.6581Z"
          fill="white"/>
    <path d="M152.938 69.8886C152.938 69.8886 162.45 60.3014 174.297 54.564L183.652 67.9452C183.652 67.9452 164.561 69.061 157.615 76.0631L152.938 69.8886Z"
          fill="#151515"/>
    <path d="M156.626 71.9624C156.626 71.9624 169.096 72.9853 180.217 77.9696L177.195 89.928C177.195 89.928 161.712 80.1734 155.398 78.6391L156.626 71.9531V71.9624Z"
          fill="#151515"/>
    <path d="M50.6086 53.9689C50.6086 53.9689 112.902 47.9432 169.17 74.8265C169.17 74.8265 168.612 83.5768 165.823 89.1562C165.823 89.1562 98.0518 62.2078 51.1479 71.9438C51.1479 71.9438 48.0978 60.348 50.6086 53.9782V53.9689Z"
          fill="#151515"/>
    <path d="M198.511 40.9453C192.662 42.9259 191.053 44.5254 189.082 50.3744C187.101 44.5161 185.501 42.9166 179.652 40.9453C185.511 38.9646 187.11 37.3652 189.082 31.5161C191.062 37.3745 192.662 38.9739 198.511 40.9453Z"
          fill="white"/>
</svg>
