<svg width="301" height="301" viewBox="0 0 301 301" fill="none" xmlns="http://www.w3.org/2000/svg">
    <path opacity="0.2" fill-rule="evenodd" clip-rule="evenodd"
          d="M159.517 128.723L188.125 0H112.875L141.483 128.723L70.6848 17.4789L17.4747 70.6807L128.723 141.478L0 112.875V188.125L128.723 159.517L17.4789 230.315L70.6807 283.525L141.478 172.277L112.875 301H188.125L159.517 172.277L230.315 283.521L283.525 230.319L172.277 159.517L301 188.125V112.875L172.277 141.483L283.521 70.6848L230.319 17.4747L159.517 128.723Z"
          fill="url(#paint0_radial_227_634)"/>
    <path opacity="0.54"
          d="M150 232C192.612 232 227.156 197.456 227.156 154.844C227.156 112.232 192.612 77.688 150 77.688C107.388 77.688 72.8438 112.232 72.8438 154.844C72.8438 197.456 107.388 232 150 232Z"
          fill="#C1FFC8"/>
    <mask id="mask0_227_634" style="mask-type:luminance" maskUnits="userSpaceOnUse" x="72" y="77" width="156"
          height="155">
        <path d="M150 232C192.612 232 227.156 197.456 227.156 154.844C227.156 112.232 192.612 77.688 150 77.688C107.388 77.688 72.8438 112.232 72.8438 154.844C72.8438 197.456 107.388 232 150 232Z"
              fill="white"/>
    </mask>
    <g mask="url(#mask0_227_634)">
        <path d="M65.74 212.334L65.4044 209.218L59.543 154.844L76.6776 133.415L219.777 187.818L207.147 232.81L189.327 260.647H114.395L83.2387 235.977"
              fill="url(#paint1_linear_227_634)"/>
        <path d="M221.799 184.246C227.721 165.657 199.57 140.089 158.921 127.14C118.272 114.191 80.5196 118.763 74.5976 137.353C68.6757 155.942 96.8272 181.51 137.476 194.459C178.124 207.408 215.877 202.836 221.799 184.246Z"
              fill="#4BFF3B"/>
        <path d="M181.359 198.208C168.104 198.208 153.286 195.72 138.511 191.015C119.328 184.907 102.429 175.787 90.9234 165.338C80.2963 155.689 75.5665 145.869 77.9475 138.398C79.4004 133.835 83.3235 130.177 89.6133 127.517C96.1388 124.758 104.895 123.301 114.94 123.301C128.195 123.301 143.013 125.789 157.788 130.494C176.971 136.602 193.871 145.723 205.376 156.171C216.003 165.82 220.733 175.64 218.352 183.112C216.899 187.674 212.976 191.333 206.686 193.992C200.16 196.752 191.404 198.208 181.359 198.208Z"
              fill="url(#paint2_linear_227_634)"/>
        <path d="M194.113 138.312C192.485 136.085 190.386 134.375 187.969 133.265C188.08 127.096 184.767 121.095 179.202 117.897C172.841 114.242 165.383 115.277 159.743 120.599C159.497 120.831 159.254 121.067 159.015 121.306C158.922 120.985 158.822 120.66 158.719 120.335C156.288 112.781 150.109 108.284 142.584 108.594C136.258 108.855 130.682 112.482 127.876 117.822C125.078 117.622 122.258 118.182 119.602 119.493C115.022 121.756 111.606 126.032 110.467 130.934C109.628 134.543 110.049 138.262 111.684 141.686C112.684 143.777 114.026 145.616 115.6 147.233C113.44 147.893 111.377 148.854 109.492 150.206C106.183 152.58 103.956 155.886 103.053 159.77C101.942 164.546 103.024 169.783 105.951 173.784C106.915 175.105 108.043 176.237 109.289 177.183C110.408 178.033 111.134 178.268 111.684 178.671C112.266 179.096 111.967 180.398 112.439 180.901C113.924 182.308 115.418 181.541 116.996 182.844C117.107 182.934 117.217 183.019 117.328 183.105C118.003 182.901 118.763 183.094 119.22 183.93C119.309 184.094 119.409 184.251 119.513 184.404C120.823 185.022 122.208 185.468 123.611 186.039C125.763 186.917 127.305 188.245 128.794 189.973C132.078 191.151 135.451 192.065 138.835 192.918C139.367 192.511 139.888 192.072 140.392 191.594C140.613 191.383 140.834 191.172 141.049 190.958C141.152 191.312 141.259 191.669 141.373 192.029C141.559 192.611 141.773 193.172 142.002 193.714C145.129 194.51 148.231 195.399 151.322 196.327C154.503 196.898 157.609 197.769 160.643 199.079C160.818 199.154 160.993 199.226 161.168 199.297C162.952 199.825 164.744 200.332 166.54 200.818C168.91 199.233 170.874 197.091 172.209 194.553C174.979 194.757 177.763 194.214 180.366 192.929C184.892 190.691 188.283 186.396 189.436 181.438C190.25 177.947 189.929 174.306 188.512 170.914C187.637 168.819 186.427 166.898 184.874 165.146C187.084 164.35 189.068 163.243 190.846 161.829C193.948 159.363 196.047 156.064 196.925 152.295C198.046 147.479 196.99 142.25 194.105 138.309L194.113 138.312Z"
              fill="white"/>
        <path d="M182.079 137.002C186.055 126.303 173.122 115.076 163.284 124.354C158.604 128.77 156.056 133.967 154.042 140.282C155.417 133.81 155.788 128.099 153.799 121.916C149.659 109.044 132.917 112.642 131.239 123.929C121.94 119.731 111.762 129.876 116.342 139.461C119.637 146.358 128.312 150.152 136.911 152.712C128.14 150.809 118.713 149.949 112.501 154.4C103.87 160.59 107.889 174.384 118.063 175.19C117.063 177.886 117.135 180.613 117.959 183.037C118.441 183.076 118.909 183.34 119.23 183.926C119.32 184.09 119.42 184.247 119.523 184.4C120.833 185.018 122.218 185.464 123.621 186.035C125.774 186.913 127.316 188.241 128.804 189.969C129.736 190.301 130.671 190.612 131.614 190.908C133.384 190.419 135.165 189.43 136.858 187.834C141.534 183.422 143.961 178.3 145.867 172.053C144.579 178.539 144.308 184.268 146.296 190.444C147.031 192.732 148.17 194.499 149.544 195.795C150.14 195.97 150.737 196.145 151.329 196.323C153.939 196.791 156.491 197.465 159 198.415C163.72 197.54 168.043 193.882 168.853 188.431C178.152 192.629 187.844 182.701 183.749 172.899C181.222 166.848 175.096 163.321 168.292 160.947C175.418 162.075 182.507 161.865 187.637 157.785C195.947 151.173 192.249 137.801 182.075 136.994L182.079 137.002Z"
              fill="#009904"/>
    </g>
    <path d="M218.205 172.425C217.998 172.593 217.791 172.714 217.581 172.792C218.912 176.473 219.133 179.932 218.155 182.995C216.702 187.557 212.779 191.216 206.489 193.875C199.964 196.635 191.207 198.091 181.162 198.091C167.908 198.091 153.09 195.603 138.315 190.898C119.131 184.79 102.232 175.67 90.727 165.221C80.1 155.572 75.3701 145.752 77.7511 138.28C79.204 133.718 83.1271 130.059 89.417 127.4C95.7175 124.737 104.099 123.291 113.709 123.195C114.587 121.838 115.794 120.6 117.147 119.643C94.9179 119.161 78.1331 125.319 74.3492 137.199C68.427 155.79 96.5814 181.356 137.23 194.304C177.878 207.251 215.631 202.675 221.554 184.083C222.91 179.828 222.478 175.206 220.518 170.454C219.758 171.125 218.983 171.786 218.198 172.432L218.205 172.425Z"
          fill="#4BFF3B"/>
    <g opacity="0.61">
        <path d="M159.251 100.328C164.485 100.328 168.729 98.1238 168.729 95.4051C168.729 92.6864 164.485 90.4824 159.251 90.4824C154.017 90.4824 149.773 92.6864 149.773 95.4051C149.773 98.1238 154.017 100.328 159.251 100.328Z"
              fill="white"/>
        <path d="M128.334 115.698C139.664 110.755 147.258 103.101 145.295 98.6012C143.332 94.1017 132.556 94.4612 121.226 99.4041C109.896 104.347 102.302 112.002 104.265 116.501C106.228 121.001 117.004 120.641 128.334 115.698Z"
              fill="white"/>
    </g>
    <path d="M82.319 65.1673C75.3917 67.5131 73.4865 69.4073 71.1517 76.3346C68.8059 69.3963 66.9116 67.5021 59.9844 65.1673C66.9226 62.8215 68.8169 60.9273 71.1517 54C73.4975 60.9383 75.3917 62.8325 82.319 65.1673Z"
          fill="white"/>
    <path d="M216.328 224.217C212.34 225.567 211.243 226.658 209.898 230.646C208.548 226.652 207.457 225.561 203.469 224.217C207.464 222.866 208.554 221.776 209.898 217.787C211.249 221.782 212.34 222.872 216.328 224.217Z"
          fill="white"/>
    <path d="M240.015 204.251C234.557 206.099 233.056 207.592 231.216 213.05C229.368 207.583 227.876 206.091 222.418 204.251C227.884 202.403 229.377 200.91 231.216 195.453C233.065 200.919 234.557 202.412 240.015 204.251Z"
          fill="white"/>
    <path d="M138.231 169.243L138.402 167.929C138.685 166.064 139.366 164.298 140.444 162.632C141.55 160.936 142.797 159.496 144.187 158.309C145.577 157.094 146.952 155.964 148.314 154.919C149.703 153.873 150.894 152.842 151.887 151.825C152.88 150.808 153.433 149.847 153.546 148.943C153.688 148.039 153.419 147.319 152.738 146.782C152.086 146.245 151.05 145.977 149.632 145.977C145.889 145.977 142.032 147.827 138.061 151.528L129 140.51C132.488 137.12 136.26 134.52 140.316 132.712C144.4 130.904 148.555 130 152.78 130C158.651 130 163.302 131.709 166.734 135.128C170.166 138.546 171.527 142.685 170.818 147.545C170.506 149.72 169.769 151.754 168.606 153.647C167.443 155.54 166.138 157.122 164.692 158.394C163.246 159.665 161.799 160.852 160.353 161.954C158.935 163.027 157.701 164.072 156.652 165.09C155.631 166.107 155.064 167.053 154.95 167.929L154.78 169.243H138.231ZM143.294 192C140.401 192 138.118 191.039 136.445 189.118C134.8 187.197 134.176 184.796 134.573 181.914C134.97 179.06 136.26 176.673 138.444 174.752C140.656 172.802 143.223 171.828 146.144 171.828C149.037 171.828 151.32 172.788 152.993 174.71C154.695 176.631 155.347 179.032 154.95 181.914C154.581 184.767 153.277 187.169 151.036 189.118C148.796 191.039 146.215 192 143.294 192Z"
          fill="white"/>
    <defs>
        <radialGradient id="paint0_radial_227_634" cx="0" cy="0" r="1" gradientUnits="userSpaceOnUse"
                        gradientTransform="translate(150.5 150.5) scale(142.734)">
            <stop stop-color="white"/>
            <stop offset="1" stop-color="white" stop-opacity="0"/>
        </radialGradient>
        <linearGradient id="paint1_linear_227_634" x1="26.1442" y1="152.475" x2="219.777" y2="197.031"
                        gradientUnits="userSpaceOnUse">
            <stop stop-color="#76FF6D"/>
            <stop offset="0.24" stop-color="#76FF6D"/>
            <stop offset="1" stop-color="#009C0A"/>
        </linearGradient>
        <linearGradient id="paint2_linear_227_634" x1="148.15" y1="59.4033" x2="148.15" y2="201.014"
                        gradientUnits="userSpaceOnUse">
            <stop stop-color="#82FF7D"/>
            <stop offset="1" stop-color="#118901"/>
        </linearGradient>
    </defs>
</svg>
