<svg viewBox="0 0 243 243" fill="none" xmlns="http://www.w3.org/2000/svg">
    <g clip-path="url(#clip0_1363_16635)">
        <g clip-path="url(#clip1_1363_16635)">
            <path d="M39.6104 240.708L9.34633 123.919L9.32828 123.85C6.40161 105.204 10.4784 86.1911 20.8162 70.3047C31.2271 54.3119 47.129 42.8501 65.6103 38.0302C84.0915 33.2102 103.566 35.4457 120.461 44.3169C137.241 53.1309 150.084 67.7313 156.63 85.4329L156.657 85.5337C156.979 86.6128 159.725 96.0882 160.103 97.9731L187.286 202.201L39.6121 240.715L39.6104 240.708Z"
                  fill="#151515"/>
            <path d="M65.9711 39.4296C103.62 29.6107 142.056 50.1887 155.27 85.9299C155.27 85.9299 158.359 96.5601 158.687 98.2829L185.515 201.151L40.6428 238.934L10.7612 123.612C4.83646 85.9694 28.3271 49.2405 65.9757 39.4216M65.2405 36.6284C46.4131 41.5387 30.2041 53.215 19.5975 69.5143C9.06234 85.7009 4.91192 105.076 7.89576 124.07L7.91928 124.212L7.9554 124.35L37.837 239.673L38.5676 242.474L41.3687 241.743L189.042 203.229L161.505 97.6421C161.093 95.6251 158.559 86.8875 158.045 85.1255L158.019 85.0248L157.98 84.9274C151.312 66.8877 138.223 52.0152 121.125 43.0356C103.91 33.9988 84.0617 31.7198 65.2342 36.6301L65.2405 36.6284Z"
                  fill="#00FF63"/>
            <path d="M31.1979 109.926L32.5158 103.122L36.3465 103.864L34.0613 115.647L19.3839 112.806L20.3494 107.821L31.1963 109.92L31.1979 109.926Z"
                  fill="#00FF63"/>
            <path d="M40.5718 93.4849C40.4637 94.4879 40.1804 95.4895 39.7328 96.4802C39.2853 97.4709 38.7198 98.3445 38.0474 99.0913C37.3749 99.8381 36.6439 100.412 35.8748 100.814C35.1057 101.217 34.2907 101.443 33.436 101.491C32.5813 101.539 31.7625 101.389 30.9779 101.036L22.6752 97.2986L24.7568 92.6749L32.9976 96.3813C33.5699 96.6421 34.1487 96.6189 34.7374 96.3242C35.3261 96.0295 35.7802 95.5279 36.0949 94.8273C36.4097 94.1267 36.4834 93.4553 36.3113 92.8212C36.1391 92.1871 35.767 91.7396 35.1947 91.4788L26.954 87.7724L29.0356 83.1487L37.3366 86.8797C38.1212 87.2331 38.7796 87.7471 39.3056 88.4234C39.8315 89.0997 40.2037 89.8564 40.4174 90.7016C40.6311 91.5467 40.6767 92.4692 40.5686 93.4723L40.5718 93.4849Z"
                  fill="#00FF63"/>
            <path d="M49.8517 81.1399C48.9389 82.1511 47.9249 82.9803 46.8236 83.6036C45.7176 84.2349 44.6267 84.6405 43.5383 84.8235C42.4499 85.0065 41.3844 84.9684 40.345 84.6949C39.2993 84.4231 38.376 83.9244 37.5687 83.2005C36.4953 82.23 35.8016 81.0394 35.4922 79.6209C35.1827 78.2024 35.2765 76.7057 35.7719 75.1512C36.272 73.5888 37.1298 72.1348 38.3562 70.7797C39.503 69.5058 40.7776 68.5414 42.1783 67.8803C43.579 67.2192 44.9598 66.9196 46.3235 66.9673L45.032 71.7076C44.388 71.6873 43.7378 71.8232 43.0908 72.1264C42.4422 72.4233 41.8518 72.8664 41.326 73.4539C40.4554 74.4205 40.0005 75.4602 39.9503 76.5825C39.9002 77.7049 40.274 78.6226 41.0717 79.3355C41.8711 80.0548 42.8237 80.3307 43.936 80.1617C45.0482 79.9926 46.0381 79.4319 46.8978 78.4749C47.4252 77.8937 47.8038 77.2571 48.032 76.5858C48.2603 75.9145 48.3356 75.2494 48.2423 74.6082L52.8205 72.8293C53.0109 74.178 52.8532 75.5839 52.3394 77.0423C51.8273 78.5069 51.0002 79.8723 49.8534 81.1462L49.8517 81.1399Z"
                  fill="#00FF63"/>
            <path d="M65.5523 69.4557L59.3314 67.3335L58.8141 68.9071L60.5033 72.1103L56.0162 74.4705L49.05 61.2416L53.5371 58.8814L56.1723 63.8816L58.3365 56.3524L64.0163 53.3584L60.7455 63.1663L71.3624 66.3941L65.5506 69.4494L65.5523 69.4557Z"
                  fill="#00FF63"/>
            <path d="M81.4591 50.449L87.0775 49.7971L81.5283 60.5354L82.0907 65.4241L77.0522 66.0054L76.4899 61.1166L68.6211 51.9282L74.3577 51.2657L78.5649 56.4678L81.4575 50.4427L81.4591 50.449Z"
                  fill="#00FF63"/>
            <path d="M106.164 53.9893C107.836 54.5751 109.246 55.4175 110.39 56.5041C111.536 57.597 112.302 58.8089 112.694 60.1587C113.085 61.5022 113.051 62.8421 112.584 64.1675C112.116 65.4929 111.311 66.5566 110.158 67.3683C109.011 68.1783 107.648 68.6481 106.07 68.7841C104.492 68.92 102.872 68.6903 101.2 68.1045L94.3087 65.6798L99.2684 51.5726L106.16 53.9972L106.164 53.9893ZM102.401 64.3828C103.57 64.7907 104.652 64.8176 105.658 64.4476C106.664 64.0777 107.338 63.4113 107.672 62.4501C108.012 61.4874 107.902 60.5481 107.347 59.6307C106.793 58.7196 105.928 58.0578 104.766 57.6483L102.759 56.9412L100.39 63.6837L102.396 64.3907L102.401 64.3828Z"
                  fill="#00FF63"/>
            <path d="M119.932 78.6207L120.486 76.4661L115.237 72.6047L113.353 73.782L108.96 70.5509L123.127 62.4123L127.944 65.9562L124.393 81.9079L119.918 78.6177L119.932 78.6207ZM118.696 70.4254L121.54 72.514L122.786 67.8593L118.694 70.4191L118.696 70.4254Z"
                  fill="#00FF63"/>
            <path d="M141.36 79.607L145.008 83.9264L132.987 85.2396L129.223 88.4129L125.952 84.5331L129.716 81.3597L133.02 69.7212L136.746 74.1345L134.739 80.5136L141.357 79.5944L141.36 79.607Z"
                  fill="#00FF63"/>
            <path d="M63.785 103.732C67.9583 102.644 72.2501 103.118 76.2022 105.099C80.1923 107.097 83.358 110.265 85.8948 113.959C86.5125 109.523 87.9258 105.275 90.5971 101.701C93.0645 98.4018 96.4164 96.1225 100.294 95.1112C105.6 93.7273 111.462 94.8607 115.981 98.1393C119.126 100.425 121.334 103.506 122.419 107.049C129.688 106.256 136.98 109.907 140.798 116.501C144.87 123.534 143.643 131.74 137.593 137.903C135.94 139.584 134.227 141.032 132.484 142.287C134.704 142.656 136.867 143.215 139.023 143.956C143.166 145.377 146.496 147.836 148.667 151.055C150.655 154.012 151.634 157.535 151.49 161.237C151.194 168.944 146.263 175.736 139.265 178.341C139.861 181.837 139.351 185.398 137.745 188.674C135.403 193.46 130.88 197.127 125.662 198.488C121.576 199.553 117.327 199.189 113.361 197.44C109.64 195.802 106.404 193.191 103.611 189.57C102.77 194.051 101.06 197.832 98.4674 200.962C95.9002 204.058 92.5502 206.216 88.7671 207.203C83.3914 208.605 77.5186 207.508 73.0647 204.272C69.9873 202.036 67.8216 198.991 66.7493 195.472C59.4804 196.265 52.1947 192.612 48.3773 186.018C44.3046 178.986 45.5326 170.78 51.5826 164.617C53.213 162.955 54.9241 161.473 56.7723 160.13C54.6924 159.785 52.5539 159.268 50.3673 158.513C46.2252 157.093 42.8947 154.634 40.7241 151.415C38.736 148.457 37.7567 144.935 37.9007 141.233C38.1948 133.519 43.134 126.732 50.1321 124.127C49.5442 120.609 50.0756 117.002 51.711 113.658C54.0932 108.794 58.6061 105.089 63.7803 103.74M63.6487 103.21C58.3234 104.598 53.6775 108.412 51.2305 113.413C49.6243 116.689 49.0436 120.263 49.5352 123.772C42.5264 126.568 37.6567 133.518 37.3623 141.205C37.2149 145.022 38.23 148.657 40.2837 151.711C42.5137 155.029 45.9428 157.556 50.1973 159.022C51.9105 159.61 53.6746 160.084 55.4548 160.44C53.966 161.588 52.5712 162.84 51.1954 164.24C44.9658 170.591 43.7072 179.041 47.9052 186.296C51.7243 192.896 58.9324 196.691 66.3639 196.057C67.5115 199.529 69.7161 202.517 72.7442 204.719C77.33 208.047 83.3719 209.174 88.905 207.731C92.7951 206.717 96.2502 204.498 98.8875 201.309C101.3 198.394 102.989 194.868 103.907 190.81C106.572 194.014 109.671 196.413 113.142 197.941C117.222 199.741 121.601 200.112 125.8 199.017C131.175 197.615 135.825 193.841 138.238 188.915C139.813 185.701 140.374 182.18 139.874 178.693C146.875 175.893 151.747 168.948 152.035 161.263C152.182 157.446 151.167 153.811 149.113 150.757C146.883 147.439 143.454 144.912 139.2 143.447C137.39 142.823 135.612 142.345 133.809 141.982C135.282 140.851 136.679 139.606 137.981 138.285C144.211 131.934 145.47 123.485 141.272 116.23C137.446 109.631 130.236 105.83 122.807 106.47C121.64 102.976 119.399 99.9507 116.305 97.7053C111.661 94.3317 105.623 93.1701 100.166 94.5934C96.1684 95.6359 92.7131 97.9825 90.171 101.382C87.8982 104.422 86.3522 108.186 85.5747 112.577C82.9082 109.004 79.8437 106.327 76.4546 104.623C72.3851 102.578 67.9639 102.098 63.6583 103.221L63.6487 103.21Z"
                  fill="#00FF63"/>
            <path d="M90.7623 134.567C87.7454 123.67 83.1825 112.645 74.5742 108.328C62.6149 102.324 49.5832 114.893 54.6417 126.71C40.3777 128.548 35.4344 149.548 51.5466 155.081C59.2053 157.716 66.342 157.421 74.4271 155.89C66.4388 158.256 59.8871 161.309 54.1619 167.145C42.2337 179.305 56.0485 195.878 69.6282 191.133C70.3942 203.968 87.1447 208.958 95.6835 198.65C100.949 192.289 101.296 183.385 99.9549 174.403C102.873 183.014 107.256 190.798 114.813 194.125C127.058 199.523 139.804 187.56 134.746 175.743C149.011 173.912 153.953 152.905 137.841 147.372C130.169 144.741 122.88 144.941 114.66 146.392C122.683 144.132 129.274 141.203 135.005 135.365C146.933 123.205 133.118 106.633 119.539 111.378C118.773 98.5422 101.497 93.1382 93.4835 103.86C87.7237 111.574 88.575 123.474 90.7497 134.571L90.7623 134.567Z"
                  fill="#00FF63"/>
            <path d="M90.7623 134.567C87.7454 123.669 83.1825 112.644 74.5742 108.328C62.6149 102.324 49.5832 114.892 54.6417 126.71C40.3777 128.547 35.4344 149.548 51.5466 155.081C59.2053 157.715 66.342 157.42 74.4271 155.89C66.4388 158.256 59.8871 161.309 54.1619 167.145C42.2337 179.305 56.0485 195.877 69.6282 191.132C70.3942 203.968 87.1447 208.958 95.6835 198.65C100.949 192.288 101.296 183.384 99.9549 174.402C102.873 183.013 107.256 190.798 114.813 194.125C127.058 199.523 139.804 187.56 134.746 175.743C149.011 173.911 153.953 152.904 137.841 147.372C130.169 144.74 122.88 144.94 114.66 146.392C122.683 144.131 129.274 141.202 135.005 135.365C146.933 123.205 133.118 106.632 119.539 111.377C118.773 98.5417 101.497 93.1377 93.4835 103.86C87.7237 111.574 88.575 123.473 90.7497 134.57L90.7623 134.567Z"
                  fill="#00FF63"/>
            <path d="M233.747 27.2834C225.921 27.9954 223.455 29.4963 219.276 36.148C218.567 28.3099 217.063 25.8551 210.412 21.6767C218.25 20.9675 220.704 19.4638 224.883 12.8121C225.592 20.6503 227.096 23.105 233.747 27.2834Z"
                  fill="white" fill-opacity="0.64"/>
            <path d="M216.904 70.2115C201.69 71.5955 196.896 74.513 188.774 87.4428C187.396 72.2067 184.473 67.4352 171.543 59.3132C186.779 57.9345 191.551 55.0117 199.673 42.082C201.051 57.318 203.974 62.0894 216.904 70.2115Z"
                  fill="white"/>
        </g>
    </g>
    <defs>
        <clipPath id="clip0_1363_16635">
            <rect width="243" height="243" fill="white"/>
        </clipPath>
        <clipPath id="clip1_1363_16635">
            <rect width="243" height="243" fill="white"/>
        </clipPath>
    </defs>
</svg>
