<svg  viewBox="0 0 201 201" fill="none" xmlns="http://www.w3.org/2000/svg">
    <g clip-path="url(#clip0_1363_15067)">
        <path d="M182.109 158.89C177.338 160.809 172.896 161.198 170.008 161.179C169.348 161.18 168.752 161.155 168.217 161.116C164.337 164.055 160.052 166.477 155.467 168.321C147.786 171.41 139.09 172.963 129.628 172.916C120.861 172.882 111.331 171.493 101.277 168.775C99.7669 169.6 98.1724 170.355 96.5142 171.022C87.7683 174.539 78.3353 175.245 71.9611 175.222C71.1558 175.215 70.3667 175.202 69.6248 175.189C66.1626 175.08 63.3947 174.795 62.2052 174.679C61.8115 174.639 61.5463 174.613 61.3787 174.596C59.6752 174.563 58.1624 173.784 57.2146 172.437C56.4593 171.334 56.2016 170.153 56.2771 168.791C56.2771 168.791 56.0687 168.743 56.0264 168.731C54.6721 168.37 53.5316 167.459 52.8898 166.216C52.2122 164.93 52.1346 163.422 52.6867 162.048C52.7013 162.014 52.7159 161.98 52.7305 161.945C53.6537 159.827 55.018 157.749 56.7778 155.785C57.2568 155.262 57.7585 154.748 58.3025 154.246C58.2602 154.235 58.2146 154.215 58.1723 154.204C53.5631 156.643 49.1972 158.702 45.1656 160.323C43.7269 160.902 42.2995 161.438 40.9404 161.909C37.8204 163.004 35.6902 163.53 34.7796 163.754L34.3665 163.854C34.4511 163.83 34.5161 163.804 34.5763 163.789C33.9129 164.018 33.2266 164.096 32.7824 164.095C28.7737 164.083 27.1722 160.289 26.4277 157.217C23.0902 155.963 21.4626 154.757 20.7602 154.114C19.1566 152.663 18.6723 150.355 19.5731 148.369C19.5925 148.323 19.6119 148.277 19.6347 148.24C20.6459 146.2 22.0427 144.108 23.7877 142.037C24.7925 140.849 30.0043 135.306 30.0043 135.306C11.3668 122.518 8.88567 101.958 8.95913 84.9776C8.99838 76.5291 11.0171 68.682 14.983 61.591C14.9243 61.5391 14.8656 61.4871 14.807 61.4352C12.8222 59.7405 11.4122 58.3245 10.6064 57.2133C9.81857 56.1231 8.66394 53.7924 9.86322 50.5054C12.718 42.577 30.9995 30.7197 37.6403 28.0487C38.3312 27.7709 38.9457 27.5614 39.5116 27.4188C39.5441 27.4058 39.588 27.3975 39.6238 27.3926C40.4369 27.2072 41.203 27.1163 41.9579 27.1148C45.7144 27.1337 49.6116 29.2868 53.5584 33.5352C62.9744 30.7679 73.2049 29.3916 84.0075 29.4378C95.3958 29.4845 106.091 31.0943 115.837 34.2189C118.477 31.344 121.11 29.3689 123.679 28.3358C125.093 27.767 126.516 27.4779 127.887 27.4834C128.642 27.482 129.401 27.5831 130.214 27.7751C130.254 27.7783 130.288 27.7929 130.322 27.8074C136.369 29.4358 156.862 42.7992 159.793 51.1672C160.913 54.5132 159.744 56.7963 158.946 57.8635C158.172 58.9208 156.803 60.2834 154.875 61.8993C154.374 62.3461 153.863 62.7879 153.335 63.2363C156.859 70.0723 158.622 77.5787 158.593 85.6074C158.586 87.0928 158.576 88.57 158.556 90.0228C161.235 92.3166 163.467 94.7429 165.237 97.2889C166.035 96.1745 167.122 95.2842 168.365 94.7368C168.337 94.5026 168.317 94.2651 168.325 94.0259C168.337 91.802 169.747 89.7429 171.828 88.906C173.169 88.3666 174.646 88.3767 176.001 88.9273C182.162 91.4731 185.06 96.1904 183.468 101.014C184.681 103.114 185.123 105.457 184.706 107.778C184.397 109.451 183.326 112.375 179.664 114.235C182.576 120.136 183.516 126.066 184.191 130.327L184.217 130.487C184.44 131.861 184.673 133.287 184.884 133.93C184.911 133.995 184.927 134.035 184.943 134.076C185.051 134.108 185.29 134.163 185.723 134.159C186.045 134.162 186.578 134.127 187.338 133.972C188.714 133.683 190.162 133.715 190.432 133.729C192.223 133.792 193.79 134.635 194.721 136.036C195.268 136.855 195.55 137.79 195.55 138.753C196.208 139.262 196.735 139.938 197.08 140.725C197.717 142.168 197.643 143.794 196.898 145.18C196.68 145.579 196.478 145.991 196.272 146.394C195.46 148.015 194.536 149.85 192.922 151.425C192.906 151.431 192.896 151.454 192.88 151.46C189.819 154.722 186.193 157.21 182.088 158.861L182.109 158.89Z"
              fill="white"/>
        <path d="M190.675 140.686L191.134 139.057C191.336 138.503 190.877 138.159 190.293 138.139C189.881 138.125 188.972 138.142 188.223 138.301C188.955 140.707 189.793 145.139 189.892 148.319C191.315 146.926 192.063 144.982 193.066 143.133C193.283 142.734 193.064 142.237 192.622 142.122L191.243 141.77C190.769 141.649 190.511 141.148 190.678 140.694L190.675 140.686Z"
              fill="black"/>
        <path d="M100.822 144.987C100.838 141.363 93.9073 138.396 85.343 138.36C76.7788 138.325 69.8239 141.233 69.8087 144.857C69.7935 148.482 76.7239 151.448 85.2881 151.484C93.8524 151.52 100.807 148.611 100.822 144.987Z"
              fill="#0C0C0C"/>
        <path d="M178.338 101.502C178.712 101.021 179.044 100.462 179.282 99.8094C180.504 96.485 176.92 94.0547 174.364 93.0054C173.052 92.4661 171.98 94.3797 173.398 94.9708C175.288 95.7498 178.421 98.0686 176.642 100.22C174.883 99.1328 172.796 98.4991 171.005 98.5773C169.286 98.6457 167.694 100.769 168.382 102.456C169.251 104.524 171.756 104.366 173.606 104.009C174.668 103.809 175.628 103.498 176.488 103.029C176.734 103.242 176.988 103.451 177.218 103.671C182.719 108.918 169.294 109.7 166.821 109.798C165.315 109.856 165.576 111.961 167.066 111.909C170.765 111.762 179.468 112.152 180.415 107.04C180.8 104.921 179.864 102.994 178.329 101.524L178.338 101.502ZM172.143 102.086C171.154 102.351 170.854 101.887 171.263 100.674C171.948 100.521 172.762 100.902 173.403 101.135C173.737 101.284 174.072 101.414 174.4 101.594C173.645 101.831 172.839 101.985 172.139 102.078L172.143 102.086Z"
              fill="black"/>
        <path d="M188.896 138.7C188.806 138.405 188.529 138.233 188.217 138.302C187.326 138.481 186.477 138.577 185.718 138.571C183.07 138.559 181.447 137.484 180.736 135.315C180.408 134.313 180.169 132.804 179.885 131.039C178.337 121.275 175.447 103.314 150.397 99.3289C141.132 86.6243 119.367 77.6348 93.9581 77.5237C60.0731 77.375 32.5321 93.0699 32.4536 112.573C32.4268 119.855 36.2222 126.639 42.76 132.281C37.6559 135.392 31.417 139.79 27.1398 144.862C26.9921 145.035 26.96 145.284 27.0613 145.489C28.8354 149.336 32.3627 154.584 39.0747 157.749C39.2099 157.827 39.3791 157.825 39.5092 157.773C45.9653 155.535 53.3772 152.034 61.5451 147.361C62.5011 147.93 65.7325 149.813 70.4826 152.208C70.652 152.301 70.8603 152.302 71.0212 152.209C74.9901 150.15 79.1227 148.592 82.4427 147.502C85.8517 147.878 89.3565 148.092 92.9422 148.132L107.372 156.937C105.385 159.229 103 161.236 100.275 162.936C100.091 163.067 99.9748 163.293 100.003 163.527C100.033 163.742 100.205 163.937 100.432 164.006C110.851 166.974 120.688 168.494 129.648 168.535C144.51 168.602 157.047 164.579 166.9 156.583C167.393 156.659 168.503 156.789 170.028 156.799C174.633 156.816 183.394 155.682 190.283 147.877C190.379 147.763 190.429 147.63 190.427 147.461C190.35 144.687 189.836 141.74 188.893 138.691L188.896 138.7Z"
              fill="#0C0C0C"/>
        <mask id="mask0_1363_15067" style="mask-type:luminance" maskUnits="userSpaceOnUse" x="27" y="77" width="164"
              height="92">
            <path d="M188.896 138.7C188.806 138.405 188.529 138.233 188.217 138.302C187.326 138.481 186.477 138.577 185.718 138.571C183.07 138.559 181.447 137.484 180.736 135.315C180.408 134.313 180.169 132.804 179.885 131.039C178.337 121.275 175.447 103.314 150.397 99.3289C141.132 86.6243 119.367 77.6348 93.9581 77.5237C60.0731 77.375 32.5321 93.0699 32.4536 112.573C32.4268 119.855 36.2222 126.639 42.76 132.281C37.6559 135.392 31.417 139.79 27.1398 144.862C26.9921 145.035 26.96 145.284 27.0613 145.489C28.8354 149.336 32.3627 154.584 39.0747 157.749C39.2099 157.827 39.3791 157.825 39.5092 157.773C45.9653 155.535 53.3772 152.034 61.5451 147.361C62.5011 147.93 65.7325 149.813 70.4826 152.208C70.652 152.301 70.8603 152.302 71.0212 152.209C74.9901 150.15 79.1227 148.592 82.4427 147.502C85.8517 147.878 89.3565 148.092 92.9422 148.132L107.372 156.937C105.385 159.229 103 161.236 100.275 162.936C100.091 163.067 99.9748 163.293 100.003 163.527C100.033 163.742 100.205 163.937 100.432 164.006C110.851 166.974 120.688 168.494 129.648 168.535C144.51 168.602 157.047 164.579 166.9 156.583C167.393 156.659 168.503 156.789 170.028 156.799C174.633 156.816 183.394 155.682 190.283 147.877C190.379 147.763 190.429 147.63 190.427 147.461C190.35 144.687 189.836 141.74 188.893 138.691L188.896 138.7Z"
                  fill="white"/>
        </mask>
        <g mask="url(#mask0_1363_15067)">
            <path d="M165.664 111.856C165.748 91.9257 133.899 75.6358 94.5273 75.4711C55.1561 75.3064 23.1718 91.3294 23.0884 111.259C23.0051 131.189 54.8542 147.479 94.2254 147.644C133.597 147.809 165.581 131.786 165.664 111.856Z"
                  fill="black"/>
            <path d="M31.3887 139.727C31.3887 139.727 69.0041 155.231 82.0352 155.089L99.0424 149.807L103.706 138.932L60.645 118.319L31.3854 139.719L31.3887 139.727Z"
                  fill="black"/>
        </g>
        <path d="M108.847 156.704C108.826 156.533 108.72 156.387 108.57 156.296L94.9828 148.012C93.8815 148.068 92.7786 148.096 91.6739 148.096C90.444 148.091 89.1928 148.055 87.9546 147.959C87.7713 148.278 87.4301 148.509 86.9502 148.514C83.5256 148.522 80.0531 148.974 76.655 148.367C74.6473 149.175 72.539 150.108 70.4944 151.176C66.033 153.489 62.527 156.042 60.0512 158.738C59.8856 158.937 59.8552 159.213 59.9711 159.431C61.8566 162.78 65.007 167.444 69.396 170.702C69.4921 170.777 69.6224 170.819 69.7281 170.823C70.4505 170.835 71.2038 170.853 71.9814 170.861C80.0606 170.898 91.6418 169.734 100.894 163.954C103.938 162.059 106.564 159.785 108.721 157.189C108.83 157.06 108.872 156.883 108.838 156.727L108.847 156.704Z"
              fill="#0C0C0C"/>
        <path d="M60.4918 159.135C59.141 160.613 58.0442 162.206 57.2943 163.934L62.2993 165.131C62.2993 165.131 60.6146 169.841 61.4521 169.646C61.7204 169.585 64.9588 170.077 69.7503 170.227C65.4835 167.061 62.3854 162.528 60.4951 159.143L60.4918 159.135Z"
              fill="black"/>
        <path d="M69.749 170.813L69.7328 170.82C66.565 170.715 64.0184 170.465 62.6499 170.326C62.0186 170.259 61.6476 170.229 61.4865 170.227C61.1563 170.228 60.9332 170.119 60.7994 169.928C60.6771 169.741 60.2856 169.19 61.533 165.553L57.1596 164.517C56.9903 164.472 56.8502 164.358 56.7766 164.199C56.6869 164.046 56.6898 163.865 56.7497 163.709C57.4851 162.016 58.5963 160.341 60.0444 158.729C60.1727 158.602 60.3662 158.543 60.5549 158.543C60.7453 158.57 60.9098 158.674 61.0061 158.843C62.8295 162.085 65.8886 166.615 70.1114 169.742C70.3102 169.908 70.3985 170.174 70.3079 170.419C70.2254 170.66 69.9963 170.818 69.749 170.813ZM61.8244 169.071C62.0782 169.092 62.3792 169.113 62.7681 169.164C63.8567 169.264 65.6776 169.448 67.9912 169.566C64.6181 166.673 62.0894 163.016 60.4002 160.154C59.4652 161.257 58.7124 162.391 58.1468 163.544L62.4535 164.578C62.6114 164.619 62.7613 164.71 62.8315 164.861C62.9246 165.022 62.9266 165.191 62.8667 165.347C62.3779 166.715 61.9011 168.37 61.8277 169.08L61.8244 169.071Z"
              fill="black"/>
        <path d="M27.5955 145.247C26.1979 146.914 24.9908 148.655 24.1222 150.44C24.1222 150.44 25.6836 151.927 30.7704 153.422C30.7704 153.422 31.7256 159.507 32.9093 159.115C33.4344 158.942 35.547 158.536 39.3335 157.221C32.8755 154.171 29.4039 149.156 27.5922 145.238L27.5955 145.247Z"
              fill="black"/>
        <path d="M32.7941 159.728C31.7448 159.725 30.8869 157.757 30.2499 153.896C25.3469 152.411 23.7644 150.942 23.7073 150.871C23.5167 150.702 23.469 150.419 23.5743 150.188C24.4267 148.457 25.6256 146.671 27.1482 144.869C27.2862 144.719 27.4813 144.641 27.6798 144.665C27.893 144.702 28.0608 144.814 28.1441 144.997C29.83 148.672 33.1926 153.675 39.5822 156.696C39.7972 156.807 39.9326 157.027 39.9249 157.266C39.8977 157.504 39.755 157.712 39.5209 157.787C36.6562 158.788 34.7536 159.27 33.7389 159.518C33.4299 159.595 33.2055 159.648 33.0966 159.682C33.0397 159.705 32.8608 159.73 32.7941 159.728ZM24.8483 150.28C25.5374 150.748 27.3273 151.794 30.9361 152.855C31.151 152.919 31.3092 153.101 31.3421 153.324C31.7242 155.73 32.4054 158.081 32.826 158.516C32.9707 158.477 33.1755 158.423 33.4439 158.362C34.2634 158.146 35.7074 157.791 37.8032 157.109C32.3475 154.157 29.2075 149.801 27.4536 146.333C26.3775 147.672 25.5113 148.993 24.8369 150.275L24.8483 150.28Z"
              fill="black"/>
        <path d="M154.237 85.6034C154.103 117.717 152.283 143.737 83.5334 143.447C23.6847 143.193 13.2084 117.122 13.3426 85.009C13.4767 52.8957 45.1026 33.6692 83.9985 33.8328C122.906 34.0012 154.371 53.49 154.237 85.6034Z"
              fill="#0C0C0C"/>
        <mask id="mask1_1363_15067" style="mask-type:luminance" maskUnits="userSpaceOnUse" x="13" y="33" width="142"
              height="111">
            <path d="M154.237 85.6034C154.103 117.717 152.283 143.737 83.5334 143.447C23.6847 143.193 13.2084 117.122 13.3426 85.009C13.4767 52.8957 45.1026 33.6692 83.9985 33.8328C122.906 34.0012 154.371 53.49 154.237 85.6034Z"
                  fill="white"/>
        </mask>
        <g mask="url(#mask1_1363_15067)">
            <path d="M157.521 74.0544C137.818 65.0757 94.5172 55.7677 75.0179 55.206C55.7382 54.6505 33.9532 54.1112 15.9738 58.0564L32.7707 45.7008C72.3786 31.8571 128.223 46.1017 147.516 57.9836L157.532 74.0593L157.521 74.0544Z"
                  fill="#31FF76"/>
            <mask id="mask2_1363_15067" style="mask-type:luminance" maskUnits="userSpaceOnUse" x="15" y="40" width="143"
                  height="35">
                <path d="M157.521 74.0544C137.818 65.0757 94.5172 55.7677 75.0179 55.206C55.7382 54.6505 33.9532 54.1112 15.9738 58.0564L32.7707 45.7008C72.3786 31.8571 128.223 46.1017 147.516 57.9836L157.532 74.0593L157.521 74.0544Z"
                      fill="white"/>
            </mask>
            <g mask="url(#mask2_1363_15067)">
                <path d="M63.6539 39.0288C63.6539 39.0288 48.356 46.5888 44.0032 55.5352C39.6504 64.4816 26.4412 59.0859 26.4412 59.0859L17.6884 58.1492L31.6956 38.3412L45.6006 33.2113L54.3472 36.8323L63.6587 39.0174L63.6539 39.0288Z"
                      fill="#22D358"/>
                <path d="M117.516 31.5954C117.516 31.5954 121.62 67.3205 117.142 70.9538C112.663 74.587 145.483 61.3582 145.483 61.3582L146.071 49.4125L131.748 36.5515L117.516 31.5954Z"
                      fill="#22D358"/>
            </g>
        </g>
        <path d="M54.3197 41.5866C54.0553 41.1641 47.819 31.5286 41.9443 31.5023C41.4887 31.4967 41.0545 31.5675 40.622 31.6659C35.064 33.1081 16.2292 45.7734 13.983 52.0217C13.5945 53.075 13.6563 53.9567 14.162 54.6505C14.7525 55.4611 16.0108 56.7114 17.7022 58.1464C18.874 59.2049 20.3618 60.4857 22.1183 61.8945C24.4807 63.73 27.2732 65.8364 30.589 67.6473C32.2534 68.5454 34.0072 69.4076 35.9394 70.0091C37.8375 70.5961 39.968 71.0329 42.1274 70.4854C42.6266 70.3413 43.2297 70.127 43.6341 69.7472C44.1767 69.3118 44.4882 68.8654 44.7541 68.3997C45.2941 67.4648 45.642 66.475 45.8972 65.513C46.4255 63.563 46.6805 61.6379 46.8803 59.7634C47.2441 56.0192 47.1969 52.5443 47.1651 49.5541C47.1443 48.8448 47.1202 48.1746 47.0864 47.5271C47.1509 46.3491 47.1963 45.4527 47.2182 44.9434L53.9799 42.5732C54.175 42.4947 54.3244 42.3496 54.3875 42.1543C54.4587 41.9557 54.4322 41.7491 54.3245 41.5752L54.3197 41.5866Z"
              fill="#151515"/>
        <mask id="mask3_1363_15067" style="mask-type:luminance" maskUnits="userSpaceOnUse" x="13" y="31" width="42"
              height="40">
            <path d="M54.3197 41.5866C54.0553 41.1641 47.819 31.5286 41.9443 31.5023C41.4887 31.4967 41.0545 31.5675 40.622 31.6659C35.064 33.1081 16.2292 45.7734 13.983 52.0217C13.5945 53.075 13.6563 53.9567 14.162 54.6505C14.7525 55.4611 16.0108 56.7114 17.7022 58.1464C18.874 59.2049 20.3618 60.4857 22.1183 61.8945C24.4807 63.73 27.2732 65.8364 30.589 67.6473C32.2534 68.5454 34.0072 69.4076 35.9394 70.0091C37.8375 70.5961 39.968 71.0329 42.1274 70.4854C42.6266 70.3413 43.2297 70.127 43.6341 69.7472C44.1767 69.3118 44.4882 68.8654 44.7541 68.3997C45.2941 67.4648 45.642 66.475 45.8972 65.513C46.4255 63.563 46.6805 61.6379 46.8803 59.7634C47.2441 56.0192 47.1969 52.5443 47.1651 49.5541C47.1443 48.8448 47.1202 48.1746 47.0864 47.5271C47.1509 46.3491 47.1963 45.4527 47.2182 44.9434L53.9799 42.5732C54.175 42.4947 54.3244 42.3496 54.3875 42.1543C54.4587 41.9557 54.4322 41.7491 54.3245 41.5752L54.3197 41.5866Z"
                  fill="white"/>
        </mask>
        <g mask="url(#mask3_1363_15067)">
            <g style="mix-blend-mode:multiply" opacity="0.7">
                <path d="M22.1171 61.8968C22.1171 61.8968 36.8001 72.3184 42.0385 68.8139C47.2769 65.3093 46.8184 38.9302 46.8184 38.9302L49.6701 65.3194L46.8269 69.9664L35.3579 79.6503L29.3013 77.2231L22.5533 71.41L22.2118 61.2166"
                      fill="#151515"/>
            </g>
        </g>
        <path d="M155.677 52.6254C153.478 46.3612 134.742 33.5379 129.194 32.0485C128.766 31.9468 128.332 31.8761 127.879 31.8786C122.005 31.8523 115.689 41.4369 115.423 41.8555C115.312 42.0233 115.275 42.2365 115.353 42.4316C115.42 42.6218 115.565 42.7712 115.759 42.8538L122.496 45.2813C122.516 45.8019 122.546 46.7438 122.61 47.9834C122.58 48.5903 122.552 49.2248 122.525 49.887C122.451 52.8724 122.38 56.3574 122.716 60.1034C122.893 61.9773 123.125 63.9145 123.638 65.8706C123.893 66.8349 124.222 67.8169 124.763 68.7611C125.027 69.2308 125.34 69.6808 125.867 70.1207C126.292 70.4973 126.883 70.7223 127.366 70.8678C129.53 71.4331 131.655 71.0126 133.561 70.4445C135.496 69.8551 137.271 69.009 138.927 68.1257C142.252 66.3445 145.059 64.2616 147.444 62.4431C149.288 60.9933 150.837 59.6807 152.033 58.6144C153.662 57.2415 154.875 56.0548 155.457 55.2728C155.973 54.5836 156.034 53.7001 155.683 52.6417L155.677 52.6254Z"
              fill="#151515"/>
        <mask id="mask4_1363_15067" style="mask-type:luminance" maskUnits="userSpaceOnUse" x="115" y="31" width="41"
              height="41">
            <path d="M155.677 52.6254C153.478 46.3612 134.742 33.5379 129.194 32.0485C128.766 31.9468 128.332 31.8761 127.879 31.8786C122.005 31.8523 115.689 41.4369 115.423 41.8555C115.312 42.0233 115.275 42.2365 115.353 42.4316C115.42 42.6218 115.565 42.7712 115.759 42.8538L122.496 45.2813C122.516 45.8019 122.546 46.7438 122.61 47.9834C122.58 48.5903 122.552 49.2248 122.525 49.887C122.451 52.8724 122.38 56.3574 122.716 60.1034C122.893 61.9773 123.125 63.9145 123.638 65.8706C123.893 66.8349 124.222 67.8169 124.763 68.7611C125.027 69.2308 125.34 69.6808 125.867 70.1207C126.292 70.4973 126.883 70.7223 127.366 70.8678C129.53 71.4331 131.655 71.0126 133.561 70.4445C135.496 69.8551 137.271 69.009 138.927 68.1257C142.252 66.3445 145.059 64.2616 147.444 62.4431C149.288 60.9933 150.837 59.6807 152.033 58.6144C153.662 57.2415 154.875 56.0548 155.457 55.2728C155.973 54.5836 156.034 53.7001 155.683 52.6417L155.677 52.6254Z"
                  fill="white"/>
        </mask>
        <g mask="url(#mask4_1363_15067)">
            <g style="mix-blend-mode:multiply" opacity="0.7">
                <path d="M121.692 48.2026L123.643 37.2288C123.643 37.2288 122.475 63.9315 126.261 68.1786C130.055 72.4225 140.725 67.092 140.725 67.092L123.692 75.1515L118.645 67.0868L118.694 55.2349L121.689 48.1945L121.692 48.2026Z"
                      fill="#151515"/>
            </g>
        </g>
        <path d="M25.1319 86.7931C22.5858 86.7784 20.7276 89.1784 21.344 91.65C24.4294 104.064 35.6252 113.282 49.0016 113.341C64.0797 113.405 76.4757 101.8 77.6515 87.0203L25.1433 86.798L25.1319 86.7931Z"
              fill="white"/>
        <mask id="mask5_1363_15067" style="mask-type:luminance" maskUnits="userSpaceOnUse" x="21" y="86" width="57"
              height="28">
            <path d="M25.1319 86.7931C22.5858 86.7784 20.7276 89.1784 21.344 91.65C24.4294 104.064 35.6252 113.282 49.0016 113.341C64.0797 113.405 76.4757 101.8 77.6515 87.0203L25.1433 86.798L25.1319 86.7931Z"
                  fill="white"/>
        </mask>
        <g mask="url(#mask5_1363_15067)">
            <path d="M52.9596 91.5695C52.9942 83.286 49.3666 76.5555 44.8571 76.5366C40.3476 76.5178 36.6638 83.2176 36.6291 91.5012C36.5945 99.7848 40.2221 106.515 44.7316 106.534C49.2412 106.553 52.9249 99.8531 52.9596 91.5695Z"
                  fill="#0C0C0C"/>
        </g>
        <path d="M62.5611 86.9521C63.6093 101.743 75.9113 113.453 90.9895 113.517C104.366 113.576 115.633 104.446 118.822 92.0674C119.455 89.6031 117.624 87.1858 115.069 87.1744L62.5611 86.9521Z"
              fill="white"/>
        <mask id="mask6_1363_15067" style="mask-type:luminance" maskUnits="userSpaceOnUse" x="62" y="86" width="57"
              height="28">
            <path d="M62.5611 86.9521C63.6093 101.743 75.9113 113.453 90.9895 113.517C104.366 113.576 115.633 104.446 118.822 92.0674C119.455 89.6031 117.624 87.1858 115.069 87.1744L62.5611 86.9521Z"
                  fill="white"/>
        </mask>
        <g mask="url(#mask6_1363_15067)">
            <path d="M98.8502 91.7668C98.8849 83.4832 95.2572 76.7528 90.7477 76.7339C86.2382 76.715 82.5544 83.4149 82.5198 91.6985C82.4851 99.9821 86.1127 106.713 90.6223 106.731C95.1318 106.75 98.8156 100.05 98.8502 91.7668Z"
                  fill="#0C0C0C"/>
        </g>
        <path d="M70.4977 151.163C70.4977 151.163 120.019 154.22 141.97 139.065C163.92 123.909 146.225 133.444 146.225 133.444L128.031 142.82L98.4183 147.752L81.8466 146.769L76.4533 147.493L70.5175 147.879L70.501 151.171L70.4977 151.163Z"
              fill="black"/>
        <path d="M132.903 77.214C132.903 77.214 131.97 81.3757 131.756 82.6044C131.542 83.8331 132.363 85.0045 133.595 85.2267C134.823 85.4407 136.084 84.6314 136.217 83.3882C136.519 80.5471 132.911 77.2107 132.911 77.2107L132.903 77.214Z"
              fill="white"/>
        <path d="M134.046 73.5823C134.046 73.5823 135.721 75.8454 136.243 76.4854C136.765 77.1254 137.709 77.218 138.349 76.6962C138.989 76.1743 139.124 75.1947 138.559 74.5906C137.268 73.2118 134.043 73.5742 134.043 73.5742L134.046 73.5823Z"
              fill="white"/>
        <path d="M74.0263 119.572C73.9114 117.146 72.2942 115.251 70.4141 115.34C68.534 115.429 67.103 117.468 67.2178 119.894C67.3327 122.321 68.9499 124.215 70.83 124.126C72.7101 124.037 74.1412 121.998 74.0263 119.572Z"
              fill="white"/>
    </g>
    <defs>
        <clipPath id="clip0_1363_15067">
            <rect width="201" height="201" fill="white"/>
        </clipPath>
    </defs>
</svg>
