<svg viewBox="0 0 243 243" fill="none" xmlns="http://www.w3.org/2000/svg">
    <g clip-path="url(#clip0_1443_22233)">
        <path d="M216.913 243.087C212.481 243.087 208.803 241.969 206.5 241.026C205.972 240.814 205.504 240.603 205.088 240.399C201.041 241.501 196.835 242.06 192.576 242.06C185.441 242.06 177.988 240.505 170.437 237.424C163.437 234.577 156.264 230.401 149.098 224.995C147.626 225.169 146.108 225.259 144.568 225.259C136.443 225.259 128.673 222.79 123.583 220.721C122.942 220.457 122.315 220.192 121.726 219.943C118.992 218.743 116.871 217.625 115.957 217.149C115.655 216.991 115.451 216.885 115.323 216.817C113.971 216.243 113.012 215.133 112.687 213.752C112.438 212.626 112.612 211.599 113.11 210.535C113.11 210.535 112.959 210.429 112.929 210.406C111.963 209.682 111.343 208.587 111.23 207.386C111.102 206.14 111.525 204.909 112.408 203.988C112.431 203.965 112.453 203.943 112.476 203.92C113.896 202.523 115.655 201.3 117.694 200.296C118.245 200.031 118.811 199.782 119.408 199.556C119.378 199.533 119.347 199.503 119.317 199.48C114.847 199.948 110.694 200.19 106.949 200.19C105.612 200.19 104.298 200.16 103.06 200.099C100.213 199.971 98.3406 199.707 97.5402 199.593L97.1778 199.541C97.2533 199.548 97.3137 199.548 97.3665 199.556C96.7625 199.526 96.1886 199.367 95.8337 199.223C92.6321 197.925 92.5717 194.376 92.9644 191.68C90.6991 189.604 89.7854 188.116 89.4305 187.376C88.615 185.7 88.9699 183.699 90.329 182.4C90.3592 182.37 90.3894 182.34 90.4196 182.317C91.8845 181.011 93.6741 179.787 95.7355 178.692C96.921 178.066 102.871 175.31 102.871 175.31C92.0809 159.09 96.7096 141.851 102.229 128.297C104.978 121.554 109.116 115.929 114.568 111.534C114.537 111.474 114.507 111.413 114.477 111.353C113.435 109.36 112.763 107.774 112.476 106.626C112.197 105.501 112.023 103.266 114.039 101.023C118.872 95.6018 137.303 92 143.473 92C144.114 92 144.673 92.0302 145.172 92.0982C145.202 92.0982 145.24 92.1057 145.27 92.1133C145.98 92.2265 146.621 92.4002 147.225 92.6418C150.223 93.8651 152.647 96.8402 154.437 101.507C162.856 102.322 171.479 104.512 180.102 108.023C189.194 111.723 197.228 116.45 204.016 122.083C207.052 120.633 209.793 119.901 212.179 119.901C213.493 119.901 214.723 120.127 215.818 120.573C216.422 120.814 216.996 121.139 217.585 121.554C217.615 121.57 217.638 121.592 217.661 121.615C221.972 124.862 234.061 142.138 233.714 149.772C233.533 152.808 231.864 154.258 230.882 154.854C229.923 155.451 228.391 156.1 226.329 156.772C225.786 156.968 225.234 157.157 224.668 157.346C225.287 163.945 224.283 170.515 221.678 176.926C221.195 178.111 220.711 179.289 220.228 180.444C221.633 183.14 222.637 185.798 223.233 188.403C224.23 187.769 225.385 187.406 226.556 187.369C226.609 187.172 226.669 186.976 226.752 186.787C227.477 185.013 229.266 183.82 231.2 183.82C232.445 183.82 233.623 184.303 234.53 185.179C238.637 189.196 239.438 193.9 236.614 197.245C236.908 199.314 236.508 201.33 235.428 203.052C234.643 204.29 232.846 206.284 229.319 206.593C229.75 212.249 228.594 217.293 227.764 220.917L227.734 221.053C227.469 222.224 227.198 223.439 227.16 224.021C227.16 224.081 227.16 224.119 227.16 224.157C227.235 224.217 227.409 224.338 227.756 224.474C228.013 224.58 228.451 224.723 229.108 224.844C230.301 225.055 231.449 225.546 231.66 225.644C233.072 226.271 234.054 227.449 234.348 228.869C234.522 229.699 234.446 230.537 234.137 231.307C234.499 231.927 234.703 232.636 234.726 233.376C234.771 234.736 234.19 236.012 233.148 236.88C232.846 237.129 232.551 237.394 232.257 237.65C231.086 238.685 229.757 239.855 227.96 240.595C227.945 240.595 227.93 240.61 227.915 240.61C224.419 242.234 220.719 243.057 216.906 243.057L216.913 243.087Z" fill="white"/>
        <path d="M229.618 231.285L230.509 230.129C230.849 229.752 230.592 229.329 230.132 229.125C229.807 228.982 229.074 228.702 228.425 228.589C228.236 230.748 227.481 234.562 226.537 237.137C228.123 236.48 229.346 235.166 230.743 234.01C231.045 233.761 231.03 233.293 230.713 233.059L229.724 232.334C229.384 232.085 229.339 231.602 229.618 231.292V231.285Z" fill="black"/>
        <path d="M156.38 205.827C157.558 202.934 152.971 198.333 146.134 195.55C139.297 192.767 132.8 192.856 131.623 195.749C130.445 198.642 135.033 203.243 141.869 206.026C148.706 208.809 155.203 208.72 156.38 205.827Z" fill="#0C0C0C"/>
        <path d="M232.351 195.985C232.804 195.721 233.249 195.381 233.65 194.935C235.696 192.67 233.612 189.574 231.905 187.913C231.029 187.06 229.557 188.245 230.501 189.174C231.762 190.405 233.521 193.267 231.407 194.414C230.35 192.98 228.885 191.802 227.428 191.288C226.031 190.79 224.075 191.975 224.083 193.546C224.113 195.479 226.167 196.159 227.76 196.468C228.674 196.649 229.542 196.71 230.38 196.612C230.508 196.861 230.644 197.11 230.758 197.359C233.468 203.324 222.482 199.632 220.473 198.915C219.25 198.477 218.782 200.244 219.99 200.682C222.995 201.754 229.829 204.865 232.23 201.082C233.219 199.511 233.091 197.669 232.336 196L232.351 195.985ZM227.209 194.46C226.333 194.354 226.242 193.886 226.96 193.048C227.556 193.146 228.085 193.712 228.523 194.105C228.742 194.331 228.968 194.543 229.172 194.792C228.492 194.739 227.798 194.603 227.209 194.452V194.46Z" fill="black"/>
        <path d="M228.83 229.125C228.853 228.861 228.687 228.634 228.415 228.589C227.645 228.446 226.935 228.249 226.331 228C224.217 227.139 223.265 225.757 223.394 223.794C223.454 222.888 223.749 221.604 224.088 220.102C225.991 211.796 229.457 196.505 210.708 185.262C207.386 172.123 192.873 157.935 172.591 149.674C145.543 138.657 118.473 142.35 112.138 157.92C109.775 163.734 110.628 170.379 114.041 176.993C108.959 177.839 102.556 179.349 97.5043 182.03C97.3307 182.12 97.225 182.309 97.2401 182.506C97.4213 186.153 98.5539 191.484 102.903 196.173C102.986 196.278 103.122 196.331 103.243 196.331C109.125 196.618 116.178 196.203 124.212 195.093C124.793 195.856 126.772 198.4 129.8 201.843C129.905 201.972 130.072 202.04 130.23 202.017C134.066 201.647 137.872 201.73 140.877 201.927C143.482 203.323 146.216 204.622 149.07 205.808L157.776 217.489C155.45 218.682 152.898 219.52 150.172 220.004C149.983 220.049 149.817 220.192 149.764 220.389C149.719 220.57 149.795 220.781 149.953 220.91C157.331 226.633 164.708 231.013 171.859 233.927C183.721 238.76 195.04 239.576 205.49 236.351C205.86 236.57 206.706 237.031 207.922 237.529C211.599 239.024 218.969 240.935 226.988 236.91C227.101 236.85 227.184 236.759 227.237 236.623C228.068 234.381 228.604 231.859 228.83 229.118V229.125Z" fill="#0C0C0C"/>
        <mask id="mask0_1443_22233" style="mask-type:luminance" maskUnits="userSpaceOnUse" x="97" y="143" width="132" height="97">
            <path d="M228.832 229.125C228.855 228.861 228.688 228.634 228.417 228.589C227.646 228.446 226.937 228.249 226.333 228C224.218 227.139 223.267 225.757 223.395 223.794C223.456 222.888 223.75 221.604 224.09 220.102C225.993 211.796 229.459 196.505 210.71 185.262C207.387 172.123 192.874 157.935 172.592 149.674C145.545 138.657 118.475 142.35 112.14 157.92C109.776 163.734 110.629 170.379 114.042 176.993C108.961 177.839 102.557 179.349 97.5058 182.03C97.3321 182.12 97.2264 182.309 97.2415 182.506C97.4228 186.153 98.5554 191.484 102.905 196.173C102.988 196.278 103.124 196.331 103.245 196.331C109.127 196.618 116.179 196.203 124.214 195.093C124.795 195.856 126.773 198.4 129.801 201.843C129.907 201.972 130.073 202.04 130.232 202.017C134.068 201.647 137.873 201.73 140.878 201.927C143.484 203.323 146.217 204.622 149.071 205.808L157.777 217.489C155.452 218.682 152.9 219.52 150.174 220.004C149.985 220.049 149.819 220.192 149.766 220.389C149.721 220.57 149.796 220.781 149.955 220.91C157.332 226.633 164.709 231.013 171.86 233.927C183.723 238.76 195.041 239.576 205.492 236.351C205.862 236.57 206.708 237.031 207.923 237.529C211.601 239.024 218.97 240.935 226.99 236.91C227.103 236.85 227.186 236.759 227.239 236.623C228.069 234.381 228.605 231.859 228.832 229.118V229.125Z" fill="white"/>
        </mask>
        <g mask="url(#mask0_1443_22233)">
            <path d="M218.888 200.188C225.364 184.279 205.136 161.01 173.707 148.216C142.277 135.422 111.549 137.947 105.072 153.857C98.596 169.767 118.824 193.036 150.253 205.83C181.683 218.624 212.411 216.098 218.888 200.188Z" fill="black"/>
            <path d="M102.551 179.289C102.551 179.289 127.643 203.784 138.108 207.861L153.406 209.107L160.633 201.911L132.83 171.579L102.551 179.281V179.289Z" fill="black"/>
        </g>
        <path d="M159.034 217.777C159.072 217.633 159.034 217.482 158.943 217.361L150.743 206.367C149.844 206.058 148.953 205.725 148.07 205.37C147.088 204.97 146.099 204.54 145.14 204.064C144.891 204.26 144.544 204.336 144.159 204.185C141.418 203.09 138.495 202.335 135.973 200.757C134.108 200.757 132.122 200.825 130.144 201.021C125.832 201.436 122.208 202.35 119.361 203.709C119.165 203.815 119.052 204.026 119.074 204.238C119.505 207.522 120.524 212.264 122.986 216.282C123.039 216.372 123.129 216.448 123.212 216.485C123.786 216.727 124.383 216.984 125.002 217.241C131.45 219.868 141.085 222.662 150.343 221.016C153.386 220.48 156.217 219.506 158.777 218.124C158.906 218.056 158.996 217.928 159.019 217.792L159.034 217.777Z" fill="#0C0C0C"/>
        <path d="M119.585 204.169C118.03 204.916 116.641 205.838 115.485 206.978L119.102 209.545C119.102 209.545 116.24 212.769 116.973 212.883C117.207 212.92 119.638 214.355 123.421 216.016C121.028 212.113 120.008 207.491 119.585 204.176V204.169Z" fill="black"/>
        <path d="M123.23 216.484H123.215C120.716 215.382 118.76 214.363 117.711 213.811C117.227 213.555 116.941 213.411 116.812 213.358C116.548 213.253 116.404 213.094 116.359 212.898C116.321 212.709 116.185 212.143 118.353 209.636L115.189 207.401C115.068 207.31 114.992 207.174 114.985 207.023C114.962 206.872 115.023 206.729 115.121 206.623C116.253 205.505 117.681 204.524 119.357 203.701C119.5 203.64 119.674 203.655 119.825 203.716C119.968 203.799 120.067 203.935 120.089 204.101C120.505 207.28 121.494 211.886 123.865 215.744C123.97 215.941 123.955 216.182 123.804 216.348C123.661 216.515 123.427 216.567 123.23 216.484ZM117.454 212.543C117.65 212.641 117.884 212.754 118.179 212.92C119.017 213.351 120.414 214.083 122.226 214.921C120.459 211.523 119.614 207.786 119.183 204.954C118.081 205.535 117.114 206.2 116.291 206.94L119.402 209.152C119.515 209.235 119.606 209.356 119.614 209.5C119.636 209.658 119.583 209.794 119.485 209.9C118.655 210.836 117.741 212.007 117.454 212.55V212.543Z" fill="black"/>
        <path d="M97.7435 182.482C96.0898 183.366 94.5645 184.37 93.296 185.518C93.296 185.518 94.0662 187.209 97.6529 190.041C97.6529 190.041 96.4598 195.213 97.5321 195.281C98.0078 195.311 99.8276 195.666 103.278 195.832C99.0951 191.317 97.9323 186.19 97.7435 182.475V182.482Z" fill="black"/>
        <path d="M97.2436 195.735C96.4054 195.395 96.3526 193.545 97.085 190.253C93.6418 187.489 92.8489 185.805 92.8263 185.73C92.7281 185.533 92.781 185.292 92.9395 185.141C94.1779 184.031 95.7107 182.989 97.5079 182.037C97.6664 181.962 97.8477 181.962 97.9987 182.045C98.1573 182.143 98.2554 182.286 98.263 182.46C98.4291 185.941 99.5089 191.023 103.647 195.493C103.783 195.652 103.82 195.87 103.737 196.059C103.639 196.24 103.458 196.361 103.247 196.346C100.634 196.225 98.9576 195.999 98.0666 195.87C97.7948 195.833 97.5985 195.803 97.5003 195.795C97.4474 195.795 97.2965 195.757 97.2436 195.735ZM93.9287 185.624C94.3289 186.22 95.4238 187.632 97.9685 189.641C98.1195 189.762 98.1875 189.958 98.1422 190.147C97.674 192.193 97.4626 194.292 97.6589 194.776C97.7873 194.791 97.9685 194.813 98.2025 194.851C98.9274 194.942 100.196 195.123 102.091 195.251C98.6783 191.136 97.5683 186.643 97.2813 183.306C95.9901 184.031 94.8726 184.808 93.9212 185.616L93.9287 185.624Z" fill="black"/>
        <path d="M218.192 175.521C207.757 201.156 197.933 221.377 143.052 199.034C95.2776 179.583 95.2851 155.367 105.721 129.732C116.156 104.096 147.628 98.8935 178.678 111.534C209.735 124.182 228.627 149.885 218.192 175.521Z" fill="#0C0C0C"/>
        <mask id="mask1_1443_22233" style="mask-type:luminance" maskUnits="userSpaceOnUse" x="100" y="104" width="122" height="105">
            <path d="M218.19 175.521C207.755 201.156 197.931 221.377 143.051 199.034C95.2757 179.583 95.2833 155.367 105.719 129.732C116.154 104.096 147.626 98.8935 178.676 111.534C209.733 124.182 228.626 149.885 218.19 175.521Z" fill="white"/>
        </mask>
        <g mask="url(#mask1_1443_22233)">
            <path d="M224.533 167.343C211.667 153.827 180.036 132.458 164.624 125.738C149.386 119.093 132.14 111.655 116.494 109.028L133.899 104.55C170.023 106.219 210.096 135.569 221.702 151.275L224.541 167.351L224.533 167.343Z" fill="#31FF76"/>
            <mask id="mask2_1443_22233" style="mask-type:luminance" maskUnits="userSpaceOnUse" x="116" y="104" width="109" height="64">
                <path d="M224.534 167.343C211.667 153.827 180.037 132.458 164.625 125.738C149.387 119.093 132.141 111.655 116.495 109.028L133.9 104.55C170.024 106.219 210.097 135.569 221.703 151.275L224.542 167.351L224.534 167.343Z" fill="white"/>
            </mask>
            <g mask="url(#mask2_1443_22233)">
                <path d="M160.74 109.148C160.74 109.148 146.077 110.273 139.719 116.027C133.361 121.781 124.534 113.218 124.534 113.218L117.836 109.654L135.407 98.3203L148.176 98.6903L154.005 104.399L160.748 109.141L160.74 109.148Z" fill="#22D358"/>
                <path d="M206.203 120.527C206.203 120.527 197.995 150.414 193.245 151.879C188.496 153.344 218.994 153.321 218.994 153.321L223.306 143.958L215.989 129.067L206.203 120.527Z" fill="#22D358"/>
            </g>
        </g>
        <path d="M152.452 108.189C152.377 107.766 150.489 98.0556 145.8 96.1452C145.437 95.9942 145.067 95.9112 144.69 95.8507C139.782 95.2165 120.647 99.2864 116.842 103.56C116.192 104.278 115.958 105.003 116.14 105.72C116.351 106.558 116.955 107.962 117.846 109.654C118.443 110.877 119.22 112.38 120.172 114.071C121.47 116.299 123.026 118.881 125.095 121.396C126.137 122.649 127.262 123.903 128.614 125.005C129.943 126.085 131.506 127.119 133.409 127.376C133.854 127.421 134.405 127.444 134.851 127.27C135.425 127.097 135.817 126.84 136.18 126.553C136.912 125.979 137.509 125.299 138.022 124.612C139.072 123.223 139.895 121.766 140.657 120.331C142.153 117.454 143.232 114.66 144.169 112.259C144.38 111.685 144.576 111.141 144.758 110.613C145.188 109.692 145.513 108.989 145.694 108.589L151.863 108.869C152.044 108.869 152.21 108.801 152.324 108.665C152.445 108.529 152.49 108.355 152.46 108.181L152.452 108.189Z" fill="#151515"/>
        <mask id="mask3_1443_22233" style="mask-type:luminance" maskUnits="userSpaceOnUse" x="116" y="95" width="37" height="33">
            <path d="M152.455 108.189C152.38 107.766 150.492 98.0556 145.803 96.1452C145.44 95.9942 145.07 95.9112 144.693 95.8507C139.785 95.2165 120.651 99.2864 116.845 103.56C116.196 104.278 115.961 105.003 116.143 105.72C116.354 106.558 116.958 107.962 117.849 109.654C118.446 110.877 119.223 112.38 120.175 114.071C121.474 116.299 123.029 118.881 125.098 121.396C126.14 122.649 127.265 123.903 128.617 125.005C129.946 126.085 131.509 127.119 133.412 127.376C133.857 127.421 134.408 127.444 134.854 127.27C135.428 127.097 135.82 126.84 136.183 126.553C136.915 125.979 137.512 125.299 138.025 124.612C139.075 123.223 139.898 121.766 140.661 120.331C142.156 117.454 143.236 114.66 144.172 112.259C144.383 111.685 144.58 111.141 144.761 110.613C145.191 109.692 145.516 108.989 145.697 108.589L151.866 108.869C152.047 108.869 152.214 108.801 152.327 108.665C152.448 108.529 152.493 108.355 152.463 108.181L152.455 108.189Z" fill="white"/>
        </mask>
        <g mask="url(#mask3_1443_22233)">
            <g style="mix-blend-mode:multiply" opacity="0.7">
                <path d="M120.17 114.072C120.17 114.072 128.56 127.127 133.875 126.01C139.191 124.892 147.309 103.651 147.309 103.651L141.102 125.67L137.334 128.471L125.048 132.526L120.986 128.637L117.46 121.819L120.465 113.558" fill="#151515"/>
            </g>
        </g>
        <path d="M229.953 149.614C230.21 143.898 219.352 127.618 215.395 124.643C215.086 124.424 214.761 124.228 214.398 124.084C209.709 122.174 201.577 127.807 201.23 128.056C201.086 128.154 200.988 128.313 200.988 128.494C200.98 128.668 201.048 128.834 201.177 128.962L205.783 133.07C205.632 133.493 205.352 134.255 205.005 135.267C204.786 135.743 204.56 136.241 204.325 136.762C203.306 139.126 202.128 141.889 201.192 144.993C200.731 146.548 200.293 148.172 200.074 149.901C199.969 150.754 199.916 151.645 200.044 152.574C200.105 153.034 200.21 153.495 200.49 154.016C200.709 154.454 201.109 154.824 201.449 155.096C202.997 156.244 204.831 156.591 206.538 156.749C208.275 156.9 209.966 156.795 211.574 156.621C214.806 156.266 217.721 155.504 220.213 154.816C222.153 154.25 223.814 153.699 225.113 153.231C226.857 152.657 228.209 152.098 228.926 151.66C229.561 151.275 229.893 150.588 229.953 149.629V149.614Z" fill="#151515"/>
        <mask id="mask4_1443_22233" style="mask-type:luminance" maskUnits="userSpaceOnUse" x="199" y="123" width="31" height="34">
            <path d="M229.955 149.614C230.211 143.898 219.353 127.618 215.396 124.643C215.087 124.424 214.762 124.228 214.4 124.084C209.71 122.174 201.578 127.807 201.231 128.056C201.087 128.154 200.989 128.313 200.989 128.494C200.982 128.668 201.049 128.834 201.178 128.962L205.784 133.07C205.633 133.493 205.353 134.255 205.006 135.267C204.787 135.743 204.561 136.241 204.327 136.762C203.307 139.126 202.129 141.889 201.193 144.993C200.732 146.548 200.294 148.172 200.075 149.901C199.97 150.754 199.917 151.645 200.045 152.574C200.106 153.034 200.211 153.495 200.491 154.016C200.71 154.454 201.11 154.824 201.45 155.096C202.998 156.244 204.832 156.591 206.539 156.749C208.276 156.9 209.967 156.795 211.575 156.621C214.807 156.266 217.722 155.504 220.214 154.816C222.154 154.25 223.816 153.699 225.114 153.231C226.859 152.657 228.21 152.098 228.928 151.66C229.562 151.275 229.894 150.588 229.955 149.629V149.614Z" fill="white"/>
        </mask>
        <g mask="url(#mask4_1443_22233)">
            <g style="mix-blend-mode:multiply" opacity="0.7">
                <path d="M204.196 135.147L209.285 126.999C209.285 126.999 199.763 147.976 201.425 152.589C203.093 157.203 213.34 156.372 213.34 156.372L197.128 157.339L195.686 149.267L199.537 139.805L204.196 135.139V135.147Z" fill="#151515"/>
            </g>
        </g>
        <path d="M114.575 134.95C112.544 134.119 110.286 135.441 109.984 137.615C108.459 148.534 114.447 159.506 125.124 163.855C137.16 168.756 150.805 163.462 156.498 152.023L114.583 134.957L114.575 134.95Z" fill="white"/>
        <mask id="mask5_1443_22233" style="mask-type:luminance" maskUnits="userSpaceOnUse" x="109" y="134" width="48" height="32">
            <path d="M114.575 134.95C112.544 134.119 110.287 135.441 109.984 137.615C108.459 148.534 114.447 159.506 125.124 163.855C137.16 168.756 150.805 163.462 156.498 152.023L114.583 134.957L114.575 134.95Z" fill="white"/>
        </mask>
        <g mask="url(#mask5_1443_22233)">
            <path d="M135.293 147.718C137.985 141.106 137.248 134.557 133.649 133.092C130.049 131.626 124.948 135.799 122.256 142.412C119.565 149.024 120.301 155.573 123.901 157.038C127.5 158.504 132.601 154.331 135.293 147.718Z" fill="#0C0C0C"/>
        </g>
        <path d="M144.453 147.114C140.534 159.279 146.605 172.599 158.641 177.499C169.318 181.849 181.263 178.171 187.795 169.299C189.094 167.532 188.407 165.01 186.368 164.179L144.453 147.114Z" fill="white"/>
        <mask id="mask6_1443_22233" style="mask-type:luminance" maskUnits="userSpaceOnUse" x="143" y="147" width="46" height="33">
            <path d="M144.455 147.114C140.536 159.279 146.607 172.599 158.643 177.499C169.32 181.849 181.266 178.171 187.797 169.299C189.096 167.532 188.409 165.01 186.37 164.179L144.455 147.114Z" fill="white"/>
        </mask>
        <g mask="url(#mask6_1443_22233)">
            <path d="M171.927 162.636C174.619 156.024 173.883 149.475 170.283 148.01C166.683 146.544 161.583 150.717 158.891 157.33C156.199 163.942 156.935 170.491 160.535 171.956C164.135 173.422 169.235 169.249 171.927 162.636Z" fill="#0C0C0C"/>
        </g>
        <path d="M130.147 201.014C130.147 201.014 168.763 219.385 191.189 214.326C213.616 209.267 196.399 211.2 196.399 211.2L178.836 212.846L153.57 207.266L140.636 201.15L136.09 199.994L131.22 198.394L130.147 201.021V201.014Z" fill="black"/>
        <path d="M203.834 161.951C203.834 161.951 201.75 164.979 201.184 165.893C200.617 166.806 200.897 168.007 201.81 168.581C202.724 169.147 203.993 168.906 204.498 167.954C205.654 165.779 203.842 161.951 203.842 161.951H203.834Z" fill="white"/>
        <path d="M205.913 159.415C205.913 159.415 206.525 161.763 206.737 162.443C206.948 163.122 207.673 163.5 208.352 163.288C209.032 163.077 209.455 162.337 209.198 161.673C208.609 160.155 205.913 159.407 205.913 159.407V159.415Z" fill="white"/>
        <path d="M143.134 176.886C143.822 174.909 143.138 172.874 141.606 172.341C140.074 171.807 138.274 172.977 137.586 174.954C136.897 176.931 137.581 178.967 139.113 179.5C140.645 180.034 142.445 178.863 143.134 176.886Z" fill="white"/>
        <path d="M87.3978 115.765C84.3715 117.477 81.1399 118.597 77.7837 119.089C73.8867 119.669 70.0717 119.399 66.4424 118.299C62.9885 117.248 59.837 115.477 57.0711 113.033C54.5382 110.789 52.4634 108.05 50.913 104.901L48.3814 99.7399C47.9676 99.9215 47.5462 100.09 47.1136 100.239C45.3794 102.049 43.4121 103.659 41.2252 105.045C40.7719 105.336 40.2934 105.615 39.8251 105.88C36.659 107.671 33.2075 108.924 29.5551 109.61C25.2172 110.422 20.9964 110.364 17.0101 109.449C13.1489 108.559 9.74769 106.378 7.43213 103.295C5.24232 100.385 4.11238 96.7892 4.20888 93.1106C2.76373 91.5177 1.52851 89.6926 0.525215 87.6577C-2.50112 81.475 -2.80839 74.75 -0.369385 68.1833C1.81288 62.3208 6.01824 57.2788 11.7906 53.6211C12.2789 53.3101 12.7816 53.0083 13.2778 52.7276C15.0111 51.7473 16.8025 50.935 18.6418 50.3052C19.6019 49.3605 20.6536 48.5124 21.7941 47.7888L30.7928 42.088C31.2079 41.827 31.6268 41.5727 32.0391 41.3395C33.3601 40.5924 34.7269 39.959 36.1257 39.4474C37.2211 38.2689 38.466 37.2243 39.8437 36.349L53.2613 27.8434C53.5334 27.672 53.8022 27.5113 54.0748 27.3571C54.2635 27.2504 54.4522 27.1437 54.6484 27.0502C55.076 26.7297 55.5111 26.4225 55.9611 26.1418L69.3788 17.6361C69.6438 17.4687 69.9197 17.304 70.1922 17.1498C70.381 17.0431 70.5697 16.9364 70.7659 16.8429C71.1935 16.5225 71.6285 16.2153 72.0786 15.9345L79.8147 11.0352C80.268 10.7439 80.7395 10.4684 81.2078 10.2036C85.7298 7.64607 90.5472 6.34489 95.5402 6.33286C101.084 6.31522 106.203 7.86457 110.759 10.9119C114.822 13.6437 118.037 17.3535 120.325 21.9539C120.34 21.9804 120.355 22.0068 120.374 22.0399C121.985 25.3291 122.97 28.8325 123.323 32.4578C123.676 36.1002 123.386 39.7137 122.481 43.186C121.534 46.7957 119.927 50.2019 117.709 53.3254C116.572 54.9202 115.304 56.3971 113.897 57.7428C114.536 58.6918 115.118 59.6896 115.639 60.7401C115.642 60.7467 115.699 60.8631 115.699 60.8631C118.519 66.6648 119.111 73.0453 117.41 79.3172C116.581 82.3705 115.243 85.2405 113.456 87.8057C113.945 94.0525 110.833 100.424 105.008 104.12L99.6368 107.524C99.3648 107.696 99.0959 107.856 98.8234 108.01C97.5933 108.706 96.2916 109.259 94.95 109.66C93.1443 111.703 91.0504 113.481 88.6785 114.979C88.2564 115.244 87.8306 115.503 87.4113 115.74L87.3978 115.765Z" fill="#151515"/>
        <path d="M85.3516 15.8265C88.5442 14.0209 91.9375 13.0385 95.4429 12.9116L96.1454 12.898L96.1489 12.8983C100.314 12.8927 104.199 14.0644 107.66 16.3855L108.251 16.796C111.159 18.8889 113.469 21.683 115.163 25.082L115.185 25.1211L115.205 25.1608C116.506 27.819 117.303 30.6419 117.586 33.5547L117.587 33.5551C117.873 36.468 117.648 39.3445 116.923 42.0972L116.924 42.0975C116.182 44.9263 114.925 47.5901 113.191 50.0308L113.19 50.0313C111.373 52.5833 109.096 54.7333 106.433 56.4211L104.19 57.842C106.758 59.5801 108.834 61.9952 110.323 64.97L110.377 65.0652L110.397 65.1066C112.493 69.4083 112.99 74.1271 111.843 78.7583L111.727 79.2055C110.831 82.5179 109.183 85.4577 106.892 87.8795C108.475 92.3786 106.597 97.4849 102.383 100.157L102.382 100.157L96.8569 103.66L96.8551 103.659C96.6717 103.783 96.4989 103.883 96.376 103.953C94.9779 104.743 93.4318 105.216 91.8615 105.351C90.2017 107.738 88.1014 109.747 85.592 111.334L85.5886 111.336C85.2811 111.529 84.9554 111.723 84.6415 111.901C82.4102 113.163 80.0392 113.992 77.5707 114.356L77.5694 114.356C74.7238 114.773 71.9224 114.584 69.2603 113.777C66.6966 113 64.3465 111.668 62.2727 109.833L62.2704 109.83C60.3276 108.105 58.7211 105.986 57.524 103.545L51.4871 91.2445L46.7608 94.2406L46.759 94.2394C46.5756 94.3631 46.4027 94.4634 46.2798 94.5329C45.161 95.1656 43.9493 95.5915 42.7074 95.8061C41.0771 97.8634 39.0907 99.6325 36.7971 101.089L36.7958 101.088C36.4393 101.319 36.0681 101.539 35.7118 101.741C33.2408 103.138 30.5239 104.12 27.6563 104.659L27.6524 104.66C24.2896 105.282 21.0114 105.263 17.9264 104.549L17.4794 104.437C12.9116 103.181 9.88437 99.005 10.1946 94.2602L10.1941 94.2593L10.3637 91.6749C8.44334 90.1628 6.86748 88.1912 5.69519 85.8088L5.69327 85.8054C3.44067 81.2014 3.21171 76.1854 5.01518 71.3435C6.68953 66.837 9.85496 63.1187 14.3119 60.293L14.905 59.9273C15.103 59.8093 15.3008 59.6956 15.4949 59.5857C17.4546 58.4774 19.4978 57.6572 21.5771 57.1421C22.3749 56.0444 23.3944 55.0669 24.6134 54.2962L33.8716 48.4305L33.8767 48.4276C34.1831 48.2352 34.4939 48.0494 34.8018 47.8752C36.4168 46.9619 38.0944 46.2967 39.8031 45.8791C40.6431 44.5779 41.7848 43.4258 43.1771 42.5392L43.1792 42.5369L56.9844 33.7866L56.9849 33.7874C57.1686 33.6635 57.3423 33.564 57.4654 33.4944C57.7739 33.3199 58.0963 33.1576 58.4247 33.0124C58.8416 32.6483 59.2835 32.3236 59.7406 32.0303L59.7469 32.0256L73.5522 23.2753L73.5527 23.2761C73.7364 23.1522 73.9101 23.0526 74.0331 22.983C74.3417 22.8085 74.6644 22.6472 74.9929 22.5019C75.4097 22.1379 75.8504 21.8127 76.3075 21.5194L76.3147 21.5143L84.2748 16.4737L84.2753 16.4745C84.6371 16.2411 85.0008 16.0249 85.3516 15.8265Z" stroke="#31FF76" stroke-width="3" stroke-miterlimit="10"/>
        <path d="M31.2878 92.5046C29.7233 93.4973 27.9778 94.17 26.0553 94.5296C24.1327 94.8892 22.353 94.8805 20.7271 94.5063L21.1586 87.9192C22.4206 88.2207 23.7158 88.2788 25.0585 88.0854C26.4051 87.8988 27.5484 87.5038 28.4955 86.8962C29.1953 86.4555 29.7323 85.9451 30.0994 85.3691C30.4665 84.7932 30.5472 84.2983 30.3196 83.879C30.1289 83.4747 29.7294 83.3053 29.1211 83.3709C28.5128 83.4364 27.4859 83.6847 26.0519 84.1364C20.6662 85.7898 17.0628 84.7551 15.2314 81.0471C14.191 78.9222 14.0808 76.7473 14.9049 74.5293C15.7289 72.3113 17.3591 70.4279 19.7922 68.8901C21.3064 67.9259 22.8341 67.3044 24.3638 67.0053C25.8973 66.713 27.2639 66.7127 28.4712 67.0182L28.3052 73.4372C27.4258 73.2248 26.4498 73.2108 25.3777 73.4128C24.3057 73.6149 23.3408 73.9898 22.4867 74.5268C21.8012 74.9594 21.2958 75.425 20.9886 75.9222C20.6813 76.4194 20.6096 76.8463 20.781 77.2165C20.9717 77.6208 21.4043 77.7984 22.0866 77.7629C22.7689 77.7274 23.6399 77.5223 24.7002 77.1652C25.091 77.034 25.4531 76.9191 25.7903 76.8272C26.1274 76.7353 26.6138 76.622 27.2571 76.5007C27.9037 76.3686 28.5009 76.3004 29.0484 76.2783C29.5958 76.2561 30.2216 76.2885 30.9223 76.3864C31.623 76.4842 32.2567 76.6649 32.8234 76.9284C33.39 77.192 33.9458 77.5874 34.5052 78.1066C35.0646 78.6257 35.5253 79.2726 35.898 80.0321C36.5894 81.456 36.8481 82.9539 36.6741 84.5257C36.5001 86.0976 35.9364 87.5844 34.9973 88.978C34.0582 90.3717 32.8241 91.5459 31.2955 92.5182L31.2878 92.5046Z" fill="#00FF63"/>
        <path d="M39.3351 57.0199C41.4379 55.6868 43.5692 55.3439 45.7329 55.9979C47.9038 56.6479 49.554 58.1225 50.7017 60.4203C51.8317 62.7371 52.0607 65.1053 51.4035 67.5344C50.7463 69.9635 49.3646 71.8501 47.269 73.1791L43.537 75.5414L46.7748 82.1556L41.2487 85.6584L30.0841 62.8809L39.3423 57.0158L39.3351 57.0199ZM45.2575 65.8803C45.4037 65.2495 45.3202 64.6319 45.0212 64.0194C44.7222 63.4068 44.2978 63.0089 43.7515 62.8148C43.209 62.6275 42.6702 62.6986 42.1535 63.0268L38.5327 65.3172L40.6151 69.62L44.2608 67.3065C44.7775 66.9783 45.1146 66.5002 45.2536 65.8735L45.2575 65.8803Z" fill="#00FF63"/>
        <path d="M65.3781 48.3126L57.114 53.5526L58.2653 55.9742L65.6431 51.2983L68.5478 57.2564L61.1987 61.916L62.4265 64.456L70.8449 59.1197L73.7745 65.0547L59.83 73.8938L48.6654 51.1163L62.47 42.3654L65.3891 48.3153L65.3781 48.3126Z" fill="#00FF63"/>
        <path d="M81.9585 37.8116L73.6944 43.0516L74.8457 45.4732L82.2235 40.7973L85.1282 46.7554L77.7792 51.415L79.0069 53.955L87.4254 48.6187L90.355 54.5537L76.4104 63.3928L65.2458 40.6153L79.0504 31.8644L81.9695 37.8143L81.9585 37.8116Z" fill="#00FF63"/>
        <path d="M89.7658 25.0716C91.6927 23.847 93.6882 23.2305 95.738 23.2302C97.7951 23.2258 99.69 23.8073 101.434 24.9773C103.177 26.1474 104.577 27.7997 105.639 29.93C106.424 31.5349 106.899 33.1977 107.07 34.9429C107.237 36.6813 107.113 38.3417 106.695 39.9348C106.277 41.528 105.578 43.0105 104.594 44.3932C103.611 45.7759 102.388 46.9351 100.941 47.8518L92.9822 52.8925L81.8176 30.115L89.7768 25.0744L89.7658 25.0716ZM99.9551 33.5223C99.1905 31.9692 98.0982 30.9607 96.6963 30.4958C95.2873 30.0349 93.9153 30.2268 92.5698 31.0866L90.2623 32.5445L95.571 43.441L97.889 41.9683C99.224 41.1234 100.095 39.8942 100.49 38.2779C100.89 36.6683 100.712 35.0796 99.9584 33.5114L99.9551 33.5223Z" fill="#00FF63"/>
        <path d="M80.0844 102.752C78.8966 103.505 77.6642 103.977 76.3944 104.165C75.1174 104.357 73.9091 104.268 72.7555 103.923C71.609 103.574 70.5318 102.962 69.538 102.077C68.5443 101.193 67.7234 100.094 67.0792 98.787L60.2819 84.9229L65.8081 81.42L72.5874 95.1685C73.0535 96.1268 73.7109 96.7523 74.5741 97.0368C75.4373 97.3212 76.2816 97.2031 77.1176 96.6674C77.9573 96.1385 78.4945 95.3766 78.7366 94.3951C78.9787 93.4136 78.8701 92.4328 78.4184 91.4664L71.6535 77.7097L77.1796 74.2069L83.9769 88.071C84.8349 89.8229 85.2491 91.6461 85.2086 93.5378C85.168 95.4295 84.6998 97.1858 83.8076 98.8135C82.9115 100.434 81.6743 101.754 80.0954 102.755L80.0844 102.752Z" fill="#00FF63"/>
        <path d="M89.4396 66.4466C91.5425 65.1136 93.6738 64.7706 95.8375 65.4247C98.0084 66.0747 99.6585 67.5492 100.806 69.847C101.936 72.1638 102.165 74.532 101.508 76.9612C100.851 79.3903 99.4692 81.2768 97.3736 82.6058L93.6415 84.9681L96.8794 91.5824L91.3532 95.0852L80.1886 72.3077L89.4468 66.4426L89.4396 66.4466ZM95.3582 75.3002C95.5044 74.6694 95.4209 74.0519 95.1219 73.4393C94.8229 72.8268 94.3986 72.4289 93.8522 72.2347C93.3097 72.0474 92.7709 72.1185 92.2542 72.4467L88.6334 74.7372L90.7158 79.0399L94.3615 76.7264C94.8782 76.3982 95.2153 75.9201 95.3543 75.2934L95.3582 75.3002Z" fill="#00FF63"/>
        <path opacity="0.5" d="M196.508 39.1933C199.012 40.0089 201.739 40.5438 203.679 39.4424C206.375 37.9132 205.598 33.7998 202.654 33.2588C204.121 30.2826 200.671 26.6439 197.535 29.0314C196.043 30.1657 195.188 31.5748 194.452 33.3243C195.013 31.4865 195.257 29.8366 194.855 27.9893C194.016 24.1403 189.028 24.6729 188.214 27.8898C185.621 26.3935 182.509 28.9733 183.421 31.9338C183.984 33.7601 185.671 34.9668 187.588 35.8592C185.541 35.3174 183.468 35.1628 181.855 36.189C179.239 37.8507 179.935 41.8315 182.879 42.3726C181.411 45.3482 184.863 48.9875 187.999 46.5999C189.491 45.4628 190.384 44.0366 191.153 42.2713C190.567 44.1022 190.294 45.7437 190.696 47.5924C191.534 51.4414 196.522 50.9088 197.336 47.6919C199.93 49.1882 203.189 46.5606 202.13 43.6479C201.366 41.5534 198.944 40.1934 196.509 39.1905L196.508 39.1933Z" fill="#225C35"/>
        <path opacity="0.5" d="M166.304 31.2164C167.648 31.6541 169.112 31.9412 170.153 31.3501C171.6 30.5293 171.183 28.3216 169.603 28.0312C170.39 26.4339 168.538 24.4809 166.855 25.7624C166.055 26.3712 165.596 27.1274 165.201 28.0664C165.502 27.08 165.633 26.1945 165.417 25.203C164.967 23.1372 162.29 23.4231 161.853 25.1496C160.461 24.3466 158.791 25.7311 159.28 27.3201C159.583 28.3003 160.488 28.9479 161.517 29.4269C160.418 29.1361 159.305 29.0532 158.44 29.6039C157.036 30.4958 157.409 32.6323 158.99 32.9227C158.202 34.5198 160.054 36.473 161.737 35.1916C162.538 34.5813 163.018 33.8158 163.43 32.8683C163.116 33.851 162.969 34.732 163.185 35.7243C163.635 37.7901 166.312 37.5042 166.749 35.7777C168.141 36.5807 169.89 35.1705 169.321 33.6072C168.912 32.4831 167.612 31.7531 166.305 31.2148L166.304 31.2164Z" fill="#225C35"/>
        <path opacity="0.5" d="M146.21 28.4328C147.05 28.7065 147.965 28.886 148.616 28.5164C149.521 28.0033 149.26 26.6231 148.272 26.4415C148.765 25.4429 147.607 24.2219 146.555 25.0231C146.054 25.4037 145.767 25.8765 145.52 26.4635C145.709 25.8469 145.791 25.2932 145.655 24.6734C145.374 23.3819 143.7 23.5606 143.427 24.64C142.557 24.1379 141.513 25.0036 141.819 25.997C142.008 26.6097 142.574 27.0147 143.217 27.3141C142.53 27.1323 141.835 27.0804 141.293 27.4247C140.416 27.9823 140.649 29.3181 141.637 29.4996C141.144 30.4981 142.303 31.7192 143.355 30.9181C143.856 30.5365 144.155 30.058 144.413 29.4656C144.217 30.08 144.125 30.6308 144.26 31.2511C144.541 32.5426 146.215 32.3639 146.488 31.2845C147.358 31.7865 148.452 30.9049 148.096 29.9275C147.84 29.2248 147.028 28.7684 146.21 28.4319L146.21 28.4328Z" fill="#225C35"/>
        <path opacity="0.5" d="M210.561 54.4917C213.884 55.5742 217.504 56.2841 220.078 54.8223C223.657 52.7926 222.626 47.3333 218.718 46.6152C220.665 42.6653 216.085 37.8358 211.923 41.0046C209.944 42.5101 208.809 44.3802 207.832 46.7022C208.577 44.263 208.901 42.0733 208.367 39.6214C207.254 34.513 200.633 35.2199 199.553 39.4894C196.111 37.5035 191.981 40.9274 193.191 44.8567C193.939 47.2806 196.178 48.8821 198.723 50.0665C196.006 49.3474 193.253 49.1424 191.112 50.5042C187.641 52.7097 188.565 57.9932 192.472 58.7113C190.524 62.6606 195.105 67.4907 199.267 64.3219C201.248 62.8127 202.433 60.9197 203.454 58.5768C202.676 61.0068 202.313 63.1854 202.846 65.6391C203.959 70.7475 210.58 70.0406 211.66 65.7711C215.102 67.757 219.428 64.2697 218.022 60.4039C217.009 57.6241 213.794 55.819 210.562 54.4879L210.561 54.4917Z" fill="#32FF76"/>
        <path opacity="0.5" d="M50.3888 191.588C55.2073 193.157 60.454 194.186 64.1865 192.067C69.3747 189.125 67.8797 181.21 62.2149 180.169C65.037 174.443 58.398 167.441 52.3643 172.035C49.4945 174.218 47.8489 176.929 46.4321 180.295C47.5126 176.759 47.9825 173.584 47.2081 170.03C45.5945 162.624 35.9967 163.649 34.4305 169.839C29.4408 166.96 23.4532 171.923 25.2079 177.62C26.292 181.134 29.5372 183.455 33.2267 185.173C29.2879 184.13 25.2976 183.833 22.194 185.807C17.162 189.004 18.5008 196.664 24.1655 197.705C21.3407 203.431 27.9825 210.433 34.0161 205.839C36.8878 203.651 38.6064 200.907 40.0859 197.51C38.9576 201.033 38.4316 204.191 39.205 207.749C40.8186 215.154 50.4164 214.13 51.9827 207.94C56.9724 210.819 63.2441 205.763 61.2052 200.159C59.7369 196.129 55.0766 193.512 50.3907 191.582L50.3888 191.588Z" fill="#32FF76"/>
        <path d="M219.113 73.536C222.264 69.9464 225.108 65.7851 224.661 61.7639C224.042 56.1757 216.631 54.5264 213.622 59.0455C209.712 54.471 201.179 57.6166 202.913 64.5514C203.736 67.8489 205.472 70.2828 207.86 72.7621C205.199 70.5108 202.625 68.9229 199.258 68.2713C192.243 66.9139 189.561 75.6079 194.339 79.267C189.989 82.5177 192.061 89.5501 197.648 90.1494C201.094 90.5177 204.312 88.5706 207.172 86.0139C204.804 89.0375 203.062 92.383 203.618 95.8055C204.515 101.353 211.647 103.043 214.656 98.524C218.564 103.1 227.1 99.9528 225.365 93.018C224.539 89.7169 222.801 87.2076 220.41 84.6626C223.041 86.9504 225.581 88.5809 228.95 89.2343C235.964 90.5917 238.647 81.8976 233.869 78.2385C238.218 74.9879 236.173 67.6751 230.56 67.3562C226.523 67.1288 222.523 70.1917 219.109 73.5323L219.113 73.536Z" fill="#32FF76"/>
        <g opacity="0.3">
            <path d="M23.8841 215C22.6266 212.063 20.9313 209.149 18.3573 208.266C14.7811 207.038 11.608 211.051 13.472 214.168C9.54744 215.223 8.95859 221.291 13.6799 222.23C15.9243 222.678 17.9115 222.325 20.1175 221.59C17.9703 222.555 16.2513 223.658 14.8692 225.509C11.9896 229.366 16.4857 233.483 20.1085 231.64C20.8092 235.205 25.6887 235.968 27.6893 232.758C28.9228 230.778 28.6826 228.271 27.967 225.807C29.1102 228.108 30.6325 230.121 32.8746 230.767C36.5079 231.815 39.6239 227.982 37.7599 224.864C41.6852 223.811 42.2733 217.742 37.552 216.803C35.3043 216.357 33.2707 216.689 31.0239 217.406C33.1848 216.47 34.9194 215.4 36.3032 213.548C39.1828 209.691 34.6867 205.574 31.0639 207.417C30.3632 203.852 25.3211 202.993 23.4831 206.299C22.1624 208.677 22.8515 211.977 23.8807 215.002L23.8841 215Z" fill="#225C35"/>
        </g>
        <g opacity="0.3">
            <path d="M25.4004 196.406C23.837 192.754 21.7293 189.131 18.5292 188.034C14.0831 186.507 10.1381 191.496 12.4556 195.371C7.57638 196.683 6.8443 204.227 12.714 205.394C15.5043 205.951 17.975 205.512 20.7176 204.598C18.048 205.798 15.9109 207.17 14.1926 209.471C10.6126 214.266 16.2023 219.385 20.7064 217.093C21.5775 221.526 27.6438 222.474 30.1311 218.484C31.6646 216.021 31.3661 212.905 30.4764 209.841C31.8977 212.702 33.7902 215.205 36.5777 216.008C41.0948 217.31 44.9688 212.545 42.6513 208.67C47.5314 207.36 48.2626 199.814 42.3929 198.647C39.5984 198.092 37.0702 198.505 34.2769 199.397C36.9633 198.233 39.1199 196.903 40.8403 194.6C44.4204 189.806 38.8306 184.687 34.3265 186.978C33.4554 182.546 27.1868 181.478 24.9018 185.588C23.2599 188.545 24.1165 192.647 25.3962 196.408L25.4004 196.406Z" fill="#32FF76"/>
        </g>
    </g>
    <defs>
        <clipPath id="clip0_1443_22233">
            <rect width="243" height="243" fill="white"/>
        </clipPath>
    </defs>
</svg>
