<svg width="243" height="243" viewBox="0 0 243 243" fill="none" xmlns="http://www.w3.org/2000/svg">
    <g clip-path="url(#clip0_1376_7657)">
        <path d="M192.049 16.6801C195.347 17.5636 197.964 19.4356 199.653 22.064L199.653 22.065C201.418 24.8165 201.653 27.5867 201.689 29.3256L201.696 30.0049C201.78 55.1036 199.481 82.7183 194.489 116.351L194.33 117.426L195.414 117.496C199.49 117.76 203.228 118.089 206.825 118.51C206.83 118.511 206.835 118.512 206.839 118.513C206.854 118.515 206.874 118.517 206.894 118.519C206.934 118.524 206.989 118.53 207.053 118.537C207.18 118.551 207.348 118.57 207.514 118.588C207.68 118.606 207.846 118.623 207.969 118.636C208.031 118.643 208.083 118.649 208.119 118.653C208.137 118.655 208.151 118.656 208.161 118.657C208.163 118.657 208.165 118.657 208.167 118.657C208.17 118.658 208.173 118.658 208.176 118.659L208.175 118.658C208.658 118.714 209.08 118.799 209.496 118.911C213.506 119.985 216.236 123.552 216.253 127.676L216.247 128.076C215.084 157.865 212.429 187.939 208.359 217.462L208.359 217.462C207.824 221.331 206.761 228.829 200.573 233.46L200.275 233.679C196.341 236.485 191.985 236.988 188.815 237.147L187.534 237.2C139.667 238.928 91.2015 237.572 43.4856 233.178L43.4835 233.179C42.3437 233.076 40.5021 232.903 38.5166 232.37L37.5158 232.102C34.1269 231 31.5039 229.12 29.6638 226.508L29.6647 226.509C27.2908 223.125 26.9635 219.488 26.7816 217.41C25.3573 201.06 24.9272 184.461 25.4876 168.008L25.6135 164.72L25.77 160.725C26.2705 147.485 26.7804 138.777 27.511 132.811C28.243 126.834 29.1847 123.731 30.4725 121.619L30.4756 121.615C31.3399 120.181 33.0702 118.24 36.3279 117.361C36.3494 117.356 36.3686 117.352 36.3804 117.35C36.3932 117.346 36.405 117.343 36.413 117.341C36.417 117.34 36.4203 117.339 36.4228 117.339C36.424 117.338 36.4253 117.338 36.4261 117.338L36.427 117.338L36.4282 117.337C37.0801 117.166 38.5025 116.781 44.532 116.354L45.4781 116.287L45.4611 115.339C45.3893 111.317 45.2993 107.453 45.22 103.89L45.2202 103.889C44.6168 77.0158 44.1015 53.8908 49.2176 23.5249L49.2186 23.5251C49.4392 22.2241 49.994 18.9815 52.6137 16.2992C55.5584 13.3003 59.1991 12.8605 60.6665 12.6841C75.3959 10.9407 90.0402 11.6136 104.291 12.2603L187.589 16.0633L187.594 16.0637C188.516 16.1018 190.186 16.1808 192.049 16.6801Z"
              fill="white" stroke="#201F22" stroke-width="2"/>
        <path d="M126.009 186.78C126.907 186.801 127.745 186.382 128.54 185.968C155.528 171.928 180.301 153.629 201.658 131.963C203.077 130.527 204.478 129.069 205.879 127.611C193.803 126.192 181.617 126.006 169.449 125.842C137.429 125.4 105.414 124.969 73.3941 124.527C65.6997 124.421 42.3626 125.231 38.7372 126.174C65.51 147.84 94.4418 166.77 123.283 185.642C124.116 186.183 125.007 186.748 126.001 186.778L126.009 186.78Z"
              fill="#151515"/>
        <path d="M124.717 188.861C123.615 188.566 122.707 187.972 122.048 187.543C93.6355 168.956 64.2524 149.735 37.3176 127.944C36.6547 127.408 36.3486 126.543 36.5305 125.712C36.7125 124.881 37.3459 124.22 38.1703 124.001C42.2004 122.946 66.2106 122.178 73.426 122.279L169.481 123.593C181.444 123.76 193.816 123.922 206.144 125.376C206.997 125.474 207.715 126.05 208.003 126.86C208.29 127.67 208.098 128.572 207.509 129.188C206.099 130.651 204.688 132.114 203.267 133.558C181.665 155.469 156.873 173.779 129.581 187.981C128.737 188.423 127.46 189.083 125.955 189.046C125.518 189.035 125.113 188.967 124.725 188.863L124.717 188.861ZM44.358 127.785C69.963 148.064 97.6828 166.196 124.521 183.758C124.978 184.059 125.673 184.506 126.06 184.52C126.407 184.532 127.033 184.203 127.487 183.966C154.362 169.986 178.769 151.955 200.045 130.381C200.371 130.045 200.705 129.711 201.031 129.375C190.435 128.393 179.771 128.24 169.42 128.106L73.3654 126.792C66.9782 126.702 52.3391 127.187 44.358 127.785Z"
              fill="#151515"/>
        <path d="M199.32 216.251C203.362 186.906 205.966 157.364 207.129 127.761C206.712 127.706 206.29 127.667 205.871 127.619C204.47 129.077 203.062 130.533 201.65 131.971C180.293 153.637 155.522 171.929 128.532 185.976C127.737 186.39 126.9 186.809 126.001 186.788C125.005 186.766 124.113 186.201 123.283 185.653C94.4396 166.788 65.5097 147.851 38.737 126.184C38.4743 126.252 38.309 126.322 38.2658 126.392C35.767 130.488 35.1387 155.696 34.7397 165.121C34.008 182.293 34.3883 199.511 35.8794 216.628C36.0183 218.237 36.1998 219.932 37.1263 221.247C38.6662 223.436 41.667 223.881 44.339 224.125C91.8191 228.497 139.576 229.831 187.221 228.113C189.92 228.013 192.79 227.853 194.986 226.283C198.039 224.103 198.82 219.97 199.33 216.245L199.32 216.251Z"
              fill="#151515"/>
        <path d="M40.3105 225.771C38.4711 225.278 36.5587 224.358 35.2835 222.55C33.9693 220.675 33.7682 218.446 33.6333 216.821C32.1428 199.672 31.7526 182.248 32.491 165.02C32.5425 163.885 32.5902 162.521 32.6504 160.99C33.4058 140.931 34.2539 128.645 36.3464 125.214C36.8746 124.337 37.7852 124.101 38.1782 124.002C38.8703 123.821 39.6102 123.979 40.1733 124.431C66.9329 146.086 96.2198 165.241 124.536 183.761C124.993 184.063 125.688 184.51 126.075 184.524C126.422 184.535 127.048 184.206 127.503 183.969C154.377 169.989 178.785 151.959 200.06 130.385C201.47 128.954 202.869 127.504 204.26 126.052C204.748 125.539 205.448 125.295 206.153 125.37L207.426 125.515C208.586 125.655 209.455 126.67 209.408 127.847C208.249 157.41 205.62 187.255 201.581 216.56C201.004 220.747 200.074 225.435 196.307 228.124C193.467 230.149 189.912 230.28 187.313 230.374C139.732 232.093 91.5637 230.747 44.1485 226.376C43.1459 226.286 41.7547 226.158 40.3257 225.775L40.3105 225.771ZM39.5045 129.694C38.0905 136.248 37.4231 153.91 37.1524 161.153C37.0902 162.692 37.0404 164.064 36.9965 165.201C36.2766 182.238 36.6549 199.464 38.1314 216.421C38.2579 217.865 38.4065 219.135 38.9808 219.94C39.9671 221.337 42.3703 221.671 44.5507 221.864C91.7754 226.217 139.751 227.553 187.141 225.847C189.765 225.752 192.068 225.579 193.677 224.438C195.984 222.791 196.634 219.332 197.098 215.929C200.91 188.233 203.468 160.047 204.697 132.083C204.225 132.568 203.743 133.058 203.271 133.542C181.669 155.453 156.877 173.763 129.585 187.965C128.741 188.407 127.465 189.067 125.959 189.03C124.284 188.989 122.948 188.109 122.06 187.529C94.4178 169.442 65.8522 150.758 39.5141 129.688L39.5045 129.694Z"
              fill="#151515"/>
        <path d="M179.31 152.306C186.341 112.87 192.704 70.1191 192.578 30.061C192.575 29.0092 192.546 27.9016 191.984 27.0179C191.025 25.5225 188.961 25.2873 187.184 25.2021C159.417 23.9371 131.65 22.6721 103.885 21.3995C89.8341 20.7547 75.7063 20.1219 61.7406 21.7729C60.8073 21.8812 59.7948 22.0417 59.1346 22.7121C58.5403 23.3186 58.3648 24.2166 58.2209 25.0579C51.1452 67.0314 55.1826 96.1702 54.7089 138.74L125.998 186.786L132.64 183.613L179.308 152.313L179.31 152.306Z"
              fill="#31FF76"/>
        <path d="M125.424 188.961C125.188 188.898 124.955 188.795 124.749 188.65L53.4609 140.603C52.8323 140.182 52.455 139.462 52.462 138.706C52.6033 126.109 52.3498 114.741 52.0958 103.741C51.499 77.2672 50.9865 54.4008 55.9952 24.6717C56.1478 23.7676 56.4041 22.264 57.5246 21.1223C58.7812 19.8378 60.472 19.6391 61.4798 19.5263C75.6635 17.8523 90.0619 18.5087 103.993 19.1458L187.292 22.9483C188.886 23.0171 192.201 23.1722 193.884 25.7983C194.825 27.2725 194.833 28.9447 194.838 30.0538C194.974 71.6219 188.186 115.383 181.534 152.704C181.428 153.312 181.073 153.844 180.568 154.181L133.9 185.481C133.811 185.538 133.715 185.594 133.613 185.64L126.97 188.813C126.476 189.047 125.925 189.095 125.409 188.957L125.424 188.961ZM56.9864 137.54L126.191 184.181L131.518 181.633L177.253 150.955C183.812 114.04 190.445 70.9215 190.316 30.056C190.318 29.47 190.31 28.588 190.074 28.2233C189.655 27.5654 187.78 27.4785 187.073 27.4437L103.774 23.6411C90.0282 23.0128 75.8148 22.3653 62.0001 23.9997C61.2848 24.085 60.8614 24.1752 60.7356 24.28C60.6051 24.4324 60.4862 25.15 60.4397 25.4145C55.503 54.723 56.0132 77.3851 56.5986 103.627C56.8408 114.307 57.0867 125.339 56.9753 137.521L56.9864 137.54Z"
              fill="#31FF76"/>
        <path d="M154.237 90.3972C167.212 88.5025 171.04 82.563 171.04 82.563C176.713 76.6385 176.51 67.2315 170.586 61.5523C167.296 58.3989 162.928 57.0639 158.724 57.5167C158.989 53.2971 157.465 48.9901 154.175 45.8436C148.25 40.1713 138.843 40.3743 133.164 46.2983C132.044 47.2921 131.037 48.3642 130.131 49.4718C126.893 53.4164 124.741 58.0911 123.752 63.0353C123.628 63.6525 122.75 63.6692 122.601 63.0592C121.401 58.1641 119.041 53.5846 115.64 49.7891C114.684 48.7208 113.634 47.6941 112.466 46.7559C106.542 41.0836 97.135 41.2867 91.4558 47.2106C88.3023 50.5003 86.9674 54.8682 87.4202 59.0728C83.2006 58.8074 78.8936 60.3314 75.7471 63.6216C70.0748 69.5461 70.2778 78.9531 76.2018 84.6323C76.2018 84.6323 80.2879 90.4014 93.3309 91.7282C80.356 93.6229 76.5275 99.5624 76.5275 99.5624C70.8552 105.487 71.0582 114.894 76.9822 120.573C80.2718 123.727 84.6397 125.061 88.8443 124.609C88.5789 128.828 90.103 133.135 93.3932 136.282C99.3176 141.954 108.725 141.751 114.404 135.827C115.524 134.833 116.531 133.761 117.437 132.654C118.067 131.88 118.664 131.083 119.206 130.261C119.701 129.526 120.843 129.975 120.693 130.848C119.943 135.218 118.289 140.3 115.381 145.126C114.162 147.15 114.964 149.78 117.117 150.758C118.82 151.535 121.13 152.372 124.168 153.063C126.269 153.543 128.354 152.219 128.847 150.126C129.722 146.405 130.768 140.073 130.26 132.293C130.22 131.635 131.039 131.308 131.466 131.814C131.62 131.993 131.774 132.164 131.927 132.343C132.883 133.412 133.933 134.438 135.101 135.376C141.025 141.049 150.432 140.846 156.112 134.922C159.265 131.632 160.6 127.264 160.147 123.06C164.367 123.325 168.674 121.801 171.82 118.511C177.493 112.586 177.29 103.179 171.366 97.5001C171.366 97.5001 167.28 91.731 154.237 90.4041L154.237 90.3972Z"
              fill="#151515"/>
        <path d="M106.925 116.253C115.014 116.868 122.07 110.81 122.686 102.721C123.302 94.632 117.243 87.5755 109.154 86.9599C101.065 86.3443 94.0087 92.4026 93.3931 100.492C92.7775 108.581 98.8359 115.637 106.925 116.253Z"
              fill="white"/>
        <path d="M107.251 112.093C112.809 112.516 117.658 108.353 118.081 102.795C118.504 97.2366 114.341 92.3877 108.783 91.9647C103.225 91.5417 98.3758 95.7047 97.9528 101.263C97.5298 106.821 101.693 111.67 107.251 112.093Z"
              fill="#151515"/>
        <path d="M134.233 113.498C142.322 114.114 149.379 108.056 149.995 99.9667C150.61 91.8776 144.552 84.8211 136.463 84.2055C128.374 83.5899 121.317 89.6483 120.702 97.7373C120.086 105.826 126.144 112.883 134.233 113.498Z"
              fill="white"/>
        <path d="M134.552 109.339C140.11 109.762 144.959 105.599 145.382 100.041C145.805 94.4827 141.642 89.6338 136.084 89.2108C130.525 88.7878 125.677 92.9507 125.254 98.5091C124.831 104.067 128.994 108.916 134.552 109.339Z"
              fill="#151515"/>
        <path d="M114.396 100.711C115.318 99.6329 114.98 97.832 113.642 96.6888C112.304 95.5457 110.473 95.4933 109.551 96.5717C108.63 97.6502 108.967 99.4511 110.305 100.594C111.643 101.737 113.475 101.79 114.396 100.711Z"
              fill="white"/>
        <path d="M141.763 98.3965C142.685 97.318 142.347 95.517 141.009 94.3739C139.672 93.2308 137.84 93.1783 136.918 94.2568C135.997 95.3352 136.335 97.1362 137.672 98.2793C139.01 99.4224 140.842 99.4749 141.763 98.3965Z"
              fill="white"/>
        <path d="M107.865 122.303C110.162 121.808 111.805 120.386 111.534 119.126C111.262 117.867 109.18 117.248 106.883 117.742C104.585 118.237 102.943 119.66 103.214 120.919C103.485 122.178 105.568 122.798 107.865 122.303Z"
              fill="#00FF63"/>
        <path d="M146.83 116.779C149.154 116.424 150.879 115.103 150.684 113.83C150.489 112.556 148.447 111.812 146.124 112.168C143.801 112.524 142.076 113.845 142.271 115.118C142.466 116.391 144.507 117.135 146.83 116.779Z"
              fill="#00FF63"/>
        <path d="M67.1205 220.408C64.9133 220.337 62.7256 219.854 60.6068 218.978C58.4757 218.096 56.7165 216.938 55.3653 215.549C55.0564 215.226 55.0414 214.719 55.3277 214.378L60.0875 208.822C60.25 208.633 60.4787 208.528 60.7232 208.517C60.7419 208.517 60.7544 208.518 60.7732 208.518C60.9983 208.526 61.2206 208.62 61.3779 208.788C62.2741 209.731 63.3696 210.505 64.6336 211.102C65.8915 211.693 67.1207 212.008 68.2774 212.045C69.0965 212.071 69.826 211.963 70.4407 211.726C70.6245 211.657 71.0563 211.464 71.0885 211.24C71.0885 211.24 71.0901 211.19 71.0968 211.178C71.0905 211.178 71.0185 211.081 70.7722 210.955C70.2118 210.668 69.1284 210.295 67.5658 209.838C60.9992 207.912 58.0864 204.47 58.9248 199.603C59.4008 196.858 60.8794 194.664 63.3152 193.071C65.6935 191.514 68.6462 190.782 72.0977 190.893C74.2423 190.962 76.1952 191.35 77.9003 192.049C79.6302 192.756 81.0217 193.67 82.0259 194.754C82.3162 195.07 82.3385 195.546 82.0711 195.882L77.674 201.449C77.5173 201.651 77.282 201.769 77.0313 201.779C77.0125 201.779 76.9875 201.778 76.9687 201.777C76.7374 201.77 76.5215 201.669 76.3642 201.501C75.7771 200.875 74.9618 200.342 73.955 199.922C72.9235 199.494 71.8732 199.26 70.829 199.227C70.0224 199.201 69.3623 199.293 68.8615 199.489C68.5063 199.634 68.3641 199.774 68.349 199.855C68.349 199.855 68.4007 200 68.782 200.213C69.3782 200.551 70.2567 200.874 71.3987 201.173C71.8705 201.295 72.2986 201.415 72.6826 201.54C73.0792 201.665 73.6109 201.87 74.3278 202.156C75.0507 202.448 75.6978 202.763 76.2568 203.094C76.8218 203.431 77.4274 203.87 78.0548 204.41C78.7064 204.975 79.2376 205.587 79.6362 206.232C80.0347 206.883 80.3352 207.662 80.5258 208.551C80.7222 209.452 80.7288 210.416 80.5588 211.425C80.237 213.261 79.4021 214.899 78.0865 216.303C76.7905 217.682 75.1668 218.738 73.2476 219.446C71.3538 220.143 69.297 220.459 67.1336 220.389L67.1205 220.408Z"
              fill="#32FF76"/>
        <path d="M72.0711 191.761C74.1157 191.826 75.9504 192.192 77.5754 192.851C79.194 193.516 80.4693 194.346 81.3888 195.339L76.9917 200.906C76.3138 200.184 75.4127 199.592 74.2825 199.117C73.1521 198.649 72.0087 198.393 70.8519 198.356C69.9266 198.327 69.147 198.433 68.5319 198.682C67.9105 198.932 67.5616 199.271 67.4853 199.7C67.3952 200.167 67.6821 200.589 68.3397 200.967C69.0036 201.345 69.9438 201.694 71.1728 202.016C71.626 202.13 72.0415 202.25 72.4133 202.368C72.785 202.487 73.3107 202.685 73.9965 202.964C74.6823 203.242 75.2865 203.531 75.8085 203.842C76.3306 204.153 76.8871 204.558 77.4778 205.072C78.0686 205.579 78.5333 206.12 78.8841 206.694C79.235 207.269 79.4949 207.947 79.6697 208.741C79.8383 209.535 79.8487 210.38 79.6946 211.283C79.397 212.951 78.6486 214.429 77.4431 215.717C76.2376 217.006 74.7356 217.978 72.9368 218.64C71.138 219.302 69.2133 219.597 67.1499 219.531C65.0865 219.465 62.9668 219.009 60.9408 218.168C58.9148 217.327 57.2657 216.247 55.9934 214.936L60.7531 209.38C61.7279 210.407 62.8967 211.239 64.272 211.878C65.6471 212.523 66.9757 212.859 68.2575 212.9C69.1954 212.931 70.0318 212.807 70.7607 212.524C71.4896 212.24 71.884 211.846 71.9565 211.342C72.0466 210.875 71.7837 210.485 71.1741 210.171C70.5583 209.857 69.438 209.465 67.8132 208.993C61.7116 207.208 59.0314 204.124 59.7853 199.741C60.2225 197.233 61.5568 195.248 63.7943 193.786C66.0318 192.324 68.7889 191.643 72.0715 191.748M72.1269 190.022C68.5003 189.906 65.377 190.689 62.8454 192.341C60.1987 194.071 58.5949 196.461 58.0735 199.449C57.6349 202.001 58.0221 205.149 61.1951 207.698C61.0709 207.669 60.9464 207.646 60.8151 207.642C60.7839 207.641 60.7463 207.64 60.7151 207.639C60.2201 207.654 59.7625 207.871 59.4376 208.243L54.6779 213.798C54.0927 214.48 54.1229 215.489 54.7469 216.135C56.1766 217.614 58.0401 218.838 60.2761 219.767C62.4875 220.683 64.7871 221.189 67.0944 221.263C69.4016 221.337 71.5342 220.998 73.5357 220.261C75.5816 219.507 77.3202 218.38 78.7072 216.897C80.1396 215.366 81.048 213.58 81.4002 211.576C81.5926 210.455 81.5833 209.378 81.3655 208.364C81.1529 207.38 80.8179 206.506 80.3658 205.772C79.9257 205.05 79.3343 204.368 78.6157 203.744C78.1164 203.308 77.6214 202.936 77.1495 202.62C77.6203 202.579 78.0597 202.343 78.3535 201.964L82.7506 196.397C83.2792 195.725 83.241 194.766 82.6602 194.141C81.5652 192.96 80.0757 191.98 78.2286 191.22C76.4247 190.48 74.3723 190.069 72.1214 189.997L72.1269 190.022ZM70.771 200.1C70.771 200.1 70.7835 200.1 70.7898 200.101C71.7276 200.131 72.6785 200.343 73.6112 200.729C74.1857 200.967 74.6839 201.239 75.0997 201.547C74.9516 201.479 74.7971 201.418 74.6426 201.357C73.9134 201.064 73.3569 200.853 72.9418 200.72C72.5391 200.588 72.0863 200.461 71.6022 200.333C71.2918 200.254 71.0189 200.177 70.771 200.1ZM68.3193 211.169C67.2751 211.135 66.1641 210.843 65.0172 210.305C64.0058 209.835 63.1174 209.237 62.3702 208.531C63.6585 209.342 65.2876 210.07 67.3339 210.668C67.9851 210.858 68.5119 211.018 68.9329 211.163C68.7384 211.176 68.5317 211.182 68.3254 211.175L68.3193 211.169Z"
              fill="#151515"/>
        <path d="M86.1357 220.534C85.8856 220.526 85.6452 220.412 85.4888 220.213C85.3325 220.014 85.2654 219.761 85.3045 219.518L88.5748 200.683L82.7098 200.495C82.4597 200.487 82.2255 200.373 82.0629 200.174C81.9003 199.975 81.8395 199.722 81.8786 199.48L83.0798 192.47C83.1561 192.041 83.529 191.734 83.9667 191.748L105.176 192.428C105.426 192.436 105.66 192.55 105.823 192.749C105.985 192.948 106.046 193.2 106.007 193.443L104.806 200.452C104.729 200.882 104.356 201.189 103.919 201.175L97.7912 200.979L94.4756 220.056C94.3992 220.486 94.0263 220.793 93.5886 220.779L86.1292 220.54L86.1357 220.534Z"
              fill="#32FF76"/>
        <path d="M105.15 193.296L103.948 200.305L97.0643 200.085L93.6246 219.909L86.1652 219.67L89.6049 199.846L82.7395 199.625L83.9407 192.616L105.15 193.296ZM105.205 191.558L83.9964 190.878C83.1273 190.85 82.3753 191.464 82.2288 192.323L81.0277 199.333C80.9428 199.831 81.0769 200.336 81.396 200.728C81.7152 201.12 82.1836 201.348 82.69 201.364L87.5546 201.52L84.4536 219.371C84.3687 219.869 84.5027 220.374 84.8156 220.766C85.1348 221.158 85.603 221.392 86.1095 221.409L93.5689 221.648C94.438 221.676 95.19 221.061 95.3362 220.208L98.5217 201.871L103.899 202.044C104.768 202.072 105.52 201.457 105.667 200.598L106.868 193.589C106.953 193.091 106.819 192.586 106.499 192.194C106.18 191.802 105.712 191.574 105.205 191.558Z"
              fill="#151515"/>
        <path d="M117.614 221.542C117.196 221.528 116.842 221.217 116.781 220.802L116.339 217.783L108.011 217.516L106.426 220.682C106.272 220.984 105.959 221.174 105.622 221.164L97.612 220.907C97.3119 220.897 97.0356 220.732 96.8875 220.47C96.7394 220.209 96.7308 219.89 96.877 219.625L111.228 193.109C111.387 192.82 111.694 192.642 112.019 192.652L120.81 192.934C121.216 192.947 121.564 193.246 121.638 193.643L126.671 220.781C126.719 221.039 126.648 221.306 126.472 221.507C126.303 221.708 126.049 221.819 125.786 221.81L117.62 221.548L117.614 221.542ZM115.046 209.129L114.416 204.753L112.257 209.04L115.046 209.129Z"
              fill="#32FF76"/>
        <path d="M120.772 193.796L125.805 220.934L117.639 220.673L117.089 216.931L107.472 216.622L105.634 220.288L97.624 220.031L111.975 193.514L120.766 193.796M110.862 209.865L116.052 210.031L114.879 201.901L110.862 209.865ZM120.828 192.058L112.037 191.776C111.38 191.755 110.768 192.105 110.449 192.689L96.0981 219.206C95.812 219.735 95.8166 220.373 96.119 220.896C96.4215 221.419 96.968 221.75 97.5682 221.769L105.578 222.026C106.253 222.048 106.885 221.673 107.186 221.07L108.523 218.402L115.57 218.628L115.909 220.93C116.033 221.76 116.732 222.39 117.576 222.417L125.742 222.679C126.268 222.695 126.775 222.474 127.114 222.072C127.458 221.67 127.6 221.142 127.505 220.62L122.472 193.482C122.323 192.676 121.635 192.084 120.816 192.058L120.828 192.058ZM113.644 208.214L113.945 207.61L114.032 208.227L113.638 208.214L113.644 208.214Z"
              fill="#151515"/>
        <path d="M141.933 222.322C141.564 222.31 141.246 222.069 141.132 221.721L138.611 213.854L137.655 213.823L136.335 221.398C136.259 221.827 135.886 222.135 135.448 222.121L127.989 221.881C127.739 221.873 127.499 221.759 127.342 221.56C127.186 221.361 127.119 221.109 127.158 220.866L131.817 194.039C131.894 193.609 132.267 193.302 132.704 193.316L144.816 193.704C146.835 193.769 148.615 194.283 150.118 195.226C151.646 196.183 152.768 197.502 153.448 199.145C154.122 200.769 154.295 202.571 153.958 204.506C153.649 206.324 152.921 207.972 151.785 209.407C150.82 210.621 149.643 211.622 148.272 212.392L151.712 221.447C151.816 221.719 151.775 222.024 151.605 222.263C151.434 222.502 151.161 222.637 150.867 222.628L141.92 222.341L141.933 222.322ZM142.577 205.75C143.071 205.766 143.501 205.617 143.893 205.292C144.286 204.96 144.518 204.554 144.597 204.044C144.705 203.402 144.521 203.077 144.371 202.891C144.136 202.596 143.834 202.461 143.39 202.446L139.657 202.327L139.062 205.644L142.576 205.756L142.577 205.75Z"
              fill="#32FF76"/>
        <path d="M144.79 194.568C146.659 194.628 148.284 195.093 149.665 195.957C151.045 196.822 152.041 197.993 152.657 199.471C153.273 200.949 153.421 202.575 153.114 204.342C152.828 206.023 152.167 207.529 151.117 208.854C150.066 210.178 148.763 211.213 147.199 211.964L150.916 221.747L141.968 221.46L139.26 213.011L136.934 212.937L135.484 221.252L128.025 221.013L132.684 194.186L144.796 194.574M138.03 206.475L142.551 206.62C143.263 206.643 143.897 206.419 144.45 205.955C145.003 205.491 145.341 204.894 145.452 204.172C145.575 203.45 145.445 202.838 145.054 202.344C144.663 201.849 144.114 201.588 143.42 201.566L138.937 201.422L138.03 206.469M144.845 192.83L132.734 192.441C131.865 192.414 131.113 193.028 130.967 193.881L126.307 220.708C126.223 221.206 126.357 221.711 126.669 222.103C126.982 222.495 127.457 222.729 127.963 222.745L135.423 222.984C136.286 223.012 137.044 222.398 137.19 221.545L138.24 215.532L140.306 221.983C140.527 222.685 141.169 223.168 141.907 223.192L150.854 223.479C151.436 223.498 151.989 223.227 152.323 222.75C152.664 222.279 152.74 221.668 152.532 221.123L149.352 212.747C150.547 211.984 151.597 211.041 152.472 209.93C153.698 208.379 154.487 206.596 154.82 204.629C155.187 202.544 154.993 200.578 154.256 198.796C153.5 196.988 152.27 195.534 150.582 194.478C148.944 193.449 147.015 192.893 144.839 192.823L144.845 192.83ZM140.382 203.214L143.364 203.31C143.602 203.318 143.65 203.375 143.692 203.427C143.728 203.472 143.8 203.562 143.74 203.879C143.686 204.215 143.566 204.431 143.334 204.623C143.109 204.817 142.888 204.891 142.606 204.882L140.099 204.801L140.382 203.208L140.382 203.214Z"
              fill="#151515"/>
        <path d="M159.05 222.873C158.8 222.865 158.559 222.751 158.403 222.552C158.247 222.353 158.179 222.1 158.219 221.858L161.489 203.022L155.624 202.834C155.374 202.826 155.14 202.712 154.977 202.513C154.814 202.314 154.754 202.062 154.793 201.819L155.994 194.81C156.07 194.38 156.443 194.073 156.881 194.087L178.09 194.767C178.34 194.775 178.574 194.889 178.737 195.088C178.899 195.287 178.96 195.54 178.921 195.783L177.72 202.792C177.643 203.221 177.27 203.528 176.833 203.514L170.705 203.318L167.39 222.396C167.313 222.825 166.94 223.132 166.503 223.118L159.043 222.879L159.05 222.873Z"
              fill="#32FF76"/>
        <path d="M178.064 195.636L176.862 202.645L169.978 202.425L166.539 222.249L159.079 222.01L162.519 202.185L155.654 201.965L156.855 194.956L178.064 195.636ZM178.119 193.898L156.91 193.218C156.041 193.19 155.289 193.804 155.143 194.663L153.942 201.672C153.857 202.171 153.991 202.676 154.31 203.068C154.629 203.46 155.098 203.687 155.604 203.704L160.469 203.86L157.368 221.711C157.283 222.209 157.417 222.714 157.73 223.106C158.049 223.498 158.517 223.732 159.024 223.748L166.483 223.988C167.352 224.015 168.104 223.401 168.25 222.548L171.436 204.211L176.813 204.384C177.682 204.412 178.434 203.797 178.581 202.938L179.782 195.929C179.867 195.431 179.733 194.926 179.413 194.534C179.094 194.142 178.626 193.914 178.119 193.898Z"
              fill="#151515"/>
    </g>
    <defs>
        <clipPath id="clip0_1376_7657">
            <rect width="243" height="243" fill="white"/>
        </clipPath>
    </defs>
</svg>
