<svg width="200" height="200" viewBox="0 0 200 200" fill="none" xmlns="http://www.w3.org/2000/svg">
    <g clip-path="url(#clip0_1713_14658)">
        <path d="M42.6686 186.408C41.6539 186.239 40.6483 185.962 39.6756 185.599L39.649 185.595C39.5808 185.565 39.5125 185.536 39.4428 185.515C37.0393 184.577 34.8717 183.058 33.1593 181.123C32.9136 180.845 32.693 180.581 32.4903 180.319C32.1441 179.878 31.8143 179.395 31.5038 178.906C29.8864 176.303 29.0386 173.317 29.0444 170.264C29.0479 170.028 29.0515 169.791 29.0639 169.556C29.0997 168.86 29.1681 168.188 29.2868 167.542L46.7661 66.8446C47.9789 59.8628 51.0264 53.2868 55.5851 47.8375C59.9949 42.564 65.7184 38.4482 72.1326 35.9243C74.3786 35.0402 75.9607 33.1613 76.3564 30.8842L76.3865 30.7069L74.9356 30.4654L79.1606 6.11694L116.708 12.5142L112.483 36.8626L111.37 36.6774L111.341 36.8458C110.955 39.1243 111.801 41.4167 113.62 42.9958C118.815 47.4892 122.822 53.2706 125.2 59.6925C127.66 66.3377 128.323 73.5405 127.11 80.5224L109.631 181.22C109.465 182.195 109.199 183.172 108.846 184.116C108.709 184.494 108.568 184.836 108.422 185.158C108.366 185.276 108.31 185.385 108.254 185.503L108.209 185.605C108.164 185.707 108.112 185.799 108.069 185.892C107.784 186.437 107.461 186.994 107.094 187.535C106.947 187.756 106.779 187.993 106.601 188.228C106.436 188.446 106.262 188.663 106.1 188.864C102.352 193.364 96.4597 195.564 90.7185 194.608L42.6834 186.428L42.6686 186.408Z" fill="white"/>
        <path d="M106.489 35.5314L108.357 24.7724L83.2922 20.5133L81.4242 31.2723C80.7196 35.304 77.915 38.6217 74.0944 40.1201C62.8361 44.5488 54.0471 54.5582 51.8337 67.2385L34.3052 167.953C33.2295 174.112 37.41 180.004 43.5845 181.058L91.51 189.21C97.6844 190.264 103.608 186.079 104.684 179.92L122.212 79.2055C124.418 66.5149 119.514 54.1831 110.4 46.2848C107.308 43.6096 105.786 39.5542 106.482 35.521L106.489 35.5314Z" fill="#31FF76"/>
        <path d="M82.9733 11.8442L80.4395 26.3652L108.115 31.0645L110.649 16.5435L82.9733 11.8442Z" fill="#151515"/>
        <path d="M51.3896 70.1807L34.2546 168.394C33.1759 174.554 37.3552 180.448 43.531 181.501L91.4672 189.647C97.643 190.7 103.57 186.512 104.649 180.352L121.784 82.1387L51.3985 70.1822L51.3896 70.1807Z" fill="#151515"/>
        <path d="M75.5239 139.683C89.2907 141.968 102.356 132.685 104.707 118.95C107.057 105.215 97.8019 92.2284 84.035 89.9443C70.2681 87.6602 57.2026 96.9431 54.8523 110.678C52.5021 124.413 61.757 137.399 75.5239 139.683Z" fill="white"/>
        <path d="M77.3636 128.891C85.156 130.184 92.5514 124.929 93.8818 117.155C95.2121 109.381 89.9735 102.03 82.1811 100.737C74.3887 99.4445 66.9933 104.699 65.663 112.473C64.3327 120.248 69.5712 127.598 77.3636 128.891Z" fill="#0C0C0C"/>
        <path d="M87.1232 111.908C88.5462 111.43 89.2868 109.82 88.7773 108.312C88.2679 106.804 86.7013 105.969 85.2783 106.448C83.8553 106.926 83.1147 108.536 83.6241 110.044C84.1336 111.552 85.7001 112.386 87.1232 111.908Z" fill="white"/>
        <g filter="url(#filter0_d_1713_14658)">
            <path d="M187.039 136.851C182.511 118.69 150.758 110.834 116.117 119.305C81.477 127.776 57.0663 149.365 61.5946 167.526C66.123 185.687 97.8756 193.542 132.516 185.071C167.157 176.601 191.567 155.011 187.039 136.851Z" fill="#00FF63"/>
            <path d="M108.494 127.933C111.448 126.951 114.513 126.069 117.592 125.319C133.39 121.458 148.936 121.025 161.376 124.101C172.426 126.833 179.396 131.886 181.002 138.328C182.454 144.136 179.402 151.123 172.411 158.006C164.808 165.495 153.335 172.044 140.097 176.444C137.143 177.426 134.078 178.308 130.999 179.058C115.201 182.919 99.6546 183.353 87.2149 180.277C76.1648 177.545 69.195 172.491 67.5894 166.049C66.1367 160.241 69.1889 153.254 76.1803 146.371C83.7829 138.882 95.2565 132.333 108.494 127.933ZM107.21 124.135C78.6721 133.621 59.9598 152.052 63.6946 167.002C65.6824 174.958 73.6963 181.047 86.2619 184.157C99.3174 187.385 115.55 186.952 131.968 182.938C135.152 182.161 138.322 181.251 141.379 180.235C169.917 170.749 188.629 152.319 184.894 137.368C182.906 129.413 174.892 123.323 162.327 120.213C149.271 116.985 133.039 117.419 116.621 121.433C113.437 122.21 110.267 123.119 107.21 124.135Z" fill="#0C0C0C"/>
            <path d="M99.6127 147.503C99.7168 148.441 99.5877 149.342 99.2322 150.205C98.8744 151.06 98.3289 151.811 97.6069 152.446L101.073 157.106L96.2466 158.284L93.5185 154.184L92.2674 154.493L92.7513 159.141L88.7263 160.121L87.1471 145.126L93.6835 143.532C94.6903 143.289 95.6272 143.289 96.4988 143.547C97.3705 143.804 98.0784 144.276 98.6272 144.974C99.1829 145.671 99.506 146.513 99.6058 147.506L99.6127 147.503ZM91.5984 148.061L91.8766 150.886L94.3171 150.288C94.703 150.19 95.0061 149.983 95.2356 149.648C95.4651 149.314 95.5483 148.952 95.5034 148.549C95.4584 148.146 95.295 147.844 95.0108 147.634C94.7267 147.425 94.3951 147.368 94.0161 147.463L91.5961 148.054L91.5984 148.061Z" fill="black"/>
            <path d="M108.24 155.614C107.375 155.826 106.55 155.864 105.755 155.741C104.966 155.616 104.265 155.347 103.663 154.939C103.06 154.532 102.562 153.983 102.171 153.3C101.78 152.617 101.532 151.841 101.447 150.981L100.484 141.858L104.509 140.878L105.488 149.935C105.55 150.568 105.801 151.039 106.245 151.362C106.69 151.685 107.213 151.77 107.825 151.62C108.437 151.47 108.918 151.135 109.277 150.621C109.636 150.107 109.785 149.533 109.73 148.898L108.765 139.837L112.79 138.857L113.753 147.98C113.876 149.131 113.712 150.242 113.275 151.314C112.835 152.379 112.171 153.298 111.292 154.054C110.406 154.811 109.393 155.33 108.24 155.614Z" fill="black"/>
            <path d="M123.836 136.137L127.861 135.157L129.441 150.154L125.415 151.134L119.795 144.636L120.608 152.305L116.583 153.285L115.003 138.288L119.029 137.308L124.649 143.806L123.836 136.137Z" fill="black"/>
            <path d="M143.705 131.269L138.554 139.886L145.623 146.184L140.416 147.457L136.335 143.548L135.495 144.936L135.886 148.567L131.86 149.547L130.28 134.55L134.306 133.57L134.892 139.24L138.606 132.521L143.701 131.278L143.705 131.269Z" fill="black"/>
            <path d="M154.123 128.706L158.612 127.611L154.322 138.972L154.835 143.907L150.81 144.886L150.29 139.954L143.878 131.205L148.459 130.086L151.915 135.054L154.13 128.704L154.123 128.706Z" fill="black"/>
            <path d="M105.921 176.822C104.839 177.09 103.795 177.133 102.795 176.971C101.793 176.803 100.924 176.461 100.17 175.944C99.4158 175.427 98.7915 174.731 98.2945 173.87C97.7975 173.009 97.4967 172.031 97.3805 170.945C97.2241 169.492 97.4154 168.099 97.9633 166.747C98.5112 165.396 99.3388 164.239 100.453 163.277C101.567 162.314 102.844 161.655 104.294 161.302C105.653 160.972 106.93 160.966 108.12 161.285C109.312 161.611 110.308 162.214 111.123 163.091L107.88 166.158C107.49 165.748 107.027 165.462 106.478 165.302C105.929 165.143 105.344 165.147 104.716 165.295C103.695 165.543 102.875 166.111 102.266 166.99C101.65 167.871 101.402 168.849 101.509 169.931C101.614 171.005 102.058 171.822 102.814 172.369C103.58 172.92 104.469 173.073 105.494 172.816C106.12 172.661 106.674 172.386 107.167 171.972C107.659 171.558 108.048 171.064 108.34 170.488L112.034 171.859C111.449 173.079 110.621 174.121 109.555 175C108.489 175.878 107.275 176.479 105.912 176.817L105.921 176.822Z" fill="black"/>
            <path d="M124.703 161.983C124.807 162.921 124.678 163.822 124.323 164.684C123.965 165.54 123.419 166.291 122.698 166.926L126.164 171.586L121.337 172.763L118.609 168.663L117.356 168.966L117.84 173.613L113.815 174.593L112.235 159.599L118.772 158.005C119.779 157.762 120.716 157.762 121.587 158.02C122.459 158.277 123.167 158.748 123.716 159.447C124.271 160.144 124.594 160.986 124.694 161.978L124.703 161.983ZM116.689 162.541L116.967 165.365L119.408 164.767C119.794 164.669 120.097 164.462 120.326 164.128C120.556 163.793 120.639 163.432 120.594 163.029C120.549 162.626 120.386 162.323 120.101 162.114C119.817 161.904 119.486 161.847 119.107 161.943L116.687 162.534L116.689 162.541Z" fill="black"/>
            <path d="M136.365 157.716L130.349 159.183L130.497 160.767L135.864 159.455L136.267 163.37L130.921 164.674L131.09 166.343L137.224 164.845L137.643 168.761L127.491 171.237L125.912 156.243L135.963 153.786L136.374 157.698L136.365 157.716Z" fill="black"/>
            <path d="M153.693 149.448L157.852 148.431L155.026 164.508L151.022 165.488L148.12 157.636L146.954 166.482L142.963 167.458L136.963 153.537L141.221 152.495L144.429 161.051L145.705 151.401L149.204 150.551L152.413 159.106L153.688 149.457L153.693 149.448Z" fill="black"/>
        </g>
    </g>
    <defs>
        <filter id="filter0_d_1713_14658" x="57.0537" y="115.896" width="134.526" height="80.5859" filterUnits="userSpaceOnUse" color-interpolation-filters="sRGB">
            <feFlood flood-opacity="0" result="BackgroundImageFix"/>
            <feColorMatrix in="SourceAlpha" type="matrix" values="0 0 0 0 0 0 0 0 0 0 0 0 0 0 0 0 0 0 127 0" result="hardAlpha"/>
            <feOffset dy="4"/>
            <feGaussianBlur stdDeviation="2"/>
            <feComposite in2="hardAlpha" operator="out"/>
            <feColorMatrix type="matrix" values="0 0 0 0 0 0 0 0 0 0 0 0 0 0 0 0 0 0 0.25 0"/>
            <feBlend mode="normal" in2="BackgroundImageFix" result="effect1_dropShadow_1713_14658"/>
            <feBlend mode="normal" in="SourceGraphic" in2="effect1_dropShadow_1713_14658" result="shape"/>
        </filter>
        <clipPath id="clip0_1713_14658">
            <rect width="200" height="200" fill="white"/>
        </clipPath>
    </defs>
</svg>
