<svg viewBox="0 0 21 21" fill="none" xmlns="http://www.w3.org/2000/svg">
<path d="M14.9423 11.3351L8.69229 17.5851C8.63422 17.6432 8.56528 17.6892 8.48941 17.7207C8.41354 17.7521 8.33223 17.7683 8.2501 17.7683C8.16798 17.7683 8.08666 17.7521 8.01079 17.7207C7.93492 17.6892 7.86598 17.6432 7.80792 17.5851C7.74985 17.527 7.70378 17.4581 7.67236 17.3822C7.64093 17.3064 7.62476 17.225 7.62476 17.1429C7.62476 17.0608 7.64093 16.9795 7.67236 16.9036C7.70378 16.8277 7.74985 16.7588 7.80792 16.7007L13.6165 10.8929L7.80792 5.08511C7.69064 4.96784 7.62476 4.80878 7.62476 4.64293C7.62476 4.47707 7.69064 4.31801 7.80792 4.20074C7.92519 4.08346 8.08425 4.01758 8.2501 4.01758C8.41596 4.01758 8.57502 4.08346 8.69229 4.20074L14.9423 10.4507C15.0004 10.5088 15.0465 10.5777 15.078 10.6536C15.1094 10.7295 15.1256 10.8108 15.1256 10.8929C15.1256 10.9751 15.1094 11.0564 15.078 11.1323C15.0465 11.2081 15.0004 11.2771 14.9423 11.3351Z" fill="#E5E5EA"/>
</svg>
