<svg width="666" height="231" viewBox="0 0 666 231" fill="none" xmlns="http://www.w3.org/2000/svg">
    <path d="M580.436 76.8359L580.496 77.1104L595.607 145.215L629.325 77.0312L629.422 76.8359H664.587L664.308 77.3525L595.588 204.382C591.38 212.396 585.821 218.728 578.911 223.376C572.002 228.024 564.762 230.35 557.21 230.35C552.087 230.35 546.938 229.329 541.755 227.281V227.28C536.571 225.242 532.214 222.484 528.673 219.032L528.47 218.835L528.622 218.595L544.05 194.177L544.304 193.773L544.612 194.138C547.563 197.617 551.374 199.359 556.076 199.359C561.276 199.359 565.458 196.723 568.64 191.357L568.642 191.354L572.576 184.875L544.635 77.2744L544.521 76.8359H580.436ZM216.276 76.8359L216.22 77.2354L207.579 138.541L207.58 138.542C206.829 144.622 208.044 149.46 211.155 153.103C214.265 156.743 218.766 158.584 224.727 158.584C230.685 158.584 235.685 156.743 239.769 153.069C243.853 149.395 246.3 144.532 247.111 138.453V138.452L255.55 77.1387L255.592 76.8359H287.062L287.008 77.2344L277.951 142.851C276.015 156.908 269.784 168.218 259.258 176.771H259.257C248.722 185.322 235.735 189.585 220.3 189.585H220.29C204.999 189.585 193.236 185.322 185.058 176.74C176.876 168.154 173.77 156.811 175.706 142.755L184.762 77.1387L184.804 76.8359H216.276ZM121.695 36.4014C136.559 36.4014 148.341 41.2631 156.967 51.0303C165.593 60.7978 168.875 72.949 166.826 87.4639C165.41 97.8848 161.343 107.126 154.611 115.213L154.613 115.215C148.013 123.14 139.873 128.97 130.191 132.717C135.044 136.356 142.913 143.279 148.939 154.507C156.526 168.647 157.085 181.915 156.953 188.118L156.945 188.461H120.73L120.698 188.146C120.063 181.878 118.279 171.779 112.622 160.798C106.29 148.519 98.0362 140.805 92.9658 136.727C88.3986 136.807 83.8314 136.897 79.2637 136.987C77.7918 143.271 74.3067 154.394 65.5039 165.347C54.4672 179.06 41.2518 184.836 35.1836 187.046L34.9912 187.116L34.8359 186.982C29.3253 182.24 23.8144 177.5 18.3037 172.761C12.7932 168.021 7.28209 163.282 1.77148 158.54L1.28711 158.122L1.89941 157.939C9.35371 155.709 21.8451 150.719 32.0459 139.096V139.095C38.3974 131.866 42.5017 123.607 46.9824 106.614L47.0518 106.354H111.383C116.479 106.354 121.006 104.592 124.977 101.035C128.946 97.4786 131.276 93.0754 131.964 87.8027L131.965 87.7998C132.724 82.3883 131.614 77.9407 128.68 74.418V74.4189C125.736 70.9063 121.706 69.1367 116.539 69.1367H54.3271L54.3789 68.7412C55.6438 59.1021 56.6057 48.421 56.9902 36.7402L57.001 36.4014H121.695ZM373.16 74.2139C385.584 74.2139 395.083 78.028 401.618 85.71L402.218 86.4375C408.285 94.0304 410.435 103.969 408.698 116.225L399.024 186.659L398.982 186.962H367.51L367.566 186.563L376.005 126.715C376.816 120.146 375.627 114.938 372.483 111.05C369.344 107.167 364.684 105.204 358.452 105.204C352.215 105.204 346.655 107.1 342.166 110.891H342.165C337.675 114.672 334.846 119.736 333.694 126.094L325.258 186.66L325.216 186.962H293.745L293.801 186.563L309.025 77.1367L309.067 76.835H340.541L340.483 77.2344L339.08 86.9766C348.728 78.4703 360.099 74.2139 373.16 74.2139ZM473.585 31.6631L473.53 32.0605L461.84 116.983L502.253 76.9365L502.355 76.835H542.311V77.1953L542.542 77.4375L490.289 127.445L528.918 186.42L529.272 186.962H487.907L487.804 186.806L464.684 151.939L455.817 160.37L452.237 186.659L452.196 186.962H420.725L420.779 186.564L442.072 31.9648L442.114 31.6631H473.585ZM167.058 0.650391C177.943 0.650592 186.756 9.63833 186.756 20.7119C186.756 31.7855 177.943 40.7732 167.058 40.7734C156.173 40.7734 147.359 31.7856 147.359 20.7119C147.359 9.6382 156.173 0.650391 167.058 0.650391Z" fill="#32FF76" stroke="#32FF76" stroke-width="0.7"/>
</svg>
