<svg width="296" height="296" viewBox="0 0 296 296" fill="none" xmlns="http://www.w3.org/2000/svg">
    <rect width="296" height="296" rx="37" fill="black"/>
    <path d="M218.973 96.5045C229.33 96.5045 237.725 88.1089 237.725 77.7523C237.725 67.3957 229.33 59 218.973 59C208.616 59 200.221 67.3957 200.221 77.7523C200.221 88.1089 208.616 96.5045 218.973 96.5045Z" fill="#32FF76"/>
    <path d="M206.642 167.449C213.132 159.801 217.049 151.063 218.414 141.206C220.387 127.481 217.226 116.023 208.94 106.814C200.653 97.6046 189.333 93.0098 175.009 93.0098H112.635C112.262 104.133 111.33 114.305 110.102 123.485H170.011C175.107 123.485 179.113 125.203 182.038 128.629C184.954 132.066 186.044 136.395 185.298 141.618C184.621 146.714 182.323 150.975 178.416 154.411C174.508 157.847 170.041 159.556 165.014 159.556H102.925C98.5761 175.746 94.5802 183.659 88.3753 190.59C78.4297 201.714 66.2555 206.486 59 208.616C69.6819 217.639 80.3639 226.652 91.0458 235.674C96.8973 233.583 109.641 228.114 120.284 215.135C128.894 204.62 132.232 193.938 133.616 188.038C138.172 187.949 142.727 187.861 147.283 187.782C152.212 191.66 160.311 199.053 166.516 210.864C172.024 221.36 173.762 231.011 174.38 237H208.841C208.969 231.129 208.429 218.571 201.115 205.19C195.096 194.184 187.173 187.547 182.549 184.209C192.131 180.674 200.162 175.088 206.652 167.44L206.642 167.449Z" fill="#32FF76"/>
</svg>
