<svg width="91" height="90" viewBox="0 0 91 90" fill="none" xmlns="http://www.w3.org/2000/svg">
    <path opacity="0.54"
          d="M44.8164 85.3242C64.8815 85.3242 81.1475 69.0583 81.1475 48.9932C81.1475 28.9281 64.8815 12.6621 44.8164 12.6621C24.7513 12.6621 8.48535 28.9281 8.48535 48.9932C8.48535 69.0583 24.7513 85.3242 44.8164 85.3242Z"
          fill="#C1FFC8"/>
    <mask id="mask0_1622_14099" style="mask-type:luminance" maskUnits="userSpaceOnUse" x="8" y="12" width="74"
          height="74">
        <path d="M44.8164 85.3242C64.8815 85.3242 81.1475 69.0583 81.1475 48.9932C81.1475 28.9281 64.8815 12.6621 44.8164 12.6621C24.7513 12.6621 8.48535 28.9281 8.48535 48.9932C8.48535 69.0583 24.7513 85.3242 44.8164 85.3242Z"
              fill="white"/>
    </mask>
    <g mask="url(#mask0_1622_14099)">
        <path d="M5.14117 76.0657L4.98318 74.5983L2.22314 48.9948L10.2915 38.9043L77.6739 64.5213L71.7268 85.7074L63.3358 98.8151H28.0519L13.381 87.1983"
              fill="url(#paint0_linear_1622_14099)"/>
        <path d="M78.6272 62.8389C81.4157 54.0855 68.1598 42.0465 49.0193 35.949C29.8787 29.8516 12.1017 32.0046 9.31321 40.758C6.5247 49.5114 19.7806 61.5504 38.9212 67.6479C58.0617 73.7454 75.8387 71.5923 78.6272 62.8389Z"
              fill="#4BFF3B"/>
        <path d="M59.5834 69.4127C53.3422 69.4127 46.3647 68.2411 39.4075 66.0257C30.3743 63.1497 22.4169 58.855 16.9993 53.9349C11.9953 49.3915 9.76812 44.7673 10.8893 41.2492C11.5734 39.101 13.4207 37.378 16.3825 36.1258C19.4552 34.8264 23.5784 34.1406 28.3085 34.1406C34.5497 34.1406 41.5271 35.3122 48.4844 37.5276C57.5175 40.4037 65.4749 44.6984 70.8925 49.6184C75.8966 54.1619 78.1237 58.786 77.0026 62.3042C76.3184 64.4523 74.4711 66.1753 71.5094 67.4275C68.4367 68.7269 64.3134 69.4127 59.5834 69.4127Z"
              fill="url(#paint1_linear_1622_14099)"/>
        <path d="M65.5873 41.2096C64.8208 40.1607 63.8325 39.3556 62.6945 38.8328C62.7466 35.9282 61.1867 33.1026 58.5662 31.5965C55.5708 29.8753 52.0594 30.3627 49.4036 32.869C49.2876 32.9782 49.1733 33.0892 49.0607 33.2018C49.017 33.0505 48.9699 32.8976 48.9211 32.7446C47.7764 29.1878 44.8668 27.0699 41.3235 27.2161C38.3449 27.3388 35.7193 29.0466 34.3981 31.5612C33.0803 31.4671 31.7524 31.731 30.5018 32.3479C28.3452 33.4136 26.7366 35.4273 26.2004 37.7352C25.8054 39.4346 26.0037 41.1861 26.7736 42.7981C27.2442 43.7831 27.8763 44.6488 28.6175 45.4102C27.6006 45.7212 26.629 46.1733 25.7415 46.8104C24.1833 47.9282 23.1344 49.4847 22.7091 51.3135C22.1864 53.5626 22.6957 56.0285 24.074 57.9128C24.5279 58.5347 25.059 59.0676 25.6457 59.513C26.1728 59.9132 26.5147 60.024 26.7736 60.2139C27.0476 60.414 26.907 61.0269 27.1289 61.2639C27.8281 61.9262 28.5318 61.5654 29.2748 62.1789C29.3269 62.2209 29.379 62.2613 29.4311 62.3016C29.7488 62.2058 30.1068 62.2966 30.322 62.6899C30.364 62.7672 30.411 62.8412 30.4598 62.9135C31.0767 63.2043 31.7289 63.4144 32.3895 63.6833C33.4031 64.0968 34.1292 64.7221 34.8301 65.5357C36.3766 66.0904 37.965 66.5207 39.5585 66.9224C39.809 66.7308 40.0544 66.524 40.2914 66.2988C40.3956 66.1996 40.4998 66.1004 40.6007 65.9996C40.6494 66.166 40.6999 66.3341 40.7537 66.5039C40.8411 66.7779 40.9419 67.0418 41.0495 67.2973C42.522 67.6721 43.9826 68.0906 45.4383 68.5277C46.936 68.7966 48.3984 69.2068 49.8272 69.8236C49.9095 69.8589 49.9919 69.8926 50.0743 69.9262C50.9147 70.175 51.7585 70.4136 52.604 70.6422C53.7201 69.8959 54.6446 68.8874 55.2733 67.6923C56.5777 67.7881 57.8888 67.5326 59.1142 66.9275C61.2455 65.8735 62.8424 63.8514 63.3853 61.5166C63.7686 59.8727 63.6173 58.1582 62.95 56.5613C62.5382 55.5746 61.9683 54.6703 61.2371 53.845C62.2776 53.4701 63.2122 52.9491 64.0493 52.2834C65.51 51.1219 66.4984 49.5688 66.9119 47.7937C67.4397 45.5262 66.9421 43.0637 65.584 41.2079L65.5873 41.2096Z"
              fill="white"/>
        <path d="M59.9217 40.591C61.7943 35.5534 55.7043 30.2669 51.0718 34.6356C48.8681 36.7149 47.668 39.1623 46.7199 42.1358C47.3671 39.0883 47.5419 36.3989 46.6056 33.4875C44.6558 27.4262 36.7723 29.1206 35.9823 34.4356C31.6035 32.4588 26.8113 37.2359 28.9679 41.7492C30.5194 44.9967 34.604 46.7835 38.6533 47.9887C34.5233 47.0928 30.084 46.6877 27.1592 48.7838C23.0948 51.6985 24.9875 58.1935 29.7781 58.5734C29.3074 59.8424 29.341 61.1266 29.7293 62.268C29.9563 62.2865 30.1765 62.4109 30.3277 62.6865C30.3698 62.7638 30.4168 62.8378 30.4656 62.9101C31.0825 63.2009 31.7347 63.411 32.3953 63.6799C33.4089 64.0934 34.135 64.7187 34.8359 65.5323C35.2747 65.6886 35.715 65.8348 36.1588 65.9744C36.9925 65.7441 37.8313 65.2785 38.628 64.5271C40.83 62.4495 41.973 60.0374 42.8706 57.0958C42.2638 60.15 42.1361 62.8479 43.0724 65.7559C43.4186 66.8333 43.9548 67.6654 44.602 68.2755C44.8827 68.3579 45.1634 68.4403 45.4424 68.5243C46.6712 68.7445 47.873 69.0622 49.0547 69.5093C51.2768 69.0975 53.3124 67.3746 53.694 64.8078C58.0727 66.7846 62.6364 62.11 60.7084 57.4942C59.5183 54.6451 56.6339 52.9843 53.4301 51.8665C56.7852 52.3977 60.1234 52.2985 62.5389 50.3773C66.452 47.2642 64.7106 40.9676 59.9201 40.5877L59.9217 40.591Z"
              fill="#009904"/>
    </g>
    <path d="M76.9319 57.2725C76.8344 57.3515 76.7369 57.4086 76.6378 57.4456C77.2647 59.1786 77.369 60.8074 76.9084 62.2496C76.2243 64.3978 74.3769 66.1207 71.4152 67.373C68.3425 68.6723 64.2192 69.3582 59.4892 69.3582C53.248 69.3582 46.2705 68.1866 39.3133 65.9711C30.2801 63.0951 22.3227 58.8004 16.9052 53.8804C11.9011 49.3369 9.67393 44.7127 10.7951 41.1946C11.4792 39.0464 13.3265 37.3235 16.2883 36.0712C19.2551 34.8173 23.2018 34.1365 27.7268 34.0911C28.1403 33.4524 28.7085 32.8691 29.3455 32.4186C18.8785 32.1917 10.9749 35.0912 9.19319 40.6853C6.40457 49.4394 19.6618 61.4781 38.8023 67.5747C57.9427 73.6713 75.72 71.5164 78.5086 62.7623C79.1473 60.7586 78.944 58.5819 78.0211 56.3446C77.6631 56.6606 77.2984 56.9716 76.9286 57.2758L76.9319 57.2725Z"
          fill="#4BFF3B"/>
    <g opacity="0.61">
        <path d="M49.1723 23.3215C51.637 23.3215 53.635 22.2837 53.635 21.0035C53.635 19.7233 51.637 18.6855 49.1723 18.6855C46.7075 18.6855 44.7095 19.7233 44.7095 21.0035C44.7095 22.2837 46.7075 23.3215 49.1723 23.3215Z"
              fill="white"/>
        <path d="M34.6157 30.5598C39.9507 28.2323 43.5263 24.6279 42.602 22.5092C41.6777 20.3905 36.6035 20.5597 31.2684 22.8872C25.9333 25.2147 22.3577 28.8191 23.282 30.9378C24.2064 33.0565 29.2806 32.8873 34.6157 30.5598Z"
              fill="white"/>
    </g>
    <path d="M39.3389 55.5843L39.4209 54.9747C39.5576 54.1094 39.8857 53.2901 40.4052 52.5166C40.9383 51.73 41.5398 51.0614 42.2097 50.5108C42.8795 49.9471 43.5426 49.4227 44.1987 48.9377C44.8686 48.4526 45.4428 47.9741 45.9212 47.5022C46.3997 47.0302 46.6663 46.5845 46.721 46.165C46.7893 45.7455 46.6594 45.4112 46.3313 45.1621C46.0169 44.913 45.518 44.7885 44.8344 44.7885C43.0299 44.7885 41.1707 45.6472 39.2569 47.3645L34.8892 42.2518C36.5706 40.6786 38.3888 39.4725 40.3437 38.6335C42.3122 37.7945 44.3149 37.375 46.3518 37.375C49.1816 37.375 51.4236 38.1681 53.0777 39.7544C54.7318 41.3407 55.388 43.2612 55.0463 45.5161C54.8959 46.5255 54.5405 47.4694 53.98 48.3477C53.4195 49.2261 52.7906 49.9602 52.0934 50.5502C51.3963 51.1401 50.6991 51.6907 50.0019 52.202C49.3183 52.7001 48.7237 53.1852 48.2179 53.6571C47.7257 54.1291 47.4523 54.5683 47.3976 54.9747L47.3156 55.5843H39.3389ZM41.7791 66.1441C40.3847 66.1441 39.2842 65.6983 38.4777 64.8069C37.6848 63.9154 37.384 62.8011 37.5754 61.4639C37.7668 60.1398 38.3888 59.0321 39.4414 58.1406C40.5077 57.2361 41.7449 56.7838 43.153 56.7838C44.5473 56.7838 45.6478 57.2295 46.4544 58.121C47.2746 59.0124 47.589 60.1267 47.3976 61.4639C47.2199 62.788 46.5911 63.9023 45.5111 64.8069C44.4311 65.6983 43.1871 66.1441 41.7791 66.1441Z"
          fill="white"/>
    <defs>
        <linearGradient id="paint0_linear_1622_14099" x1="-13.5036" y1="47.8794" x2="77.6739" y2="68.8597"
                        gradientUnits="userSpaceOnUse">
            <stop stop-color="#76FF6D"/>
            <stop offset="0.24" stop-color="#76FF6D"/>
            <stop offset="1" stop-color="#009C0A"/>
        </linearGradient>
        <linearGradient id="paint1_linear_1622_14099" x1="43.9459" y1="4.05245" x2="43.9459" y2="70.7339"
                        gradientUnits="userSpaceOnUse">
            <stop stop-color="#82FF7D"/>
            <stop offset="1" stop-color="#118901"/>
        </linearGradient>
    </defs>
</svg>
