<svg viewBox="0 0 78 81" fill="none" xmlns="http://www.w3.org/2000/svg">
    <path opacity="0.54"
          d="M36.8164 80.6621C56.8815 80.6621 73.1475 64.3961 73.1475 44.3311C73.1475 24.266 56.8815 8 36.8164 8C16.7513 8 0.485352 24.266 0.485352 44.3311C0.485352 64.3961 16.7513 80.6621 36.8164 80.6621Z"
          fill="#C1FFC8"/>
    <mask id="mask0_284_1382" style="mask-type:luminance" maskUnits="userSpaceOnUse" x="0" y="8" width="74" height="73">
        <path d="M36.8164 80.6621C56.8815 80.6621 73.1475 64.3961 73.1475 44.3311C73.1475 24.266 56.8815 8 36.8164 8C16.7513 8 0.485352 24.266 0.485352 44.3311C0.485352 64.3961 16.7513 80.6621 36.8164 80.6621Z"
              fill="white"/>
    </mask>
    <g mask="url(#mask0_284_1382)">
        <path d="M-2.85932 71.4036L-3.01731 69.9362L-5.77734 44.3327L2.29099 34.2422L69.6734 59.8592L63.7263 81.0453L55.3353 94.153H20.0514L5.38048 82.5362"
              fill="url(#paint0_linear_284_1382)"/>
        <path d="M70.6267 58.1768C73.4153 49.4234 60.1593 37.3844 41.0188 31.2869C21.8782 25.1895 4.10124 27.3425 1.31272 36.0959C-1.47579 44.8493 11.7801 56.8883 30.9207 62.9858C50.0612 69.0833 67.8382 66.9302 70.6267 58.1768Z"
              fill="#4BFF3B"/>
        <path d="M51.5829 64.7516C45.3417 64.7516 38.3643 63.58 31.407 61.3645C22.3738 58.4885 14.4164 54.1938 8.99885 49.2738C3.9948 44.7303 1.76763 40.1062 2.88879 36.588C3.57292 34.4398 5.42022 32.7169 8.38197 31.4646C11.4547 30.1653 15.5779 29.4795 20.308 29.4795C26.5492 29.4795 33.5266 30.6511 40.4839 32.8665C49.517 35.7425 57.4745 40.0372 62.892 44.9572C67.8961 49.5007 70.1232 54.1249 69.0021 57.643C68.3179 59.7912 66.4706 61.5141 63.5089 62.7664C60.4362 64.0658 56.3129 64.7516 51.5829 64.7516Z"
              fill="url(#paint1_linear_284_1382)"/>
        <path d="M57.5873 36.5475C56.8208 35.4986 55.8325 34.6935 54.6945 34.1707C54.7466 31.2661 53.1867 28.4405 50.5662 26.9344C47.5708 25.2132 44.0594 25.7006 41.4036 28.2069C41.2876 28.3161 41.1733 28.4271 41.0607 28.5397C41.017 28.3884 40.9699 28.2354 40.9211 28.0825C39.7764 24.5257 36.8668 22.4077 33.3235 22.554C30.3449 22.6767 27.7193 24.3845 26.3981 26.8991C25.0803 26.805 23.7524 27.0689 22.5018 27.6858C20.3452 28.7515 18.7366 30.7652 18.2004 33.0731C17.8054 34.7725 18.0037 36.524 18.7736 38.136C19.2442 39.121 19.8763 39.9866 20.6175 40.7481C19.6006 41.0591 18.629 41.5112 17.7415 42.1483C16.1833 43.2661 15.1344 44.8226 14.7091 46.6514C14.1864 48.9005 14.6957 51.3664 16.074 53.2507C16.5279 53.8726 17.059 54.4054 17.6457 54.8509C18.1728 55.2511 18.5147 55.3619 18.7736 55.5518C19.0476 55.7519 18.907 56.3648 19.1289 56.6018C19.8281 57.2641 20.5318 56.9033 21.2748 57.5168C21.3269 57.5588 21.379 57.5992 21.4311 57.6395C21.7488 57.5437 22.1068 57.6345 22.322 58.0278C22.364 58.1051 22.411 58.1791 22.4598 58.2513C23.0767 58.5421 23.7289 58.7523 24.3895 59.0212C25.4031 59.4347 26.1292 60.06 26.8301 60.8736C28.3766 61.4282 29.965 61.8586 31.5585 62.2603C31.809 62.0687 32.0544 61.8619 32.2914 61.6367C32.3956 61.5375 32.4998 61.4383 32.6007 61.3375C32.6494 61.5039 32.6999 61.672 32.7537 61.8418C32.8411 62.1157 32.9419 62.3797 33.0495 62.6352C34.522 63.01 35.9826 63.4285 37.4383 63.8656C38.936 64.1345 40.3984 64.5446 41.8272 65.1615C41.9095 65.1968 41.9919 65.2305 42.0743 65.2641C42.9147 65.5128 43.7585 65.7515 44.604 65.9801C45.7201 65.2338 46.6446 64.2253 47.2733 63.0302C48.5777 63.126 49.8888 62.8705 51.1142 62.2653C53.2455 61.2114 54.8424 59.1893 55.3853 56.8545C55.7686 55.2106 55.6173 53.4961 54.95 51.8992C54.5382 50.9125 53.9683 50.0082 53.2371 49.1829C54.2776 48.808 55.2122 48.2869 56.0493 47.6213C57.51 46.4598 58.4984 44.9067 58.9119 43.1316C59.4397 40.8641 58.9421 38.4015 57.584 36.5458L57.5873 36.5475Z"
              fill="white"/>
        <path d="M51.9217 35.9289C53.7943 30.8913 47.7043 25.6048 43.0718 29.9735C40.8681 32.0528 39.668 34.5002 38.7199 37.4737C39.3671 34.4262 39.5419 31.7368 38.6056 28.8254C36.6558 22.7641 28.7723 24.4584 27.9823 29.7735C23.6035 27.7967 18.8113 32.5738 20.9679 37.0871C22.5194 40.3346 26.604 42.1214 30.6533 43.3266C26.5233 42.4307 22.084 42.0256 19.1592 44.1217C15.0948 47.0363 16.9875 53.5314 21.7781 53.9112C21.3074 55.1803 21.341 56.4645 21.7293 57.6059C21.9563 57.6244 22.1765 57.7487 22.3277 58.0244C22.3698 58.1017 22.4168 58.1757 22.4656 58.248C23.0825 58.5388 23.7347 58.7489 24.3953 59.0178C25.4089 59.4313 26.135 60.0566 26.8359 60.8702C27.2747 61.0265 27.715 61.1727 28.1588 61.3122C28.9925 61.082 29.8313 60.6164 30.628 59.865C32.83 57.7874 33.973 55.3753 34.8706 52.4337C34.2638 55.4879 34.1361 58.1858 35.0724 61.0937C35.4186 62.1712 35.9548 63.0033 36.602 63.6134C36.8827 63.6958 37.1634 63.7781 37.4424 63.8622C38.6712 64.0824 39.873 64.4001 41.0547 64.8472C43.2768 64.4354 45.3124 62.7125 45.694 60.1457C50.0727 62.1225 54.6364 57.4479 52.7084 52.8321C51.5183 49.983 48.6339 48.3222 45.4301 47.2044C48.7852 47.7356 52.1234 47.6364 54.5389 45.7152C58.452 42.6021 56.7106 36.3055 51.9201 35.9256L51.9217 35.9289Z"
              fill="#009904"/>
    </g>
    <path d="M68.9314 52.6104C68.8339 52.6894 68.7365 52.7465 68.6373 52.7835C69.2643 54.5165 69.3685 56.1453 68.9079 57.5875C68.2238 59.7357 66.3764 61.4586 63.4147 62.7109C60.342 64.0102 56.2188 64.696 51.4887 64.696C45.2475 64.696 38.2701 63.5245 31.3128 61.309C22.2796 58.433 14.3222 54.1383 8.90467 49.2183C3.90062 44.6748 1.67344 40.0506 2.79461 36.5325C3.47873 34.3843 5.32604 32.6614 8.28779 31.4091C11.2546 30.1552 15.2014 29.4744 19.7263 29.429C20.1398 28.7903 20.708 28.207 21.345 27.7565C10.878 27.5296 2.97446 30.4291 1.1927 36.0232C-1.59592 44.7773 11.6614 56.816 30.8018 62.9126C49.9422 69.0092 67.7195 66.8543 70.5081 58.1002C71.1468 56.0965 70.9435 53.9198 70.0207 51.6825C69.6626 51.9985 69.2979 52.3095 68.9281 52.6137L68.9314 52.6104Z"
          fill="#4BFF3B"/>
    <g opacity="0.61">
        <path d="M41.1718 18.6613C43.6365 18.6613 45.6346 17.6235 45.6346 16.3434C45.6346 15.0632 43.6365 14.0254 41.1718 14.0254C38.7071 14.0254 36.709 15.0632 36.709 16.3434C36.709 17.6235 38.7071 18.6613 41.1718 18.6613Z"
              fill="white"/>
        <path d="M26.6157 25.8986C31.9507 23.5711 35.5263 19.9668 34.602 17.8481C33.6777 15.7293 28.6035 15.8986 23.2684 18.2261C17.9333 20.5536 14.3577 24.158 15.282 26.2767C16.2064 28.3954 21.2806 28.2261 26.6157 25.8986Z"
              fill="white"/>
    </g>
    <path d="M31.3384 50.9231L31.4204 50.3135C31.5571 49.4483 31.8852 48.6289 32.4047 47.8555C32.9379 47.0689 33.5394 46.4003 34.2092 45.8497C34.8791 45.286 35.5421 44.7616 36.1983 44.2765C36.8681 43.7915 37.4423 43.313 37.9207 42.841C38.3992 42.3691 38.6658 41.9234 38.7205 41.5039C38.7888 41.0844 38.6589 40.7501 38.3309 40.501C38.0164 40.2519 37.5175 40.1274 36.8339 40.1274C35.0294 40.1274 33.1703 40.986 31.2564 42.7034L26.8887 37.5906C28.5701 36.0175 30.3883 34.8114 32.3432 33.9724C34.3117 33.1334 36.3145 32.7139 38.3514 32.7139C41.1811 32.7139 43.4231 33.507 45.0772 35.0933C46.7314 36.6795 47.3875 38.6001 47.0458 40.8549C46.8954 41.8644 46.54 42.8083 45.9795 43.6866C45.419 44.565 44.7902 45.2991 44.093 45.889C43.3958 46.479 42.6986 47.0296 42.0014 47.5408C41.3179 48.039 40.7232 48.5241 40.2174 48.996C39.7252 49.468 39.4518 49.9071 39.3972 50.3135L39.3151 50.9231H31.3384ZM33.7786 61.4829C32.3842 61.4829 31.2837 61.0372 30.4772 60.1457C29.6843 59.2543 29.3835 58.14 29.5749 56.8028C29.7663 55.4787 30.3883 54.371 31.4409 53.4795C32.5072 52.5749 33.7444 52.1227 35.1525 52.1227C36.5469 52.1227 37.6473 52.5684 38.4539 53.4598C39.2741 54.3513 39.5885 55.4656 39.3972 56.8028C39.2194 58.1269 38.5906 59.2412 37.5106 60.1457C36.4307 61.0372 35.1866 61.4829 33.7786 61.4829Z"
          fill="white"/>
    <path d="M78 6.99999C73.6578 8.4704 72.4635 9.65779 71 14C69.5296 9.65089 68.3422 8.4635 64 6.99999C68.3491 5.52957 69.5365 4.34221 71 0C72.4704 4.34911 73.6578 5.53648 78 6.99999Z"
          fill="white"/>
    <defs>
        <linearGradient id="paint0_linear_284_1382" x1="-21.5041" y1="43.2173" x2="69.6734" y2="64.1976"
                        gradientUnits="userSpaceOnUse">
            <stop stop-color="#76FF6D"/>
            <stop offset="0.24" stop-color="#76FF6D"/>
            <stop offset="1" stop-color="#009C0A"/>
        </linearGradient>
        <linearGradient id="paint1_linear_284_1382" x1="35.9454" y1="-0.60868" x2="35.9454" y2="66.0728"
                        gradientUnits="userSpaceOnUse">
            <stop stop-color="#82FF7D"/>
            <stop offset="1" stop-color="#118901"/>
        </linearGradient>
    </defs>
</svg>
