<svg width="243" height="243" viewBox="0 0 243 243" fill="none" xmlns="http://www.w3.org/2000/svg">
    <g clip-path="url(#clip0_1359_12393)">
        <path d="M216.916 243.087C212.484 243.087 208.806 241.969 206.503 241.026C205.975 240.814 205.507 240.603 205.091 240.399C201.044 241.501 196.838 242.06 192.579 242.06C185.444 242.06 177.991 240.505 170.44 237.424C163.44 234.577 156.267 230.401 149.101 224.995C147.629 225.169 146.111 225.259 144.571 225.259C136.446 225.259 128.676 222.79 123.586 220.721C122.945 220.457 122.318 220.192 121.729 219.943C118.995 218.743 116.874 217.625 115.96 217.149C115.658 216.991 115.454 216.885 115.326 216.817C113.974 216.243 113.015 215.133 112.69 213.752C112.441 212.626 112.615 211.599 113.113 210.535C113.113 210.535 112.962 210.429 112.932 210.406C111.965 209.682 111.346 208.587 111.233 207.386C111.105 206.14 111.528 204.909 112.411 203.988C112.434 203.965 112.456 203.943 112.479 203.92C113.899 202.523 115.658 201.3 117.697 200.296C118.248 200.031 118.814 199.782 119.411 199.556C119.381 199.533 119.35 199.503 119.32 199.48C114.85 199.948 110.697 200.19 106.952 200.19C105.615 200.19 104.301 200.16 103.063 200.099C100.216 199.971 98.3436 199.707 97.5432 199.593L97.1807 199.541C97.2563 199.548 97.3167 199.548 97.3695 199.556C96.7654 199.526 96.1916 199.367 95.8367 199.223C92.6351 197.925 92.5747 194.376 92.9673 191.68C90.7021 189.604 89.7884 188.116 89.4335 187.376C88.618 185.7 88.9729 183.699 90.332 182.4C90.3622 182.37 90.3924 182.34 90.4226 182.317C91.8875 181.011 93.6771 179.787 95.7385 178.692C96.924 178.066 102.874 175.31 102.874 175.31C92.0839 159.09 96.7126 141.851 102.232 128.297C104.981 121.554 109.119 115.929 114.571 111.534C114.54 111.474 114.51 111.413 114.48 111.353C113.438 109.36 112.766 107.774 112.479 106.626C112.2 105.501 112.026 103.266 114.042 101.023C118.875 95.6018 137.306 92 143.476 92C144.117 92 144.676 92.0302 145.175 92.0982C145.205 92.0982 145.243 92.1057 145.273 92.1133C145.983 92.2265 146.624 92.4002 147.228 92.6418C150.226 93.8651 152.65 96.8402 154.44 101.507C162.859 102.322 171.482 104.512 180.105 108.023C189.197 111.723 197.231 116.45 204.019 122.083C207.055 120.633 209.796 119.901 212.182 119.901C213.496 119.901 214.726 120.127 215.821 120.573C216.425 120.814 216.999 121.139 217.588 121.554C217.618 121.57 217.641 121.592 217.664 121.615C221.975 124.862 234.064 142.138 233.717 149.772C233.536 152.808 231.867 154.258 230.885 154.854C229.926 155.451 228.394 156.1 226.332 156.772C225.789 156.968 225.237 157.157 224.671 157.346C225.29 163.945 224.286 170.515 221.681 176.926C221.198 178.111 220.714 179.289 220.231 180.444C221.635 183.14 222.64 185.798 223.236 188.403C224.233 187.769 225.388 187.406 226.559 187.369C226.612 187.172 226.672 186.976 226.755 186.787C227.48 185.013 229.269 183.82 231.203 183.82C232.448 183.82 233.626 184.303 234.533 185.179C238.64 189.196 239.441 193.9 236.617 197.245C236.911 199.314 236.511 201.33 235.431 203.052C234.646 204.29 232.849 206.284 229.322 206.593C229.753 212.249 228.597 217.293 227.767 220.917L227.737 221.053C227.472 222.224 227.201 223.439 227.163 224.021C227.163 224.081 227.163 224.119 227.163 224.157C227.238 224.217 227.412 224.338 227.759 224.474C228.016 224.58 228.454 224.723 229.111 224.844C230.304 225.055 231.452 225.546 231.663 225.644C233.075 226.271 234.057 227.449 234.351 228.869C234.525 229.699 234.449 230.537 234.14 231.307C234.502 231.927 234.706 232.636 234.729 233.376C234.774 234.736 234.193 236.012 233.151 236.88C232.849 237.129 232.554 237.394 232.26 237.65C231.089 238.685 229.76 239.855 227.963 240.595C227.948 240.595 227.933 240.61 227.918 240.61C224.422 242.234 220.722 243.057 216.909 243.057L216.916 243.087Z"
              fill="white"/>
        <path d="M229.62 231.285L230.511 230.129C230.851 229.752 230.594 229.329 230.133 229.125C229.809 228.982 229.076 228.702 228.427 228.589C228.238 230.748 227.483 234.562 226.539 237.137C228.125 236.48 229.348 235.166 230.745 234.01C231.047 233.761 231.032 233.293 230.715 233.059L229.726 232.334C229.386 232.085 229.34 231.602 229.62 231.292V231.285Z"
              fill="black"/>
        <path d="M156.382 205.827C157.56 202.934 152.972 198.333 146.136 195.55C139.299 192.767 132.802 192.856 131.625 195.749C130.447 198.642 135.034 203.243 141.871 206.026C148.708 208.809 155.205 208.72 156.382 205.827Z"
              fill="#0C0C0C"/>
        <path d="M232.35 195.984C232.803 195.72 233.249 195.38 233.649 194.935C235.695 192.67 233.611 189.574 231.905 187.912C231.029 187.059 229.556 188.245 230.5 189.173C231.761 190.404 233.521 193.266 231.406 194.414C230.349 192.979 228.884 191.801 227.427 191.288C226.03 190.789 224.074 191.975 224.082 193.545C224.112 195.479 226.166 196.158 227.759 196.468C228.673 196.649 229.541 196.709 230.379 196.611C230.508 196.86 230.644 197.109 230.757 197.359C233.468 203.324 222.481 199.632 220.473 198.914C219.249 198.476 218.781 200.243 219.989 200.681C222.995 201.753 229.828 204.864 232.229 201.081C233.219 199.511 233.09 197.668 232.335 196L232.35 195.984ZM227.208 194.459C226.332 194.353 226.242 193.885 226.959 193.047C227.555 193.145 228.084 193.712 228.522 194.104C228.741 194.331 228.967 194.542 229.171 194.791C228.492 194.739 227.797 194.603 227.208 194.452V194.459Z"
              fill="black"/>
        <path d="M228.83 229.125C228.853 228.861 228.687 228.634 228.415 228.589C227.645 228.446 226.935 228.249 226.331 228C224.216 227.139 223.265 225.757 223.393 223.794C223.454 222.888 223.748 221.604 224.088 220.102C225.991 211.796 229.457 196.505 210.708 185.262C207.385 172.123 192.872 157.935 172.591 149.674C145.543 138.657 118.473 142.35 112.138 157.92C109.774 163.734 110.628 170.379 114.041 176.993C108.959 177.839 102.556 179.349 97.504 182.03C97.3303 182.12 97.2246 182.309 97.2397 182.506C97.4209 186.153 98.5536 191.484 102.903 196.173C102.986 196.278 103.122 196.331 103.243 196.331C109.125 196.618 116.177 196.203 124.212 195.093C124.793 195.856 126.771 198.4 129.799 201.843C129.905 201.972 130.071 202.04 130.23 202.017C134.066 201.647 137.871 201.73 140.877 201.927C143.482 203.323 146.215 204.622 149.069 205.808L157.776 217.489C155.45 218.682 152.898 219.52 150.172 220.004C149.983 220.049 149.817 220.192 149.764 220.389C149.719 220.57 149.794 220.781 149.953 220.91C157.33 226.633 164.707 231.013 171.858 233.927C183.721 238.76 195.04 239.576 205.49 236.351C205.86 236.57 206.706 237.031 207.922 237.529C211.599 239.024 218.969 240.935 226.988 236.91C227.101 236.85 227.184 236.759 227.237 236.623C228.067 234.381 228.604 231.859 228.83 229.118V229.125Z"
              fill="#0C0C0C"/>
        <mask id="mask0_1359_12393" style="mask-type:luminance" maskUnits="userSpaceOnUse" x="97" y="143" width="132"
              height="97">
            <path d="M228.83 229.125C228.853 228.861 228.687 228.634 228.415 228.589C227.645 228.446 226.935 228.249 226.331 228C224.216 227.139 223.265 225.757 223.393 223.794C223.454 222.888 223.748 221.604 224.088 220.102C225.991 211.796 229.457 196.505 210.708 185.262C207.385 172.123 192.872 157.935 172.591 149.674C145.543 138.657 118.473 142.35 112.138 157.92C109.774 163.734 110.628 170.379 114.041 176.993C108.959 177.839 102.556 179.349 97.504 182.03C97.3303 182.12 97.2246 182.309 97.2397 182.506C97.4209 186.153 98.5536 191.484 102.903 196.173C102.986 196.278 103.122 196.331 103.243 196.331C109.125 196.618 116.177 196.203 124.212 195.093C124.793 195.856 126.771 198.4 129.799 201.843C129.905 201.972 130.071 202.04 130.23 202.017C134.066 201.647 137.871 201.73 140.877 201.927C143.482 203.323 146.215 204.622 149.069 205.808L157.776 217.489C155.45 218.682 152.898 219.52 150.172 220.004C149.983 220.049 149.817 220.192 149.764 220.389C149.719 220.57 149.794 220.781 149.953 220.91C157.33 226.633 164.707 231.013 171.858 233.927C183.721 238.76 195.04 239.576 205.49 236.351C205.86 236.57 206.706 237.031 207.922 237.529C211.599 239.024 218.969 240.935 226.988 236.91C227.101 236.85 227.184 236.759 227.237 236.623C228.067 234.381 228.604 231.859 228.83 229.118V229.125Z"
                  fill="white"/>
        </mask>
        <g mask="url(#mask0_1359_12393)">
            <path d="M218.89 200.188C225.366 184.279 205.138 161.01 173.708 148.216C142.279 135.422 111.551 137.947 105.074 153.857C98.5978 169.767 118.826 193.036 150.255 205.83C181.685 218.624 212.413 216.098 218.89 200.188Z"
                  fill="black"/>
            <path d="M102.551 179.289C102.551 179.289 127.643 203.784 138.108 207.861L153.406 209.107L160.633 201.911L132.83 171.579L102.551 179.281V179.289Z"
                  fill="black"/>
        </g>
        <path d="M159.033 217.777C159.071 217.633 159.033 217.482 158.942 217.361L150.742 206.367C149.843 206.058 148.952 205.725 148.069 205.37C147.087 204.97 146.098 204.54 145.139 204.064C144.89 204.26 144.543 204.336 144.157 204.185C141.416 203.09 138.494 202.335 135.972 200.757C134.107 200.757 132.121 200.825 130.143 201.021C125.831 201.436 122.207 202.35 119.36 203.709C119.164 203.815 119.051 204.026 119.073 204.238C119.504 207.522 120.523 212.264 122.985 216.282C123.037 216.372 123.128 216.448 123.211 216.485C123.785 216.727 124.382 216.984 125.001 217.241C131.449 219.868 141.084 222.662 150.342 221.016C153.385 220.48 156.216 219.506 158.776 218.124C158.904 218.056 158.995 217.928 159.018 217.792L159.033 217.777Z"
              fill="#0C0C0C"/>
        <path d="M119.585 204.169C118.029 204.916 116.64 205.838 115.484 206.978L119.101 209.545C119.101 209.545 116.239 212.769 116.972 212.883C117.206 212.92 119.637 214.355 123.42 216.016C121.027 212.113 120.007 207.491 119.585 204.176V204.169Z"
              fill="black"/>
        <path d="M123.231 216.484H123.216C120.716 215.382 118.761 214.363 117.711 213.811C117.228 213.555 116.941 213.411 116.813 213.358C116.548 213.253 116.405 213.094 116.36 212.898C116.322 212.709 116.186 212.143 118.353 209.636L115.189 207.401C115.068 207.31 114.993 207.174 114.985 207.023C114.963 206.872 115.023 206.729 115.121 206.623C116.254 205.505 117.681 204.524 119.357 203.701C119.501 203.64 119.674 203.655 119.825 203.716C119.969 203.799 120.067 203.935 120.09 204.101C120.505 207.28 121.494 211.886 123.865 215.744C123.971 215.941 123.956 216.182 123.805 216.348C123.661 216.515 123.427 216.567 123.231 216.484ZM117.454 212.543C117.651 212.641 117.885 212.754 118.179 212.92C119.017 213.351 120.414 214.083 122.227 214.921C120.46 211.523 119.614 207.786 119.184 204.954C118.081 205.535 117.115 206.2 116.292 206.94L119.403 209.152C119.516 209.235 119.606 209.356 119.614 209.5C119.637 209.658 119.584 209.794 119.486 209.9C118.655 210.836 117.741 212.007 117.454 212.55V212.543Z"
              fill="black"/>
        <path d="M97.7444 182.483C96.0907 183.366 94.5654 184.37 93.2969 185.518C93.2969 185.518 94.0671 187.21 97.6538 190.041C97.6538 190.041 96.4608 195.214 97.533 195.282C98.0087 195.312 99.8285 195.667 103.279 195.833C99.096 191.317 97.9332 186.19 97.7444 182.475V182.483Z"
              fill="black"/>
        <path d="M97.2442 195.735C96.4061 195.395 96.3532 193.545 97.0856 190.253C93.6424 187.489 92.8495 185.805 92.8269 185.73C92.7287 185.533 92.7816 185.292 92.9402 185.141C94.1785 184.031 95.7113 182.989 97.5085 182.037C97.667 181.962 97.8483 181.962 97.9993 182.045C98.1579 182.143 98.256 182.286 98.2636 182.46C98.4297 185.941 99.5095 191.023 103.647 195.493C103.783 195.652 103.821 195.87 103.738 196.059C103.64 196.24 103.459 196.361 103.247 196.346C100.635 196.225 98.9582 195.999 98.0672 195.87C97.7954 195.833 97.5991 195.803 97.5009 195.795C97.4481 195.795 97.2971 195.757 97.2442 195.735ZM93.9293 185.624C94.3295 186.22 95.4244 187.632 97.9691 189.641C98.1201 189.762 98.1881 189.958 98.1428 190.147C97.6746 192.193 97.4632 194.292 97.6595 194.776C97.7879 194.791 97.9691 194.813 98.2031 194.851C98.928 194.942 100.197 195.123 102.092 195.251C98.6789 191.136 97.5689 186.643 97.282 183.306C95.9907 184.031 94.8732 184.808 93.9218 185.616L93.9293 185.624Z"
              fill="black"/>
        <path d="M218.195 175.521C207.759 201.157 197.936 221.378 143.055 199.035C95.2805 179.583 95.2881 155.368 105.723 129.732C116.159 104.097 147.631 98.894 178.681 111.534C209.738 124.182 228.63 149.886 218.195 175.521Z"
              fill="#0C0C0C"/>
        <mask id="mask1_1359_12393" style="mask-type:luminance" maskUnits="userSpaceOnUse" x="100" y="104" width="122"
              height="105">
            <path d="M218.195 175.521C207.759 201.157 197.936 221.378 143.055 199.035C95.2805 179.583 95.2881 155.368 105.723 129.732C116.159 104.097 147.631 98.894 178.681 111.534C209.738 124.182 228.63 149.886 218.195 175.521Z"
                  fill="white"/>
        </mask>
        <g mask="url(#mask1_1359_12393)">
            <path d="M224.535 167.343C211.668 153.827 180.037 132.458 164.626 125.738C149.388 119.093 132.142 111.655 116.496 109.028L133.901 104.55C170.025 106.219 210.098 135.569 221.703 151.275L224.543 167.351L224.535 167.343Z"
                  fill="#31FF76"/>
            <mask id="mask2_1359_12393" style="mask-type:luminance" maskUnits="userSpaceOnUse" x="116" y="104"
                  width="109" height="64">
                <path d="M224.535 167.343C211.668 153.827 180.037 132.458 164.626 125.738C149.388 119.093 132.142 111.655 116.496 109.028L133.901 104.55C170.025 106.219 210.098 135.569 221.703 151.275L224.543 167.351L224.535 167.343Z"
                      fill="white"/>
            </mask>
            <g mask="url(#mask2_1359_12393)">
                <path d="M160.744 109.148C160.744 109.148 146.08 110.273 139.723 116.027C133.365 121.781 124.538 113.218 124.538 113.218L117.84 109.654L135.411 98.3198L148.18 98.6898L154.009 104.398L160.752 109.14L160.744 109.148Z"
                      fill="#22D358"/>
                <path d="M206.206 120.527C206.206 120.527 197.998 150.414 193.248 151.879C188.499 153.344 218.997 153.321 218.997 153.321L223.309 143.958L215.992 129.067L206.206 120.527Z"
                      fill="#22D358"/>
            </g>
        </g>
        <path d="M152.45 108.189C152.374 107.766 150.487 98.0556 145.798 96.1452C145.435 95.9942 145.065 95.9112 144.688 95.8507C139.779 95.2165 120.645 99.2864 116.84 103.56C116.19 104.278 115.956 105.003 116.137 105.72C116.349 106.558 116.953 107.962 117.844 109.654C118.44 110.877 119.218 112.38 120.17 114.071C121.468 116.299 123.024 118.881 125.093 121.396C126.135 122.649 127.26 123.903 128.612 125.005C129.941 126.085 131.504 127.119 133.406 127.376C133.852 127.421 134.403 127.444 134.849 127.27C135.423 127.097 135.815 126.84 136.178 126.553C136.91 125.979 137.507 125.299 138.02 124.612C139.07 123.223 139.893 121.766 140.655 120.331C142.15 117.454 143.23 114.66 144.167 112.259C144.378 111.685 144.574 111.141 144.756 110.613C145.186 109.692 145.511 108.989 145.692 108.589L151.861 108.869C152.042 108.869 152.208 108.801 152.322 108.665C152.442 108.529 152.488 108.355 152.458 108.181L152.45 108.189Z"
              fill="#151515"/>
        <mask id="mask3_1359_12393" style="mask-type:luminance" maskUnits="userSpaceOnUse" x="116" y="95" width="37"
              height="33">
            <path d="M152.45 108.189C152.374 107.766 150.487 98.0556 145.798 96.1452C145.435 95.9942 145.065 95.9112 144.688 95.8507C139.779 95.2165 120.645 99.2864 116.84 103.56C116.19 104.278 115.956 105.003 116.137 105.72C116.349 106.558 116.953 107.962 117.844 109.654C118.44 110.877 119.218 112.38 120.17 114.071C121.468 116.299 123.024 118.881 125.093 121.396C126.135 122.649 127.26 123.903 128.612 125.005C129.941 126.085 131.504 127.119 133.406 127.376C133.852 127.421 134.403 127.444 134.849 127.27C135.423 127.097 135.815 126.84 136.178 126.553C136.91 125.979 137.507 125.299 138.02 124.612C139.07 123.223 139.893 121.766 140.655 120.331C142.15 117.454 143.23 114.66 144.167 112.259C144.378 111.685 144.574 111.141 144.756 110.613C145.186 109.692 145.511 108.989 145.692 108.589L151.861 108.869C152.042 108.869 152.208 108.801 152.322 108.665C152.442 108.529 152.488 108.355 152.458 108.181L152.45 108.189Z"
                  fill="white"/>
        </mask>
        <g mask="url(#mask3_1359_12393)">
            <g style="mix-blend-mode:multiply" opacity="0.7">
                <path d="M120.168 114.071C120.168 114.071 128.557 127.127 133.873 126.009C139.189 124.892 147.306 103.651 147.306 103.651L141.099 125.669L137.331 128.471L125.046 132.526L120.983 128.637L117.457 121.818L120.462 113.558"
                      fill="#151515"/>
            </g>
        </g>
        <path d="M229.953 149.613C230.21 143.897 219.352 127.617 215.395 124.642C215.086 124.423 214.761 124.227 214.398 124.084C209.709 122.173 201.577 127.806 201.23 128.055C201.086 128.154 200.988 128.312 200.988 128.493C200.98 128.667 201.048 128.833 201.177 128.962L205.783 133.069C205.632 133.492 205.352 134.255 205.005 135.267C204.786 135.742 204.56 136.241 204.325 136.762C203.306 139.125 202.128 141.889 201.192 144.992C200.731 146.548 200.293 148.171 200.074 149.9C199.969 150.754 199.916 151.645 200.044 152.573C200.105 153.034 200.21 153.495 200.49 154.016C200.709 154.454 201.109 154.823 201.449 155.095C202.997 156.243 204.831 156.59 206.538 156.749C208.275 156.9 209.966 156.794 211.574 156.621C214.806 156.266 217.721 155.503 220.213 154.816C222.153 154.25 223.814 153.698 225.113 153.23C226.857 152.656 228.209 152.098 228.926 151.66C229.561 151.275 229.893 150.587 229.953 149.628V149.613Z"
              fill="#151515"/>
        <mask id="mask4_1359_12393" style="mask-type:luminance" maskUnits="userSpaceOnUse" x="199" y="123" width="31"
              height="34">
            <path d="M229.953 149.613C230.21 143.897 219.352 127.617 215.395 124.642C215.086 124.423 214.761 124.227 214.398 124.084C209.709 122.173 201.577 127.806 201.23 128.055C201.086 128.154 200.988 128.312 200.988 128.493C200.98 128.667 201.048 128.833 201.177 128.962L205.783 133.069C205.632 133.492 205.352 134.255 205.005 135.267C204.786 135.742 204.56 136.241 204.325 136.762C203.306 139.125 202.128 141.889 201.192 144.992C200.731 146.548 200.293 148.171 200.074 149.9C199.969 150.754 199.916 151.645 200.044 152.573C200.105 153.034 200.21 153.495 200.49 154.016C200.709 154.454 201.109 154.823 201.449 155.095C202.997 156.243 204.831 156.59 206.538 156.749C208.275 156.9 209.966 156.794 211.574 156.621C214.806 156.266 217.721 155.503 220.213 154.816C222.153 154.25 223.814 153.698 225.113 153.23C226.857 152.656 228.209 152.098 228.926 151.66C229.561 151.275 229.893 150.587 229.953 149.628V149.613Z"
                  fill="white"/>
        </mask>
        <g mask="url(#mask4_1359_12393)">
            <g style="mix-blend-mode:multiply" opacity="0.7">
                <path d="M204.194 135.146L209.283 126.999C209.283 126.999 199.761 147.975 201.422 152.589C203.091 157.202 213.338 156.372 213.338 156.372L197.126 157.338L195.684 149.266L199.535 139.805L204.194 135.138V135.146Z"
                      fill="#151515"/>
            </g>
        </g>
        <path d="M114.576 134.95C112.545 134.119 110.287 135.441 109.985 137.615C108.46 148.534 114.448 159.506 125.125 163.855C137.161 168.756 150.806 163.462 156.499 152.023L114.584 134.957L114.576 134.95Z"
              fill="white"/>
        <mask id="mask5_1359_12393" style="mask-type:luminance" maskUnits="userSpaceOnUse" x="109" y="134" width="48"
              height="32">
            <path d="M114.576 134.95C112.545 134.119 110.287 135.441 109.985 137.615C108.46 148.534 114.448 159.506 125.125 163.855C137.161 168.756 150.806 163.462 156.499 152.023L114.584 134.957L114.576 134.95Z"
                  fill="white"/>
        </mask>
        <g mask="url(#mask5_1359_12393)">
            <path d="M135.293 147.719C137.985 141.106 137.249 134.558 133.649 133.092C130.049 131.627 124.949 135.799 122.257 142.412C119.565 149.025 120.301 155.573 123.901 157.039C127.501 158.504 132.601 154.331 135.293 147.719Z"
                  fill="#0C0C0C"/>
        </g>
        <path d="M144.451 147.114C140.532 159.279 146.603 172.599 158.639 177.499C169.316 181.849 181.262 178.171 187.793 169.299C189.092 167.532 188.405 165.01 186.366 164.179L144.451 147.114Z"
              fill="white"/>
        <mask id="mask6_1359_12393" style="mask-type:luminance" maskUnits="userSpaceOnUse" x="143" y="147" width="46"
              height="33">
            <path d="M144.451 147.114C140.532 159.279 146.603 172.599 158.639 177.499C169.316 181.849 181.262 178.171 187.793 169.299C189.092 167.532 188.405 165.01 186.366 164.179L144.451 147.114Z"
                  fill="white"/>
        </mask>
        <g mask="url(#mask6_1359_12393)">
            <path d="M171.926 162.637C174.618 156.024 173.882 149.476 170.282 148.01C166.682 146.545 161.581 150.717 158.89 157.33C156.198 163.943 156.934 170.491 160.534 171.957C164.134 173.422 169.234 169.249 171.926 162.637Z"
                  fill="#0C0C0C"/>
        </g>
        <path d="M130.148 201.013C130.148 201.013 168.764 219.385 191.19 214.326C213.617 209.266 196.4 211.199 196.4 211.199L178.837 212.846L153.571 207.265L140.637 201.149L136.091 199.994L131.221 198.393L130.148 201.021V201.013Z"
              fill="black"/>
        <path d="M203.834 161.952C203.834 161.952 201.75 164.98 201.184 165.893C200.617 166.807 200.897 168.008 201.81 168.581C202.724 169.148 203.992 168.906 204.498 167.955C205.654 165.78 203.841 161.952 203.841 161.952H203.834Z"
              fill="white"/>
        <path d="M205.914 159.415C205.914 159.415 206.526 161.764 206.737 162.443C206.949 163.123 207.673 163.5 208.353 163.289C209.033 163.077 209.455 162.337 209.199 161.673C208.61 160.155 205.914 159.408 205.914 159.408V159.415Z"
              fill="white"/>
        <path d="M143.134 176.886C143.823 174.909 143.139 172.874 141.607 172.34C140.075 171.807 138.275 172.977 137.586 174.954C136.898 176.931 137.582 178.966 139.114 179.5C140.646 180.033 142.446 178.863 143.134 176.886Z"
              fill="white"/>
        <path d="M87.398 115.764C84.3717 117.476 81.1401 118.596 77.7839 119.089C73.8869 119.668 70.0719 119.398 66.4426 118.299C62.9887 117.248 59.8372 115.476 57.0713 113.032C54.5384 110.788 52.4636 108.05 50.9132 104.901L48.3816 99.7394C47.9677 99.921 47.5464 100.089 47.1138 100.238C45.3796 102.049 43.4123 103.659 41.2254 105.044C40.7721 105.336 40.2935 105.615 39.8253 105.88C36.6592 107.67 33.2077 108.924 29.5552 109.61C25.2174 110.422 20.9966 110.364 17.0103 109.448C13.1491 108.558 9.74788 106.377 7.43232 103.295C5.2425 100.385 4.11256 96.7887 4.20907 93.1101C2.76391 91.5172 1.52869 89.6921 0.525398 87.6572C-2.50093 81.4745 -2.80821 74.7495 -0.369202 68.1828C1.81306 62.3203 6.01843 57.2784 11.7908 53.6207C12.2791 53.3096 12.7818 53.0078 13.278 52.7271C15.0113 51.7468 16.8027 50.9345 18.642 50.3047C19.6021 49.36 20.6538 48.5119 21.7943 47.7883L30.793 42.0875C31.2081 41.8266 31.6269 41.5722 32.0393 41.339C33.3603 40.5919 34.7271 39.9585 36.1259 39.4469C37.2213 38.2684 38.4662 37.2238 39.8438 36.3486L53.2615 27.8429C53.5336 27.6716 53.8024 27.5108 54.075 27.3566C54.2637 27.2499 54.4524 27.1432 54.6486 27.0497C55.0762 26.7292 55.5113 26.422 55.9613 26.1413L69.3789 17.6356C69.644 17.4682 69.9199 17.3035 70.1924 17.1494C70.3811 17.0426 70.5699 16.9359 70.766 16.8424C71.1936 16.522 71.6287 16.2148 72.0788 15.934L79.8149 11.0347C80.2682 10.7434 80.7397 10.468 81.208 10.2031C85.73 7.64559 90.5474 6.34441 95.5404 6.33237C101.084 6.31473 106.203 7.86408 110.759 10.9114C114.822 13.6432 118.037 17.353 120.325 21.9534C120.34 21.9799 120.355 22.0063 120.374 22.0394C121.985 25.3286 122.97 28.8321 123.323 32.4573C123.677 36.0998 123.386 39.7133 122.481 43.1855C121.534 46.7952 119.927 50.2014 117.709 53.325C116.572 54.9197 115.304 56.3966 113.898 57.7424C114.536 58.6913 115.118 59.6891 115.639 60.7396C115.643 60.7462 115.699 60.8626 115.699 60.8626C118.519 66.6643 119.111 73.0448 117.41 79.3167C116.581 82.3701 115.243 85.24 113.456 87.8052C113.945 94.052 110.833 100.423 105.008 104.119L99.637 107.524C99.3649 107.695 99.0961 107.856 98.8235 108.01C97.5935 108.706 96.2918 109.259 94.9502 109.659C93.1445 111.702 91.0506 113.48 88.6787 114.979C88.2566 115.244 87.8308 115.502 87.4115 115.739L87.398 115.764Z"
              fill="#151515"/>
        <path d="M85.3505 15.826C88.5431 14.0204 91.9364 13.038 95.4418 12.9111L96.1443 12.8975L96.1478 12.8978C100.313 12.8922 104.198 14.0639 107.659 16.385L108.25 16.7956C111.158 18.8884 113.468 21.6825 115.162 25.0815L115.184 25.1206L115.203 25.1603C116.505 27.8185 117.302 30.6414 117.585 33.5542L117.586 33.5546C117.872 36.4675 117.647 39.344 116.922 42.0967L116.923 42.097C116.181 44.9258 114.924 47.5896 113.19 50.0303L113.189 50.0308C111.372 52.5828 109.095 54.7328 106.432 56.4206L104.189 57.8415C106.757 59.5796 108.833 61.9947 110.322 64.9696L110.376 65.0648L110.396 65.1061C112.491 69.4078 112.989 74.1266 111.842 78.7578L111.726 79.205C110.83 82.5174 109.182 85.4572 106.891 87.879C108.474 92.3781 106.596 97.4845 102.382 100.156L102.381 100.157L96.8558 103.66L96.854 103.659C96.6706 103.782 96.4978 103.883 96.3749 103.952C94.9768 104.743 93.4307 105.215 91.8604 105.351C90.2006 107.738 88.1003 109.747 85.5909 111.334L85.5875 111.336C85.28 111.529 84.9543 111.723 84.6404 111.9C82.4092 113.162 80.0381 113.992 77.5696 114.356L77.5683 114.355C74.7227 114.773 71.9213 114.584 69.2592 113.776C66.6955 112.999 64.3454 111.668 62.2716 109.832L62.2693 109.83C60.3265 108.105 58.72 105.986 57.5229 103.545L51.486 91.244L46.7597 94.2402L46.7579 94.2389C46.5745 94.3626 46.4016 94.4629 46.2787 94.5324C45.1599 95.1651 43.9482 95.591 42.7063 95.8056C41.076 97.8629 39.0896 99.632 36.796 101.088L36.7947 101.088C36.4382 101.318 36.067 101.539 35.7107 101.74C33.2397 103.138 30.5228 104.12 27.6552 104.658L27.6513 104.659C24.2885 105.282 21.0103 105.263 17.9253 104.548L17.4783 104.436C12.9105 103.181 9.88327 99.0045 10.1935 94.2597L10.193 94.2588L10.3626 91.6744C8.44224 90.1623 6.86638 88.1907 5.69409 85.8084L5.69217 85.805C3.43957 81.2009 3.21062 76.1849 5.01408 71.343C6.68843 66.8365 9.85386 63.1182 14.3108 60.2925L14.9039 59.9268C15.1019 59.8088 15.2997 59.6951 15.4938 59.5853C17.4535 58.4769 19.4967 57.6567 21.576 57.1416C22.3738 56.0439 23.3933 55.0664 24.6123 54.2957L33.8706 48.43L33.8757 48.4271C34.182 48.2347 34.4929 48.0489 34.8007 47.8747C36.4157 46.9614 38.0933 46.2962 39.802 45.8786C40.642 44.5774 41.7837 43.4253 43.176 42.5387L43.1781 42.5365L56.9833 33.7861L56.9838 33.787C57.1675 33.663 57.3412 33.5635 57.4643 33.4939C57.7728 33.3194 58.0952 33.1571 58.4236 33.0119C58.8405 32.6478 59.2824 32.3231 59.7395 32.0298L59.7458 32.0251L73.5511 23.2748L73.5516 23.2756C73.7353 23.1517 73.909 23.0521 74.032 22.9826C74.3406 22.808 74.6633 22.6467 74.9918 22.5014C75.4086 22.1374 75.8493 21.8122 76.3064 21.519L76.3136 21.5138L84.2737 16.4732L84.2742 16.474C84.636 16.2406 84.9997 16.0244 85.3505 15.826Z"
              stroke="#31FF76" stroke-width="3" stroke-miterlimit="10"/>
        <path d="M31.2864 92.5041C29.7219 93.4968 27.9764 94.1695 26.0538 94.5291C24.1313 94.8887 22.3515 94.88 20.7257 94.5058L21.1572 87.9187C22.4192 88.2202 23.7144 88.2783 25.0571 88.0849C26.4037 87.8983 27.5469 87.5033 28.4941 86.8957C29.1939 86.455 29.7309 85.9446 30.098 85.3687C30.4651 84.7927 30.5458 84.2978 30.3182 83.8785C30.1275 83.4742 29.728 83.3048 29.1197 83.3704C28.5114 83.4359 27.4845 83.6843 26.0505 84.1359C20.6648 85.7893 17.0614 84.7546 15.23 81.0466C14.1896 78.9217 14.0794 76.7468 14.9035 74.5288C15.7275 72.3108 17.3577 70.4274 19.7908 68.8896C21.305 67.9254 22.8327 67.3039 24.3624 67.0048C25.8959 66.7125 27.2625 66.7123 28.4698 67.0177L28.3038 73.4367C27.4244 73.2243 26.4484 73.2103 25.3763 73.4123C24.3042 73.6144 23.3394 73.9893 22.4853 74.5263C21.7998 74.9589 21.2944 75.4245 20.9872 75.9217C20.6799 76.4189 20.6082 76.8458 20.7796 77.216C20.9703 77.6203 21.4029 77.7979 22.0852 77.7624C22.7674 77.7269 23.6385 77.5218 24.6988 77.1647C25.0896 77.0335 25.4517 76.9186 25.7889 76.8267C26.126 76.7349 26.6124 76.6215 27.2557 76.5003C27.9023 76.3682 28.4995 76.2999 29.047 76.2778C29.5944 76.2557 30.2202 76.2881 30.9209 76.3859C31.6216 76.4837 32.2553 76.6644 32.8219 76.928C33.3886 77.1915 33.9444 77.5869 34.5038 78.1061C35.0632 78.6253 35.5239 79.2721 35.8966 80.0317C36.588 81.4555 36.8467 82.9534 36.6727 84.5252C36.4987 86.0971 35.935 87.5839 34.9959 88.9776C34.0568 90.3712 32.8227 91.5454 31.2941 92.5177L31.2864 92.5041Z"
              fill="#00FF63"/>
        <path d="M39.3364 57.0199C41.4392 55.6868 43.5706 55.3439 45.7343 55.9979C47.9051 56.6479 49.5553 58.1225 50.703 60.4203C51.833 62.7371 52.062 65.1053 51.4048 67.5344C50.7477 69.9635 49.366 71.8501 47.2703 73.1791L43.5383 75.5414L46.7761 82.1556L41.25 85.6584L30.0854 62.8809L39.3436 57.0158L39.3364 57.0199ZM45.2588 65.8803C45.4051 65.2495 45.3215 64.6319 45.0225 64.0194C44.7235 63.4068 44.2992 63.0089 43.7528 62.8148C43.2103 62.6275 42.6716 62.6986 42.1549 63.0268L38.534 65.3172L40.6164 69.62L44.2622 67.3065C44.7789 66.9783 45.1159 66.5002 45.255 65.8735L45.2588 65.8803Z"
              fill="#00FF63"/>
        <path d="M65.3793 48.3121L57.1153 53.5521L58.2666 55.9737L65.6444 51.2978L68.5491 57.2559L61.2 61.9155L62.4278 64.4555L70.8462 59.1192L73.7758 65.0542L59.8313 73.8933L48.6667 51.1158L62.4713 42.3649L65.3904 48.3148L65.3793 48.3121Z"
              fill="#00FF63"/>
        <path d="M81.9575 37.8106L73.6934 43.0506L74.8447 45.4722L82.2225 40.7963L85.1272 46.7544L77.7782 51.414L79.0059 53.954L87.4244 48.6177L90.354 54.5527L76.4094 63.3918L65.2448 40.6144L79.0495 31.8634L81.9686 37.8133L81.9575 37.8106Z"
              fill="#00FF63"/>
        <path d="M89.767 25.0711C91.6939 23.8466 93.6894 23.2301 95.7393 23.2297C97.7963 23.2253 99.6912 23.8068 101.435 24.9768C103.179 26.1469 104.578 27.7992 105.641 29.9295C106.425 31.5344 106.9 33.1972 107.071 34.9424C107.238 36.6808 107.114 38.3412 106.696 39.9343C106.278 41.5275 105.579 43.01 104.596 44.3927C103.612 45.7754 102.389 46.9346 100.943 47.8514L92.9834 52.892L81.8188 30.1145L89.778 25.0739L89.767 25.0711ZM99.9563 33.5218C99.1918 31.9687 98.0994 30.9603 96.6975 30.4953C95.2885 30.0344 93.9165 30.2264 92.571 31.0861L90.2635 32.544L95.5722 43.4406L97.8903 41.9678C99.2252 41.1229 100.096 39.8937 100.492 38.2774C100.891 36.6679 100.714 35.0791 99.9596 33.511L99.9563 33.5218Z"
              fill="#00FF63"/>
        <path d="M80.084 102.752C78.8962 103.504 77.6639 103.977 76.3941 104.165C75.1171 104.357 73.9087 104.268 72.7551 103.923C71.6087 103.574 70.5314 102.961 69.5377 102.077C68.5439 101.192 67.723 100.093 67.0788 98.7865L60.2816 84.9224L65.8077 81.4196L72.5871 95.1681C73.0531 96.1264 73.7106 96.7518 74.5738 97.0363C75.437 97.3207 76.2812 97.2026 77.1172 96.6669C77.957 96.138 78.4941 95.3761 78.7362 94.3946C78.9783 93.4131 78.8697 92.4323 78.4181 91.4659L71.6531 77.7092L77.1793 74.2064L83.9765 88.0705C84.8345 89.8224 85.2487 91.6456 85.2082 93.5373C85.1677 95.429 84.6994 97.1853 83.8072 98.813C82.9112 100.434 81.674 101.754 80.0951 102.754L80.084 102.752Z"
              fill="#00FF63"/>
        <path d="M89.438 66.4462C91.5408 65.1131 93.6721 64.7702 95.8358 65.4242C98.0067 66.0742 99.6569 67.5487 100.805 69.8465C101.935 72.1633 102.164 74.5315 101.506 76.9607C100.849 79.3898 99.4676 81.2763 97.372 82.6053L93.6399 84.9677L96.8778 91.5819L91.3516 95.0847L80.187 72.3072L89.4452 66.4421L89.438 66.4462ZM95.3565 75.2997C95.5028 74.669 95.4192 74.0514 95.1202 73.4388C94.8212 72.8263 94.3969 72.4284 93.8505 72.2343C93.308 72.0469 92.7693 72.118 92.2526 72.4462L88.6317 74.7367L90.7141 79.0394L94.3599 76.7259C94.8766 76.3978 95.2136 75.9196 95.3527 75.2929L95.3565 75.2997Z"
              fill="#00FF63"/>
        <path opacity="0.5"
              d="M196.511 39.1928C199.015 40.0084 201.742 40.5433 203.682 39.4419C206.379 37.9127 205.602 33.7993 202.657 33.2583C204.124 30.2822 200.674 26.6434 197.538 29.031C196.046 30.1652 195.191 31.5743 194.455 33.3238C195.016 31.486 195.261 29.8361 194.858 27.9888C194.019 24.1398 189.031 24.6724 188.217 27.8893C185.624 26.393 182.512 28.9728 183.424 31.9333C183.988 33.7596 185.674 34.9663 187.592 35.8587C185.545 35.3169 183.471 35.1624 181.858 36.1885C179.242 37.8502 179.938 41.8311 182.882 42.3721C181.414 45.3478 184.866 48.987 188.002 46.5994C189.494 45.4623 190.388 44.0361 191.157 42.2708C190.57 44.1017 190.297 45.7432 190.699 47.5919C191.537 51.4409 196.526 50.9083 197.34 47.6914C199.933 49.1877 203.192 46.5601 202.133 43.6474C201.37 41.553 198.947 40.1929 196.512 39.19L196.511 39.1928Z"
              fill="#225C35"/>
        <path opacity="0.5"
              d="M166.305 31.2159C167.65 31.6536 169.113 31.9407 170.154 31.3496C171.601 30.5288 171.184 28.3211 169.604 28.0307C170.391 26.4334 168.54 24.4804 166.856 25.7619C166.056 26.3707 165.597 27.1269 165.202 28.0659C165.503 27.0795 165.634 26.194 165.418 25.2025C164.968 23.1367 162.291 23.4226 161.854 25.1491C160.462 24.3461 158.792 25.7306 159.281 27.3196C159.584 28.2998 160.489 28.9475 161.518 29.4264C160.42 29.1356 159.306 29.0527 158.441 29.6034C157.037 30.4953 157.411 32.6319 158.991 32.9223C158.203 34.5193 160.055 36.4726 161.738 35.1911C162.539 34.5808 163.019 33.8153 163.432 32.8679C163.117 33.8505 162.97 34.7315 163.186 35.7238C163.636 37.7896 166.313 37.5037 166.75 35.7772C168.142 36.5803 169.891 35.17 169.323 33.6067C168.913 32.4826 167.613 31.7527 166.306 31.2144L166.305 31.2159Z"
              fill="#225C35"/>
        <path opacity="0.5"
              d="M146.212 28.4333C147.053 28.707 147.968 28.8865 148.618 28.5169C149.523 28.0038 149.262 26.6236 148.275 26.442C148.767 25.4434 147.609 24.2224 146.557 25.0236C146.056 25.4042 145.769 25.877 145.522 26.464C145.711 25.8473 145.793 25.2937 145.658 24.6739C145.376 23.3824 143.702 23.5611 143.429 24.6405C142.559 24.1384 141.515 25.004 141.821 25.9974C142.01 26.6102 142.576 27.0151 143.219 27.3146C142.533 27.1328 141.837 27.0809 141.295 27.4252C140.418 27.9828 140.651 29.3186 141.639 29.5001C141.147 30.4986 142.305 31.7197 143.357 30.9186C143.858 30.537 144.158 30.0584 144.416 29.4661C144.219 30.0805 144.127 30.6313 144.262 31.2516C144.543 32.5431 146.217 32.3644 146.49 31.285C147.36 31.787 148.454 30.9054 148.099 29.928C147.842 29.2252 147.03 28.7689 146.213 28.4324L146.212 28.4333Z"
              fill="#225C35"/>
        <path opacity="0.5"
              d="M210.562 54.4917C213.886 55.5742 217.505 56.2841 220.079 54.8223C223.658 52.7926 222.627 47.3333 218.719 46.6152C220.666 42.6653 216.086 37.8358 211.925 41.0046C209.945 42.5101 208.81 44.3802 207.833 46.7022C208.578 44.263 208.902 42.0733 208.368 39.6214C207.255 34.513 200.634 35.2199 199.554 39.4894C196.112 37.5035 191.982 40.9274 193.192 44.8567C193.94 47.2806 196.179 48.8821 198.724 50.0665C196.007 49.3474 193.254 49.1424 191.114 50.5042C187.643 52.7097 188.566 57.9932 192.473 58.7113C190.525 62.6606 195.106 67.4907 199.268 64.3219C201.249 62.8127 202.435 60.9197 203.455 58.5768C202.677 61.0068 202.314 63.1854 202.847 65.6391C203.96 70.7475 210.581 70.0406 211.661 65.7711C215.103 67.757 219.429 64.2697 218.023 60.4039C217.01 57.6241 213.795 55.819 210.563 54.4879L210.562 54.4917Z"
              fill="#32FF76"/>
        <path opacity="0.5"
              d="M50.3913 191.588C55.2098 193.157 60.4565 194.186 64.189 192.067C69.3772 189.125 67.8822 181.21 62.2174 180.169C65.0395 174.443 58.4005 167.441 52.3668 172.035C49.497 174.218 47.8514 176.929 46.4346 180.295C47.5151 176.759 47.985 173.584 47.2106 170.03C45.597 162.624 35.9992 163.649 34.433 169.839C29.4433 166.96 23.4557 171.923 25.2104 177.62C26.2945 181.134 29.5397 183.455 33.2292 185.173C29.2904 184.13 25.3001 183.833 22.1965 185.807C17.1645 189.004 18.5033 196.664 24.168 197.705C21.3432 203.431 27.985 210.433 34.0186 205.839C36.8903 203.651 38.6089 200.907 40.0884 197.51C38.9601 201.033 38.4341 204.191 39.2075 207.749C40.8211 215.154 50.4189 214.13 51.9852 207.94C56.9749 210.819 63.2466 205.763 61.2077 200.159C59.7394 196.129 55.0791 193.512 50.3932 191.582L50.3913 191.588Z"
              fill="#32FF76"/>
        <path d="M219.113 73.536C222.265 69.9464 225.108 65.7851 224.661 61.7639C224.043 56.1757 216.632 54.5264 213.623 59.0455C209.713 54.471 201.179 57.6166 202.913 64.5514C203.736 67.8489 205.472 70.2828 207.861 72.7621C205.2 70.5108 202.625 68.9229 199.259 68.2713C192.244 66.9139 189.561 75.6079 194.34 79.267C189.99 82.5177 192.062 89.5501 197.648 90.1494C201.095 90.5177 204.313 88.5706 207.173 86.0139C204.805 89.0375 203.063 92.383 203.618 95.8055C204.515 101.353 211.648 103.043 214.657 98.524C218.565 103.1 227.1 99.9528 225.366 93.018C224.539 89.7169 222.802 87.2076 220.41 84.6626C223.042 86.9504 225.581 88.5809 228.95 89.2343C235.965 90.5917 238.647 81.8976 233.869 78.2385C238.219 74.9879 236.173 67.6751 230.561 67.3562C226.524 67.1288 222.524 70.1917 219.109 73.5323L219.113 73.536Z"
              fill="#32FF76"/>
        <g opacity="0.3">
            <path d="M23.8854 215.001C22.6278 212.064 20.9325 209.149 18.3586 208.266C14.7823 207.038 11.6092 211.051 13.4733 214.169C9.54866 215.223 8.95981 221.291 13.6811 222.23C15.9255 222.678 17.9127 222.325 20.1188 221.59C17.9715 222.555 16.2525 223.658 14.8704 225.51C11.9908 229.366 16.4869 233.484 20.1098 231.641C20.8104 235.206 25.6899 235.969 27.6905 232.759C28.924 230.778 28.6839 228.272 27.9682 225.807C29.1115 228.108 30.6337 230.122 32.8758 230.767C36.5091 231.815 39.6252 227.982 37.7611 224.865C41.6864 223.812 42.2746 217.742 37.5533 216.803C35.3055 216.357 33.2719 216.689 31.0251 217.407C33.186 216.47 34.9206 215.4 36.3045 213.548C39.184 209.692 34.6879 205.574 31.0651 207.417C30.3644 203.852 25.3223 202.993 23.4843 206.299C22.1636 208.677 22.8527 211.977 23.882 215.002L23.8854 215.001Z"
                  fill="#225C35"/>
        </g>
        <g opacity="0.3">
            <path d="M25.3989 196.407C23.8355 192.755 21.7278 189.131 18.5277 188.034C14.0815 186.507 10.1366 191.496 12.4541 195.372C7.57485 196.683 6.84277 204.227 12.7125 205.395C15.5028 205.951 17.9734 205.512 20.7161 204.599C18.0465 205.799 15.9094 207.17 14.1911 209.471C10.611 214.266 16.2008 219.385 20.7049 217.094C21.576 221.526 27.6423 222.475 30.1296 218.484C31.6631 216.022 31.3646 212.905 30.4749 209.842C31.8962 212.702 33.7887 215.206 36.5762 216.008C41.0933 217.311 44.9673 212.546 42.6498 208.67C47.5299 207.361 48.2611 199.815 42.3914 198.647C39.5968 198.093 37.0687 198.506 34.2754 199.398C36.9618 198.233 39.1184 196.903 40.8388 194.601C44.4188 189.806 38.8291 184.687 34.325 186.979C33.4539 182.546 27.1853 181.478 24.9003 185.588C23.2583 188.545 24.115 192.647 25.3946 196.408L25.3989 196.407Z"
                  fill="#32FF76"/>
        </g>
    </g>
    <defs>
        <clipPath id="clip0_1359_12393">
            <rect width="243" height="243" fill="white"/>
        </clipPath>
    </defs>
</svg>
