<svg viewBox="0 0 25 25" fill="none" xmlns="http://www.w3.org/2000/svg">
    <path d="M17.179 13.2068L9.67899 20.7068C9.60931 20.7765 9.52658 20.8318 9.43554 20.8695C9.34449 20.9072 9.24691 20.9266 9.14837 20.9266C9.04982 20.9266 8.95224 20.9072 8.86119 20.8695C8.77015 20.8318 8.68742 20.7765 8.61774 20.7068C8.54806 20.6371 8.49278 20.5544 8.45507 20.4634C8.41736 20.3723 8.39795 20.2747 8.39795 20.1762C8.39795 20.0777 8.41736 19.9801 8.45507 19.889C8.49278 19.798 8.54806 19.7153 8.61774 19.6456L15.5881 12.6762L8.61774 5.70682C8.47701 5.56609 8.39795 5.37522 8.39795 5.1762C8.39795 4.97718 8.47701 4.7863 8.61774 4.64557C8.75847 4.50484 8.94934 4.42578 9.14837 4.42578C9.34739 4.42578 9.53826 4.50484 9.67899 4.64557L17.179 12.1456C17.2487 12.2152 17.304 12.2979 17.3418 12.389C17.3795 12.48 17.399 12.5776 17.399 12.6762C17.399 12.7748 17.3795 12.8724 17.3418 12.9634C17.304 13.0545 17.2487 13.1372 17.179 13.2068Z"
          fill="#E5E5EA"/>
</svg>
